<?xml version="1.0" standalone="no"?>
<!DOCTYPE svg PUBLIC "-//W3C//DTD SVG 1.1//EN" "http://www.w3.org/Graphics/SVG/1.1/DTD/svg11.dtd" >
<svg xmlns="http://www.w3.org/2000/svg" xmlns:xlink="http://www.w3.org/1999/xlink" version="1.1">
<metadata>
Created by FontForge 20170731 at Tue Jan 27 17:57:19 2015
 By Aleksey,,,
Copyright (c) 2015 by Mattox Shuler. All rights reserved.
</metadata>
<defs>
<font id="ColtSoft-Medium" horiz-adv-x="1389" >
  <font-face 
    font-family="ColtSoft-Medium"
    font-weight="400"
    font-stretch="normal"
    units-per-em="1000"
    panose-1="0 0 6 0 0 0 0 0 0 0"
    ascent="790"
    descent="-210"
    x-height="700"
    cap-height="700"
    bbox="-4.80645 -470.2 2278 1016"
    underline-thickness="50"
    underline-position="-200"
    unicode-range="U+0020-2260"
  />
<missing-glyph horiz-adv-x="640" 
 />
    <glyph glyph-name=".notdef" horiz-adv-x="640" 
 />
    <glyph glyph-name=".null" horiz-adv-x="0" 
 />
    <glyph glyph-name="nonmarkingreturn" horiz-adv-x="333" 
 />
    <glyph glyph-name="space" unicode=" " horiz-adv-x="380" 
 />
    <glyph glyph-name="exclam" unicode="!" horiz-adv-x="420" 
d="M210 724q78 0 122 -34.5t44 -91.5q0 -48 -36 -135l-63 -155q-7 -20 -30 -20h-74q-23 0 -30 20l-63 155q-36 90 -36 135q0 57 44.5 91.5t121.5 34.5zM210 -17q-58 0 -94.5 34.5t-36.5 86.5q0 51 36.5 85.5t94.5 34.5q57 0 93.5 -34.5t36.5 -85.5q0 -52 -36.5 -86.5
t-93.5 -34.5z" />
    <glyph glyph-name="quotedbl" unicode="&#x22;" horiz-adv-x="614" 
d="M55 666v9q0 25 26 25h167q26 0 26 -25v-9q0 -14 -3 -31l-54 -278q-5 -23 -28 -23h-49q-23 0 -28 23l-54 278q-3 16 -3 31zM340 666v9q0 25 26 25h167q26 0 26 -25v-9q0 -14 -3 -31l-54 -278q-5 -23 -28 -23h-49q-23 0 -28 23l-54 278q-3 16 -3 31z" />
    <glyph glyph-name="numbersign" unicode="#" horiz-adv-x="1169" 
d="M1068 417h-162q-22 0 -28 -22l-19 -71q-6 -29 23 -29h149q30 0 22 -29l-18 -65q-6 -22 -29 -22h-161q-23 0 -29 -22l-35 -135q-6 -22 -29 -22h-107q-30 0 -22 29l31 121q8 29 -22 29h-193q-23 0 -29 -22l-35 -135q-6 -22 -29 -22h-107q-30 0 -22 29l31 121q8 29 -22 29
h-150q-30 0 -22 29l18 65q6 22 29 22h162q23 0 29 22l18 71q8 29 -22 29h-150q-30 0 -22 29l18 65q6 22 29 22h162q22 0 28 22l32 123q6 22 29 22h107q30 0 22 -29l-28 -109q-8 -29 22 -29h194q22 0 28 22l32 123q6 22 29 22h107q30 0 22 -29l-28 -109q-8 -29 22 -29h150
q30 0 22 -29l-18 -65q-6 -22 -29 -22zM698 317l18 71q8 29 -23 29h-193q-22 0 -28 -22l-19 -71q-6 -29 23 -29h193q23 0 29 22z" />
    <glyph glyph-name="dollar" unicode="$" horiz-adv-x="1179" 
d="M1117 233q0 -82 -55.5 -140t-148 -86.5t-217.5 -33.5q-26 -2 -26 -26v-63q0 -26 -26 -26h-62q-26 0 -26 26v66q0 24 -25 26q-179 15 -279 68q-22 13 -35 -10l-8 -15q-9 -19 -30 -19h-85q-26 0 -26 26v181q0 26 26 26h105q20 0 30 -19q66 -112 300 -132q27 -2 27 26v123
q0 25 -25 27l-134 11q-70 6 -124 17t-106.5 33t-81.5 62.5t-29 95.5q0 70 44.5 121.5t118 78t150.5 38t159 11.5q28 0 28 26v64q0 26 26 26h62q26 0 26 -26v-74q0 -24 25 -27q130 -19 198 -58q24 -13 34 10l7 14q10 19 31 19h85q26 0 26 -26v-166q0 -26 -26 -26h-105
q-20 0 -30 19q-48 82 -217 108q-28 5 -28 -24v-120q0 -25 25 -27l89 -7q49 -4 81.5 -8t75.5 -12.5t70.5 -22t54 -34t39 -51t12.5 -70.5zM414 460l115 -9q27 -2 27 25v117q0 26 -27 26q-251 -5 -251 -91q0 -57 136 -68zM670 220v-113q0 -28 28 -25q87 6 139.5 28.5t52.5 59.5
q0 58 -124 69l-69 6q-27 2 -27 -25z" />
    <glyph glyph-name="percent" unicode="%" horiz-adv-x="1201" 
d="M303 334q-120 0 -187.5 47t-67.5 136q0 90 68 141.5t187 51.5t187.5 -51.5t68.5 -141.5q0 -89 -67.5 -136t-188.5 -47zM250 32l584 654q13 14 32 14h74q17 0 21.5 -9.5t-7.5 -22.5l-583 -654q-13 -14 -32 -14h-74q-17 0 -21.5 9.5t6.5 22.5zM198 517q0 -109 105 -109
q106 0 106 109q0 57 -28 88t-78 31t-77.5 -31t-27.5 -88zM897 -10q-120 0 -187.5 47t-67.5 136q0 90 68 141.5t187 51.5t187.5 -51.5t68.5 -141.5q0 -89 -67.5 -136t-188.5 -47zM792 173q0 -109 105 -109q106 0 106 109q0 57 -28 88t-78 31t-77.5 -31t-27.5 -88z" />
    <glyph glyph-name="ampersand" unicode="&#x26;" horiz-adv-x="1227" 
d="M1145 178q27 -11 26 -33q-16 -165 -220 -165q-140 0 -249 68q-18 12 -37 -1q-97 -71 -280 -71q-43 0 -84 4t-91 17t-86 34.5t-61 60.5t-25 90q0 155 222 187q32 5 15 31q-32 49 -32 106q0 61 32.5 106t85.5 68t108 33.5t113 10.5q124 0 209.5 -50t85.5 -141
q0 -64 -48 -110.5t-144 -64.5q-17 -3 -20 -12.5t10 -20.5l41 -31q20 -17 36 3q36 42 63.5 68t78.5 49.5t108 23.5q82 0 125 -39t43 -92q0 -44 -29.5 -75t-79.5 -31q-63 0 -93 44.5t1 99.5q6 11 4 15t-14 0q-46 -15 -77 -42t-65 -70q-16 -21 4 -36l47 -37q73 -56 140 -56
q69 0 98 47q12 21 39 12zM585 622q-58 0 -89 -23t-31 -59q0 -51 92 -123q11 -9 31 -3q71 19 102 46t31 66q0 50 -41.5 73t-94.5 23zM289 211q0 -63 48.5 -95.5t120.5 -32.5q60 0 116 23q14 6 15 16.5t-11 19.5l-202 159q-21 15 -43 0q-44 -29 -44 -90z" />
    <glyph glyph-name="quotesingle" unicode="'" horiz-adv-x="329" 
d="M55 666v9q0 25 26 25h167q26 0 26 -25v-9q0 -14 -3 -31l-54 -278q-5 -23 -28 -23h-49q-23 0 -28 23l-54 278q-3 16 -3 31z" />
    <glyph glyph-name="parenleft" unicode="(" horiz-adv-x="522" 
d="M478 700v-37q0 -24 -25 -26q-98 -9 -147.5 -83.5t-49.5 -203.5t49.5 -203.5t147.5 -83.5q25 -2 25 -26v-37q0 -26 -26 -26q-194 6 -299 95t-105 281t105 281t299 95q26 0 26 -26z" />
    <glyph glyph-name="parenright" unicode=")" horiz-adv-x="522" 
d="M44 663v37q0 26 26 26q194 -6 299 -95t105 -281t-105 -281t-299 -95q-26 0 -26 26v37q0 24 25 26q98 9 147.5 83.5t49.5 203.5t-49.5 203.5t-147.5 83.5q-25 2 -25 26z" />
    <glyph glyph-name="asterisk" unicode="*" horiz-adv-x="617" 
d="M538 441l-114 -3q-18 -1 -21 -11.5t11 -21.5l91 -69q24 -19 -1 -37l-104 -76q-25 -18 -35 11l-39 107q-4 11 -10.5 15t-13 0t-10.5 -15l-38 -108q-10 -29 -35 -11l-104 76q-25 17 -1 37l89 69q14 11 11 21.5t-21 10.5l-114 3q-30 2 -22 30l41 124q8 29 34 12l94 -64
q16 -10 24.5 -3.5t3.5 23.5l-32 110q-4 13 2 21t20 8h129q14 0 20 -8t2 -21l-32 -110q-5 -17 3.5 -23.5t24.5 3.5l94 65q26 17 34 -12l40 -123q9 -28 -21 -30z" />
    <glyph glyph-name="plus" unicode="+" horiz-adv-x="673" 
d="M623 400v-80q0 -26 -26 -26h-159q-26 0 -26 -26v-150q0 -26 -26 -26h-99q-26 0 -26 26v150q0 26 -26 26h-159q-26 0 -26 26v80q0 26 26 26h159q26 0 26 26v150q0 26 26 26h99q26 0 26 -26v-150q0 -26 26 -26h159q26 0 26 -26z" />
    <glyph glyph-name="comma" unicode="," horiz-adv-x="359" 
d="M145 -11q-46 0 -73.5 31.5t-27.5 79.5q0 55 36.5 90t93.5 35q63 0 102 -45t39 -128q0 -98 -53.5 -155.5t-134.5 -76.5q-24 -6 -32 18l-8 23q-8 26 19 32q52 14 81 41.5t35 76.5q1 6 -3 7.5t-8 -4.5q-25 -25 -66 -25z" />
    <glyph glyph-name="hyphen" unicode="-" horiz-adv-x="833" 
d="M80 323v74q0 26 26 26h621q26 0 26 -26v-74q0 -26 -26 -26h-621q-26 0 -26 26z" />
    <glyph glyph-name="period" unicode="." horiz-adv-x="349" 
d="M175 -16q-58 0 -94.5 34.5t-36.5 86.5q0 51 36.5 85.5t94.5 34.5q57 0 93.5 -34.5t36.5 -85.5q0 -52 -36.5 -86.5t-93.5 -34.5z" />
    <glyph glyph-name="slash" unicode="/" horiz-adv-x="892" 
d="M839 758l-596 -812q-12 -16 -32 -16h-142q-16 0 -21 9t5 23l596 812q12 16 32 16h142q16 0 21 -9t-5 -23z" />
    <glyph glyph-name="zero" unicode="0" horiz-adv-x="1206" 
d="M603 -27q-269 0 -412 93t-143 284t143 284.5t412 93.5t412 -93.5t143 -284.5t-143 -284t-412 -93zM314 350q0 -133 68.5 -203t220.5 -70t220.5 70t68.5 203t-68.5 203.5t-220.5 70.5t-220.5 -70.5t-68.5 -203.5z" />
    <glyph glyph-name="one" unicode="1" horiz-adv-x="809" 
d="M547 682v-518q0 -36 14 -48t46 -12h162q26 0 26 -26v-52q0 -26 -26 -26h-694q-26 0 -26 26v52q0 26 26 26h172q32 0 46 12t14 48v272q0 36 -14 48t-46 12h-152q-26 0 -26 26v52q0 26 26 26h44q104 0 155.5 18t96.5 74q13 16 32 16h98q26 0 26 -26z" />
    <glyph glyph-name="two" unicode="2" horiz-adv-x="1137" 
d="M968 266h79q26 0 26 -26v-214q0 -26 -26 -26h-964q-26 0 -26 26v56q0 61 41 109.5t106.5 80t145 56.5t159 45t145 40.5t106.5 47.5t41 61q0 18 -11.5 33t-39 31t-85.5 25t-140 9q-205 0 -296 -56q-6 -3 -7 -6.5t3 -5.5t11 -1q57 8 90.5 -18.5t33.5 -72.5
q0 -48 -34.5 -73.5t-93.5 -25.5q-71 0 -116.5 36.5t-45.5 99.5q0 102 118 165.5t364 63.5q251 0 380 -65.5t129 -166.5q0 -71 -65.5 -124.5t-165 -85.5t-201 -55.5t-189 -47.5t-114.5 -49q-10 -10 -3.5 -19t22.5 -9h406q96 0 137.5 30t51.5 107q4 25 28 25z" />
    <glyph glyph-name="three" unicode="3" horiz-adv-x="1141" 
d="M874 359q104 -16 163 -54t59 -110q0 -35 -14.5 -65t-52 -59.5t-97 -50t-156.5 -33t-222 -11.5q-253 1 -377.5 58.5t-124.5 152.5q0 63 49.5 97.5t115.5 34.5q56 0 96 -24.5t40 -66.5q0 -85 -116 -85q-11 -1 -16 -3t-2.5 -6t12.5 -9q97 -46 303 -46q157 0 229.5 27.5
t72.5 84.5q0 112 -266 112h-82q-26 0 -26 26v52q0 26 26 26h82q127 0 176.5 28.5t49.5 78.5q0 55 -60.5 81t-208.5 26q-213 0 -312 -55q-3 -1 -3.5 -3t1.5 -3t6 -1q55 8 96 -12.5t41 -70.5q0 -48 -35.5 -71.5t-90.5 -23.5q-66 0 -115.5 34.5t-49.5 99.5q0 97 122.5 153
t362.5 56q263 0 384.5 -56t121.5 -149q0 -65 -50.5 -102.5t-133.5 -47.5q-12 -1 -11.5 -4.5t13.5 -5.5z" />
    <glyph glyph-name="four" unicode="4" horiz-adv-x="1228" 
d="M1155 210h-196q-26 0 -26 -23v-23q0 -36 14 -48t46 -12h162q26 0 26 -26v-52q0 -26 -26 -26h-694q-26 0 -26 26v52q0 26 26 26h172q32 0 46 12t14 48v20q0 26 -26 26h-618q-26 0 -26 26v66q0 21 19 31l692 359q15 8 32 8h141q26 0 26 -26v-334q0 -26 26 -26h196
q26 0 26 -26v-52q0 -26 -26 -26zM296 314h371q26 0 26 26v180q0 16 -8.5 21t-22.5 -2l-373 -194q-18 -9 -15.5 -20t22.5 -11z" />
    <glyph glyph-name="five" unicode="5" horiz-adv-x="1121" 
d="M604 486q140 0 242.5 -25t165 -83t62.5 -145q0 -257 -520 -257q-247 0 -379.5 63t-132.5 155q0 51 39.5 82t107.5 31q63 0 104.5 -26t41.5 -69q0 -42 -36 -65t-85 -18q-3 1 -4 -1q0 -1 3 -3q1 -1 2 -1q138 -44 296 -44q139 0 220 39.5t81 112.5q0 72 -78 109.5t-209 37.5
q-16 0 -32 -1t-28 -1.5t-29 -3t-25.5 -3t-27.5 -5t-25 -5.5t-28 -6.5l-26 -6.5l-30 -7.5l-30 -7.5q-18 -4 -34 1l-86 28q-22 7 -19 30l35 302q3 27 29 22q160 -28 484 -28q216 0 342 18q24 3 31 -19l1 -2q5 -23 -12 -34q-60 -41 -179 -65.5t-251 -24.5q-156 0 -271 24
q-27 6 -30 -21l-13 -111q-1 -16 5.5 -22t18.5 0q117 56 309 56z" />
    <glyph glyph-name="six" unicode="6" horiz-adv-x="1140" 
d="M640 438q206 0 330 -60t124 -167q0 -108 -131.5 -173.5t-372.5 -65.5q-261 0 -401.5 93.5t-140.5 284.5t140 283.5t402 92.5q217 0 342 -51t125 -138q0 -51 -42.5 -79t-105.5 -28q-58 0 -103 23t-45 63q0 41 41 61t88 11h3q2 2 -2 3q-104 42 -281 42q-149 0 -217.5 -63.5
t-77.5 -176.5q-1 -11 1.5 -18.5t6.5 -10t10 1.5q108 72 307 72zM585 78q100 0 172.5 32.5t72.5 95.5q0 43 -37 72.5t-90.5 41.5t-117.5 12t-117.5 -12t-90.5 -41.5t-37 -72.5q0 -63 72.5 -95.5t172.5 -32.5z" />
    <glyph glyph-name="seven" unicode="7" horiz-adv-x="1082" 
d="M147 384h-79q-26 0 -26 26v264q0 26 26 26h986q26 0 26 -26v-37q0 -20 -17 -30q-40 -25 -62.5 -39t-76 -52t-88.5 -69.5t-82 -82.5t-76 -99.5t-52 -111.5t-26 -127q-2 -26 -27 -26h-241q-28 0 -25 26q15 131 153 296.5t288 246.5q11 6 14.5 12.5t-2 10.5t-18.5 4h-378
q-101 0 -141 -41.5t-49 -144.5q-3 -26 -27 -26z" />
    <glyph glyph-name="eight" unicode="8" horiz-adv-x="1140" 
d="M898 382q-29 -7 0 -13q90 -22 144 -64.5t54 -105.5q0 -32 -14 -61.5t-51.5 -60t-95.5 -52t-154.5 -35.5t-220.5 -14q-121 0 -214.5 13.5t-149 34t-91 49t-48.5 56t-13 56.5q0 54 44 96t125 66q29 9 0 16q-60 16 -99.5 54t-39.5 92q0 93 121.5 154t374.5 61
q104 0 187.5 -11.5t136 -30.5t88 -45t50 -52.5t14.5 -55.5q0 -51 -43.5 -91t-104.5 -56zM560 620q-106 0 -166 -21.5t-60 -59.5q0 -23 29 -39.5t111.5 -36t244.5 -47.5q20 -3 36 4q87 42 87 102q0 98 -282 98zM570 80q266 0 266 93q0 24 -29 40.5t-129 40t-307 58.5
q-22 3 -35 -3q-33 -16 -57.5 -45t-24.5 -66q0 -55 70 -86.5t246 -31.5z" />
    <glyph glyph-name="nine" unicode="9" horiz-adv-x="1140" 
d="M500 263q-206 0 -330 60t-124 167q0 108 131.5 173.5t372.5 65.5q261 0 401.5 -93.5t140.5 -284.5t-140 -283.5t-402 -92.5q-217 0 -342 51t-125 138q0 51 42.5 79t105.5 28q58 0 103 -23t45 -63q0 -41 -41 -61t-88 -11h-3q-2 -2 2 -3q104 -42 281 -42q149 0 217.5 63.5
t77.5 176.5q1 11 -1.5 18.5t-6.5 10t-10 -1.5q-108 -72 -307 -72zM555 623q-100 0 -172.5 -32.5t-72.5 -95.5q0 -43 37 -72.5t90.5 -41.5t117.5 -12t117.5 12t90.5 41.5t37 72.5q0 63 -72.5 95.5t-172.5 32.5z" />
    <glyph glyph-name="colon" unicode=":" horiz-adv-x="409" 
d="M205 369q-58 0 -94.5 34.5t-36.5 86.5q0 51 36.5 85.5t94.5 34.5q57 0 93.5 -34.5t36.5 -85.5q0 -52 -36.5 -86.5t-93.5 -34.5zM205 -16q-58 0 -94.5 34.5t-36.5 86.5q0 51 36.5 85.5t94.5 34.5q57 0 93.5 -34.5t36.5 -85.5q0 -52 -36.5 -86.5t-93.5 -34.5z" />
    <glyph glyph-name="semicolon" unicode=";" horiz-adv-x="419" 
d="M209 369q-58 0 -94.5 34.5t-36.5 86.5q0 51 36.5 85.5t94.5 34.5q57 0 93.5 -34.5t36.5 -85.5q0 -52 -36.5 -86.5t-93.5 -34.5zM175 -11q-46 0 -73.5 31.5t-27.5 79.5q0 55 36.5 90t93.5 35q63 0 102 -45t39 -128q0 -98 -53.5 -155.5t-134.5 -76.5q-24 -6 -32 18l-8 23
q-8 26 19 32q52 14 81 41.5t35 76.5q1 6 -3 7.5t-8 -4.5q-25 -25 -66 -25z" />
    <glyph glyph-name="less" unicode="&#x3c;" horiz-adv-x="665" 
d="M591 616l5 -8q14 -21 -7 -36l-294 -205q-26 -18 0 -36l294 -204q21 -15 7 -36l-5 -8q-14 -21 -35 -11l-487 228q-19 9 -19 30v38q0 21 19 30l487 229q21 10 35 -11z" />
    <glyph glyph-name="equal" unicode="=" horiz-adv-x="836" 
d="M80 423v68q0 26 26 26h624q26 0 26 -26v-68q0 -26 -26 -26h-624q-26 0 -26 26zM80 217v68q0 26 26 26h624q26 0 26 -26v-68q0 -26 -26 -26h-624q-26 0 -26 26z" />
    <glyph glyph-name="greater" unicode="&#x3e;" horiz-adv-x="665" 
d="M69 608l5 8q14 21 35 11l487 -229q19 -9 19 -30v-38q0 -21 -19 -30l-487 -228q-21 -10 -35 11l-5 8q-14 21 7 36l294 204q26 18 0 36l-294 205q-21 15 -7 36z" />
    <glyph glyph-name="question" unicode="?" horiz-adv-x="915" 
d="M495 272h-70q-13 0 -20 7.5t-5 20.5q6 41 31 69.5t56 44t61.5 29t51 34.5t20.5 51q0 94 -191 94q-146 0 -237 -61q-6 -4 -4.5 -8.5t9.5 -3.5q53 3 90 -20t37 -70t-36.5 -72t-88.5 -25q-62 0 -106 35t-44 100q0 100 106 164.5t289 64.5q187 0 306.5 -58t119.5 -148
q0 -44 -31 -74.5t-77.5 -47t-94.5 -30t-89 -32t-54 -43.5q-11 -21 -29 -21zM455 -16q-58 0 -94.5 34.5t-36.5 86.5q0 51 36.5 85.5t94.5 34.5q57 0 93.5 -34.5t36.5 -85.5q0 -52 -36.5 -86.5t-93.5 -34.5z" />
    <glyph glyph-name="at" unicode="@" horiz-adv-x="1312" 
d="M656 728q131 0 237 -18t191 -57.5t131.5 -107.5t46.5 -161q0 -132 -80 -195.5t-203 -63.5q-128 0 -160 46q-13 18 -29 7q-77 -57 -207 -57q-133 0 -215 62t-82 161q0 102 87.5 166.5t237.5 64.5q151 0 214 -71q20 -22 36 0l23 33q11 17 31 17h71q29 0 23 -29l-54 -252
q-16 -70 50 -70q61 0 108 49.5t47 135.5q0 72 -40 125t-111.5 82.5t-159 43t-193.5 13.5q-109 0 -197.5 -16.5t-158.5 -51.5t-109 -94.5t-39 -139.5q0 -152 133.5 -227t370.5 -75q163 0 308 32q14 4 21 -2.5t6 -21.5l-2 -17q-2 -21 -22 -27q-132 -40 -315 -40
q-133 0 -240.5 21.5t-189.5 66t-127 118.5t-45 172t46.5 172.5t130 118.5t191 65.5t238.5 21.5zM792 352q0 58 -38 93.5t-114 35.5q-79 0 -123 -39.5t-44 -101.5q0 -60 41.5 -92t110.5 -32q71 0 119 34t48 102z" />
    <glyph glyph-name="A" unicode="A" 
d="M1353 104h17q17 0 17 -26v-52q0 -26 -26 -26h-520q-26 0 -26 26v52q0 26 26 26h79q31 0 39.5 18t-9.5 43l-26 36q-13 16 -32 16h-488q-19 0 -31 -16l-27 -36q-19 -25 -10 -43t40 -18h83q26 0 26 -26v-52q0 -26 -26 -26h-419q-26 0 -26 26v52q0 26 17 26h17
q49 0 76.5 13.5t57.5 52.5l277 365q20 25 11.5 43t-41.5 18h-50q-26 0 -26 26v52q0 26 26 26h430q20 0 32 -16l378 -514q28 -39 56 -52.5t78 -13.5zM501 321h295q16 0 21 9.5t-5 22.5l-144 196q-18 25 -36 0l-146 -196q-10 -13 -5.5 -22.5t20.5 -9.5z" />
    <glyph glyph-name="B" unicode="B" horiz-adv-x="1331" 
d="M1058 358q234 -29 234 -163q0 -90 -101.5 -142.5t-294.5 -52.5h-821q-26 0 -26 26v52q0 26 26 26h102q32 0 46 12t14 48v372q0 36 -14 48t-46 12h-102q-26 0 -26 26v52q0 26 26 26h795q184 0 283 -49t99 -131q0 -57 -49 -100.5t-145 -54.5q-8 -1 -10 -3q-1 -1 3 -2
q2 -1 7 -2zM477 570v-138q0 -26 26 -26h308q96 0 137 22.5t41 72.5t-41 72.5t-137 22.5h-308q-26 0 -26 -26zM503 104h334q98 0 143 24t45 76t-45 76t-143 24h-334q-26 0 -26 -26v-148q0 -26 26 -26z" />
    <glyph glyph-name="C" unicode="C" horiz-adv-x="1205" 
d="M1126 446h-112q-21 0 -30 20q-38 82 -115 120t-206 38q-355 0 -355 -274t355 -274q277 0 334 165q9 22 30 22h104q14 0 20 -8t2 -21q-45 -135 -174 -198.5t-352 -63.5q-277 0 -431 94.5t-154 283.5q0 126 74 212.5t200.5 126t299.5 39.5q222 0 338 -73q23 -14 36 8l11 19
q11 18 32 18h93q26 0 26 -26v-202q0 -26 -26 -26z" />
    <glyph glyph-name="D" unicode="D" horiz-adv-x="1376" 
d="M75 700h629q320 0 475 -82.5t155 -262.5q0 -187 -154.5 -271t-475.5 -84h-629q-26 0 -26 26v52q0 26 26 26h102q32 0 46 12t14 48v372q0 36 -13 48t-47 12h-102q-26 0 -26 26v52q0 26 26 26zM1068 355q0 126 -86 183.5t-288 57.5h-191q-26 0 -26 -26v-440q0 -26 26 -26
h191q203 0 288.5 59t85.5 192z" />
    <glyph glyph-name="E" unicode="E" horiz-adv-x="1304" 
d="M932 596h-429q-26 0 -26 -26v-137q0 -26 26 -26h184q65 0 87.5 19.5t22.5 70.5q0 23 26 23h68q26 0 26 -26v-278q0 -26 -26 -26h-68q-26 0 -26 23q0 51 -22 70.5t-88 19.5h-184q-26 0 -26 -26v-147q0 -26 26 -26h439q86 0 118.5 38t41.5 129q2 25 27 25h79q26 0 26 -26
v-244q0 -26 -26 -26h-1133q-26 0 -26 26v52q0 26 26 26h102q32 0 46 12t14 48v372q0 36 -14 48t-46 12h-102q-26 0 -26 26v52q0 26 26 26h1123q26 0 26 -26v-214q0 -26 -26 -26h-79q-25 0 -27 25q-9 79 -41 108t-119 29z" />
    <glyph glyph-name="F" unicode="F" horiz-adv-x="1252" 
d="M75 700h1123q26 0 26 -26v-214q0 -26 -26 -26h-89q-25 0 -27 25q-9 78 -39 107.5t-111 29.5h-429q-26 0 -26 -26v-143q0 -26 26 -26h184q65 0 87.5 19.5t22.5 70.5q0 23 26 23h68q26 0 26 -26v-278q0 -26 -26 -26h-68q-26 0 -26 25q0 49 -22.5 68.5t-87.5 19.5h-184
q-26 0 -26 -26v-107q0 -36 14 -48t46 -12h102q26 0 26 -26v-52q0 -26 -26 -26h-564q-26 0 -26 26v52q0 26 26 26h102q32 0 46 12t14 48v372q0 36 -14 48t-46 12h-102q-26 0 -26 26v52q0 26 26 26z" />
    <glyph glyph-name="G" unicode="G" horiz-adv-x="1337" 
d="M795 386h490q26 0 26 -26v-58q0 -26 -25 -26h-25q-37 0 -48.5 -11t-11.5 -49v-190q0 -26 -26 -26h-89q-23 0 -29 22l-14 48q-10 31 -34 10q-123 -108 -369 -108q-285 0 -441.5 94t-156.5 284t156.5 284t441.5 94q231 0 346 -73q23 -14 36 8l11 19q11 18 32 18h93
q26 0 26 -26v-201q0 -26 -26 -26h-112q-21 0 -30 20q-76 157 -348 157q-195 0 -277.5 -69.5t-82.5 -204.5q0 -134 83.5 -204t276.5 -70q147 0 235 54t88 112q0 34 -47 34h-149q-26 0 -26 26v58q0 26 26 26z" />
    <glyph glyph-name="H" unicode="H" horiz-adv-x="1502" 
d="M1265 536v-372q0 -36 14 -48t46 -12h102q26 0 26 -26v-52q0 -26 -26 -26h-564q-26 0 -26 26v52q0 26 26 26h102q32 0 46 12t14 48v114q0 26 -26 26h-496q-26 0 -26 -26v-114q0 -36 14 -48t46 -12h102q26 0 26 -26v-52q0 -26 -26 -26h-564q-26 0 -26 26v52q0 26 26 26h102
q32 0 46 12t14 48v372q0 36 -14 48t-46 12h-102q-26 0 -26 26v52q0 26 26 26h564q26 0 26 -26v-52q0 -26 -26 -26h-102q-32 0 -46 -12t-14 -48v-102q0 -26 26 -26h496q26 0 26 26v102q0 36 -14 48t-46 12h-102q-26 0 -26 26v52q0 26 26 26h564q26 0 26 -26v-52
q0 -26 -26 -26h-102q-32 0 -46 -12t-14 -48z" />
    <glyph glyph-name="I" unicode="I" horiz-adv-x="714" 
d="M477 536v-372q0 -36 14 -48t46 -12h102q26 0 26 -26v-52q0 -26 -26 -26h-564q-26 0 -26 26v52q0 26 26 26h102q32 0 46 12t14 48v372q0 36 -14 48t-46 12h-102q-26 0 -26 26v52q0 26 26 26h564q26 0 26 -26v-52q0 -26 -26 -26h-102q-32 0 -46 -12t-14 -48z" />
    <glyph glyph-name="J" unicode="J" horiz-adv-x="1119" 
d="M160 225q-11 8 -14.5 6t2.5 -14q29 -59 102.5 -97t155.5 -38q109 0 186 68.5t77 199.5v186q0 36 -14 48t-46 12h-102q-26 0 -26 26v52q0 26 26 26h560q26 0 26 -26v-52q0 -26 -26 -26h-98q-32 0 -46 -12t-14 -48v-224q0 -83 -37.5 -149.5t-100 -107t-140 -62
t-161.5 -21.5q-113 0 -214.5 36t-167 107t-65.5 160q0 87 57 137t131 50q61 0 103.5 -35.5t42.5 -98.5q0 -41 -20 -71.5t-50 -43t-64.5 -10t-62.5 21.5z" />
    <glyph glyph-name="K" unicode="K" horiz-adv-x="1430" 
d="M1428 78v-52q0 -26 -26 -26h-573q-26 0 -26 26v52q0 26 26 26h58q20 0 28 8t3.5 20t-18.5 24l-202 168q-15 14 -35 5l-166 -73q-20 -9 -20 -31v-61q0 -36 14 -48t46 -12h88q26 0 26 -26v-52q0 -26 -26 -26h-550q-26 0 -26 26v52q0 26 26 26h102q32 0 46 12t14 48v372
q0 36 -14 48t-46 12h-102q-26 0 -26 26v52q0 26 26 26h550q26 0 26 -26v-52q0 -26 -26 -26h-88q-32 0 -46 -12t-14 -48v-134q0 -14 8.5 -19.5t21.5 0.5l383 172q21 9 26 19t-2 16t-20 6h-59q-26 0 -26 26v52q0 26 26 26h531q26 0 26 -26v-52q0 -26 -24 -26h-24
q-83 0 -174 -40l-250 -111q-13 -6 -14.5 -16t9.5 -20l287 -241q42 -35 85.5 -49.5t107.5 -14.5h7q26 0 26 -26z" />
    <glyph glyph-name="L" unicode="L" horiz-adv-x="1187" 
d="M1043 316h79q26 0 26 -26v-264q0 -26 -26 -26h-1047q-26 0 -26 26v52q0 26 26 26h102q32 0 46 12t14 48v372q0 36 -14 48t-46 12h-102q-26 0 -26 26v52q0 26 26 26h564q26 0 26 -26v-52q0 -26 -26 -26h-102q-32 0 -46 -12t-14 -48v-406q0 -26 26 -26h323q102 0 141.5 42
t48.5 145q3 25 27 25z" />
    <glyph glyph-name="M" unicode="M" horiz-adv-x="1742" 
d="M1505 536v-371q0 -36 14 -48t46 -12h102q26 0 26 -26v-52q0 -26 -26 -26h-560q-26 0 -26 26v52q0 26 26 26h98q32 0 46 12t14 48v346q0 19 -10.5 22t-21.5 -13l-325 -503q-11 -17 -31 -17h-102q-20 0 -31 17l-325 503q-11 16 -21.5 13t-10.5 -22v-347q0 -36 14 -48
t46 -12h98q26 0 26 -26v-52q0 -26 -26 -26h-470q-26 0 -26 26v52q0 26 26 26h102q32 0 46 12t14 48v372q0 36 -14 48t-46 12h-102q-26 0 -26 26v52q0 26 26 26h479q20 0 31 -17l274 -425q18 -28 36 0l278 425q11 17 31 17h463q26 0 26 -26v-52q0 -26 -26 -26h-102
q-32 0 -46 -12t-14 -48z" />
    <glyph glyph-name="N" unicode="N" horiz-adv-x="1455" 
d="M933 701h470q26 0 26 -26v-52q0 -26 -26 -26h-98q-32 0 -46 -12t-14 -48v-511q0 -26 -26 -26h-204q-19 0 -32 12l-564 491q-13 11 -22.5 7t-9.5 -21v-325q0 -36 14 -48t46 -12h102q26 0 26 -26v-52q0 -26 -26 -26h-474q-26 0 -26 26v52q0 26 26 26h102q32 0 46 12t14 48
v372q0 36 -14 48t-46 12h-102q-26 0 -26 26v52q0 26 26 26h444q19 0 32 -12l512 -446q13 -11 22.5 -7t9.5 21v281q0 36 -14 48t-46 12h-102q-26 0 -26 26v52q0 26 26 26z" />
    <glyph glyph-name="O" unicode="O" horiz-adv-x="1314" 
d="M657 -28q-299 0 -457 93.5t-158 284.5t158 284.5t457 93.5t457 -93.5t158 -284.5t-158 -284.5t-457 -93.5zM308 350q0 -134 81 -204t268 -70t268 70t81 204q0 136 -78 205t-271 69q-187 0 -268 -70t-81 -204z" />
    <glyph glyph-name="P" unicode="P" horiz-adv-x="1293" 
d="M75 700h783q200 0 303 -58.5t103 -159.5t-103 -159.5t-303 -58.5h-355q-26 0 -26 -26v-74q0 -36 14 -48t46 -12h102q26 0 26 -26v-52q0 -26 -26 -26h-564q-26 0 -26 26v52q0 26 26 26h102q32 0 46 12t14 48v372q0 36 -14 48t-46 12h-102q-26 0 -26 26v52q0 26 26 26z
M1002 482q0 61 -49 87.5t-155 26.5h-295q-26 0 -26 -26v-176q0 -26 26 -26h295q106 0 155 26.5t49 87.5z" />
    <glyph glyph-name="Q" unicode="Q" horiz-adv-x="1314" 
d="M1048 -86q90 0 142 19q24 7 35 -12l18 -35q13 -23 -9 -35q-87 -45 -241 -45q-113 0 -202 38.5t-125 107.5q-10 20 -31 20q-593 8 -593 378q0 191 158 284.5t457 93.5t457 -93.5t158 -284.5q0 -290 -368 -358q-15 -3 -20.5 -10.5t0.5 -16.5q41 -51 164 -51zM308 350
q0 -134 81 -204t268 -70t268 70t81 204q0 136 -78 205t-271 69q-187 0 -268 -70t-81 -204z" />
    <glyph glyph-name="R" unicode="R" horiz-adv-x="1337" 
d="M1214 104h54q26 0 26 -26v-52q0 -26 -26 -26h-320q-20 0 -32 16l-184 244q-12 16 -31 16h-198q-26 0 -26 -26v-86q0 -36 14 -48t46 -12h102q26 0 26 -26v-52q0 -26 -26 -26h-564q-26 0 -26 26v52q0 26 26 26h102q32 0 46 12t14 48v372q0 36 -14 48t-46 12h-102
q-26 0 -26 26v52q0 26 26 26h799q201 0 303.5 -56t102.5 -156q0 -80 -67 -132.5t-198 -70.5q-16 -2 -20.5 -11.5t5.5 -21.5l64 -84q26 -33 60.5 -48.5t89.5 -15.5zM477 570v-164q0 -26 26 -26h311q103 0 153.5 25t50.5 83t-50.5 83t-153.5 25h-311q-26 0 -26 -26z" />
    <glyph glyph-name="S" unicode="S" horiz-adv-x="1162" 
d="M1049 482h-105q-20 0 -30 19q-36 61 -134 89.5t-223 28.5q-280 0 -280 -91q0 -57 136 -68l370 -29q49 -4 81.5 -8t75.5 -12.5t70.5 -22t54 -34t39 -51t12.5 -70.5q0 -88 -63.5 -147.5t-168 -86.5t-243.5 -27q-254 0 -390 72q-22 13 -35 -10l-8 -15q-9 -19 -30 -19h-85
q-26 0 -26 26v181q0 26 26 26h105q20 0 30 -19q78 -135 390 -135q119 0 195 22.5t76 68.5q0 58 -124 69l-369 30q-70 6 -124 17t-106.5 33t-81.5 62.5t-29 95.5q0 70 44.5 121.5t118 78t150.5 38t159 11.5q114 0 213 -19t152 -50q24 -13 34 10l7 14q10 19 31 19h85
q26 0 26 -26v-166q0 -26 -26 -26z" />
    <glyph glyph-name="T" unicode="T" horiz-adv-x="1254" 
d="M60 700h1134q26 0 26 -26v-234q0 -26 -26 -26h-79q-25 0 -27 26q-8 90 -33 123t-97 33h-185q-26 0 -26 -26v-406q0 -36 14 -48t46 -12h102q26 0 26 -26v-52q0 -26 -26 -26h-564q-26 0 -26 26v52q0 26 26 26h102q32 0 46 12t14 48v406q0 26 -26 26h-185q-72 0 -97 -33
t-33 -123q-2 -26 -27 -26h-79q-26 0 -26 26v234q0 26 26 26z" />
    <glyph glyph-name="U" unicode="U" horiz-adv-x="1404" 
d="M1352 596h-98q-33 0 -45.5 -12t-12.5 -50v-192q0 -189 -113 -279.5t-376 -90.5q-264 0 -381.5 91.5t-117.5 278.5v192q0 38 -12.5 50t-45.5 12h-98q-26 0 -26 26v52q0 26 26 26h552q26 0 26 -26v-52q0 -26 -26 -26h-98q-33 0 -45.5 -12t-12.5 -50v-174q0 -143 67 -213.5
t232 -70.5q164 0 231.5 73t67.5 211v174q0 38 -12.5 50t-45.5 12h-98q-26 0 -26 26v52q0 26 26 26h462q26 0 26 -26v-52q0 -26 -26 -26z" />
    <glyph glyph-name="V" unicode="V" horiz-adv-x="1296" 
d="M42 596h-17q-17 0 -17 26v52q0 26 26 26h520q26 0 26 -26v-52q0 -26 -26 -26h-79q-32 0 -40.5 -16.5t10.5 -44.5l241 -354q18 -26 36 0l237 354q17 23 8.5 42t-39.5 19h-81q-26 0 -26 26v52q0 26 26 26h415q26 0 26 -26v-52q0 -26 -17 -26h-17q-53 0 -80.5 -13.5
t-53.5 -52.5l-348 -513q-11 -17 -31 -17h-178q-19 0 -31 16l-356 514q-27 39 -54.5 52.5t-79.5 13.5z" />
    <glyph glyph-name="W" unicode="W" horiz-adv-x="1834" 
d="M1395 700h403q26 0 26 -26v-52q0 -26 -17 -26h-17q-54 0 -83.5 -13.5t-50.5 -52.5l-277 -512q-11 -18 -31 -18h-192q-20 0 -31 18l-189 340q-8 14 -18 14t-18 -14l-183 -340q-11 -18 -31 -18h-192q-20 0 -31 18l-285 512q-21 39 -50.5 52.5t-83.5 13.5h-8q-26 0 -26 26
v52q0 26 26 26h504q26 0 26 -26v-52q0 -26 -26 -26h-69q-29 0 -37 -17.5t7 -43.5l183 -343q8 -14 18 -14t18 14l169 322q10 21 -2 36q-37 46 -101 46q-26 0 -26 26v52q0 26 26 26h476q26 0 26 -26v-52q0 -26 -26 -26h-69q-29 0 -37 -17.5t7 -43.5l183 -343q8 -14 18 -14
t18 14l179 343q13 23 5.5 42t-36.5 19h-75q-26 0 -26 26v52q0 26 26 26z" />
    <glyph glyph-name="X" unicode="X" horiz-adv-x="1301" 
d="M1265 104h13q13 0 13 -26v-52q0 -26 -26 -26h-568q-26 0 -26 26v52q0 26 26 26h59q30 0 37.5 14t-15.5 30l-168 118q-18 12 -36 0l-165 -118q-22 -16 -15 -30t37 -14h53q26 0 26 -26v-52q0 -26 -26 -26h-448q-26 0 -26 26v52q0 26 12 26h11q79 0 139 39l294 187
q26 18 0 36l-270 190q-57 40 -137 40q-26 0 -26 26v52q0 26 26 26h571q26 0 26 -26v-52q0 -26 -26 -26h-62q-30 0 -37.5 -14t15.5 -30l152 -107q18 -12 36 0l153 107q22 16 15 30t-37 14h-61q-26 0 -26 26v52q0 26 26 26h429q26 0 26 -26v-52q0 -26 -11 -26h-12
q-70 0 -129 -39l-265 -176q-13 -7 -13 -17.5t12 -18.5l287 -201q57 -40 137 -40z" />
    <glyph glyph-name="Y" unicode="Y" horiz-adv-x="1260" 
d="M1079 545l-299 -278q-14 -13 -14 -32v-71q0 -36 14 -48t46 -12h102q26 0 26 -26v-52q0 -26 -26 -26h-564q-26 0 -26 26v52q0 26 26 26h102q32 0 46 12t14 48v59q0 19 -14 32l-321 290q-33 30 -68.5 40.5t-88.5 10.5q-24 0 -24 26v52q0 26 26 26h530q26 0 26 -26v-52
q0 -26 -26 -26h-66q-27 0 -33.5 -16t13.5 -33l197 -175q18 -15 36 1l193 174q20 17 13.5 33t-33.5 16h-66q-26 0 -26 26v52q0 26 26 26h404q26 0 26 -26v-52q0 -15 -5 -20.5t-19 -5.5q-52 0 -83 -10t-64 -41z" />
    <glyph glyph-name="Z" unicode="Z" horiz-adv-x="1190" 
d="M1103 595l-660 -459q-16 -11 -12.5 -21.5t22.5 -10.5h396q82 0 107 33.5t33 136.5q2 26 27 26h89q26 0 26 -26v-248q0 -26 -26 -26h-1031q-26 0 -26 26v48q0 19 16 31l660 459q16 11 12.5 21.5t-22.5 10.5h-355q-82 0 -107 -33.5t-33 -136.5q-2 -26 -27 -26h-89
q-26 0 -26 26v248q0 26 26 26h990q26 0 26 -26v-48q0 -19 -16 -31z" />
    <glyph glyph-name="bracketleft" unicode="[" horiz-adv-x="463" 
d="M421 700v-36q0 -26 -26 -26h-109q-26 0 -26 -26v-524q0 -26 26 -26h109q26 0 26 -26v-36q0 -26 -26 -26h-289q-26 0 -26 26v700q0 26 26 26h289q26 0 26 -26z" />
    <glyph glyph-name="backslash" unicode="\" horiz-adv-x="892" 
d="M69 790h142q20 0 32 -16l596 -812q10 -14 5 -23t-21 -9h-142q-20 0 -32 16l-596 812q-10 14 -5 23t21 9z" />
    <glyph glyph-name="bracketright" unicode="]" horiz-adv-x="463" 
d="M42 664v36q0 26 26 26h289q26 0 26 -26v-700q0 -26 -26 -26h-289q-26 0 -26 26v36q0 26 26 26h109q26 0 26 26v524q0 26 -26 26h-109q-26 0 -26 26z" />
    <glyph glyph-name="asciicircum" unicode="^" horiz-adv-x="692" 
d="M183 324h-98q-16 0 -21 9t2 22l169 326q10 19 31 19h160q21 0 31 -19l169 -326q7 -13 2 -22t-21 -9h-98q-21 0 -30 19l-115 228q-8 14 -18 14t-18 -14l-115 -228q-9 -19 -30 -19z" />
    <glyph glyph-name="underscore" unicode="_" horiz-adv-x="802" 
d="M0 -148v48q0 26 26 26h750q26 0 26 -26v-48q0 -26 -26 -26h-750q-26 0 -26 26z" />
    <glyph glyph-name="grave" unicode="`" horiz-adv-x="547" 
d="M155 960h171q21 0 31 -18l72 -125q8 -13 3 -22t-21 -9h-44q-17 0 -33 10l-189 132q-15 11 -12 21.5t22 10.5z" />
    <glyph glyph-name="a" unicode="a" 
d="M1353 104h17q17 0 17 -26v-52q0 -26 -26 -26h-520q-26 0 -26 26v52q0 26 26 26h79q31 0 39.5 18t-9.5 43l-26 36q-13 16 -32 16h-488q-19 0 -31 -16l-27 -36q-19 -25 -10 -43t40 -18h83q26 0 26 -26v-52q0 -26 -26 -26h-419q-26 0 -26 26v52q0 26 17 26h17
q49 0 76.5 13.5t57.5 52.5l277 365q20 25 11.5 43t-41.5 18h-50q-26 0 -26 26v52q0 26 26 26h430q20 0 32 -16l378 -514q28 -39 56 -52.5t78 -13.5zM501 321h295q16 0 21 9.5t-5 22.5l-144 196q-18 25 -36 0l-146 -196q-10 -13 -5.5 -22.5t20.5 -9.5z" />
    <glyph glyph-name="b" unicode="b" horiz-adv-x="1331" 
d="M1058 358q234 -29 234 -163q0 -90 -101.5 -142.5t-294.5 -52.5h-821q-26 0 -26 26v52q0 26 26 26h102q32 0 46 12t14 48v372q0 36 -14 48t-46 12h-102q-26 0 -26 26v52q0 26 26 26h795q184 0 283 -49t99 -131q0 -57 -49 -100.5t-145 -54.5q-8 -1 -10 -3q-1 -1 3 -2
q2 -1 7 -2zM477 570v-138q0 -26 26 -26h308q96 0 137 22.5t41 72.5t-41 72.5t-137 22.5h-308q-26 0 -26 -26zM503 104h334q98 0 143 24t45 76t-45 76t-143 24h-334q-26 0 -26 -26v-148q0 -26 26 -26z" />
    <glyph glyph-name="c" unicode="c" horiz-adv-x="1205" 
d="M1126 446h-112q-21 0 -30 20q-38 82 -115 120t-206 38q-355 0 -355 -274t355 -274q277 0 334 165q9 22 30 22h104q14 0 20 -8t2 -21q-45 -135 -174 -198.5t-352 -63.5q-277 0 -431 94.5t-154 283.5q0 126 74 212.5t200.5 126t299.5 39.5q222 0 338 -73q23 -14 36 8l11 19
q11 18 32 18h93q26 0 26 -26v-202q0 -26 -26 -26z" />
    <glyph glyph-name="d" unicode="d" horiz-adv-x="1376" 
d="M75 700h629q320 0 475 -82.5t155 -262.5q0 -187 -154.5 -271t-475.5 -84h-629q-26 0 -26 26v52q0 26 26 26h102q32 0 46 12t14 48v372q0 36 -13 48t-47 12h-102q-26 0 -26 26v52q0 26 26 26zM1068 355q0 126 -86 183.5t-288 57.5h-191q-26 0 -26 -26v-440q0 -26 26 -26
h191q203 0 288.5 59t85.5 192z" />
    <glyph glyph-name="e" unicode="e" horiz-adv-x="1304" 
d="M932 596h-429q-26 0 -26 -26v-137q0 -26 26 -26h184q65 0 87.5 19.5t22.5 70.5q0 23 26 23h68q26 0 26 -26v-278q0 -26 -26 -26h-68q-26 0 -26 23q0 51 -22 70.5t-88 19.5h-184q-26 0 -26 -26v-147q0 -26 26 -26h439q86 0 118.5 38t41.5 129q2 25 27 25h79q26 0 26 -26
v-244q0 -26 -26 -26h-1133q-26 0 -26 26v52q0 26 26 26h102q32 0 46 12t14 48v372q0 36 -14 48t-46 12h-102q-26 0 -26 26v52q0 26 26 26h1123q26 0 26 -26v-214q0 -26 -26 -26h-79q-25 0 -27 25q-9 79 -41 108t-119 29z" />
    <glyph glyph-name="f" unicode="f" horiz-adv-x="1252" 
d="M75 700h1123q26 0 26 -26v-214q0 -26 -26 -26h-89q-25 0 -27 25q-9 78 -39 107.5t-111 29.5h-429q-26 0 -26 -26v-143q0 -26 26 -26h184q65 0 87.5 19.5t22.5 70.5q0 23 26 23h68q26 0 26 -26v-278q0 -26 -26 -26h-68q-26 0 -26 25q0 49 -22.5 68.5t-87.5 19.5h-184
q-26 0 -26 -26v-107q0 -36 14 -48t46 -12h102q26 0 26 -26v-52q0 -26 -26 -26h-564q-26 0 -26 26v52q0 26 26 26h102q32 0 46 12t14 48v372q0 36 -14 48t-46 12h-102q-26 0 -26 26v52q0 26 26 26z" />
    <glyph glyph-name="g" unicode="g" horiz-adv-x="1337" 
d="M795 386h490q26 0 26 -26v-58q0 -26 -25 -26h-25q-37 0 -48.5 -11t-11.5 -49v-190q0 -26 -26 -26h-89q-23 0 -29 22l-14 48q-10 31 -34 10q-123 -108 -369 -108q-285 0 -441.5 94t-156.5 284t156.5 284t441.5 94q231 0 346 -73q23 -14 36 8l11 19q11 18 32 18h93
q26 0 26 -26v-201q0 -26 -26 -26h-112q-21 0 -30 20q-76 157 -348 157q-195 0 -277.5 -69.5t-82.5 -204.5q0 -134 83.5 -204t276.5 -70q147 0 235 54t88 112q0 34 -47 34h-149q-26 0 -26 26v58q0 26 26 26z" />
    <glyph glyph-name="h" unicode="h" horiz-adv-x="1502" 
d="M1265 536v-372q0 -36 14 -48t46 -12h102q26 0 26 -26v-52q0 -26 -26 -26h-564q-26 0 -26 26v52q0 26 26 26h102q32 0 46 12t14 48v114q0 26 -26 26h-496q-26 0 -26 -26v-114q0 -36 14 -48t46 -12h102q26 0 26 -26v-52q0 -26 -26 -26h-564q-26 0 -26 26v52q0 26 26 26h102
q32 0 46 12t14 48v372q0 36 -14 48t-46 12h-102q-26 0 -26 26v52q0 26 26 26h564q26 0 26 -26v-52q0 -26 -26 -26h-102q-32 0 -46 -12t-14 -48v-102q0 -26 26 -26h496q26 0 26 26v102q0 36 -14 48t-46 12h-102q-26 0 -26 26v52q0 26 26 26h564q26 0 26 -26v-52
q0 -26 -26 -26h-102q-32 0 -46 -12t-14 -48z" />
    <glyph glyph-name="i" unicode="i" horiz-adv-x="714" 
d="M477 536v-372q0 -36 14 -48t46 -12h102q26 0 26 -26v-52q0 -26 -26 -26h-564q-26 0 -26 26v52q0 26 26 26h102q32 0 46 12t14 48v372q0 36 -14 48t-46 12h-102q-26 0 -26 26v52q0 26 26 26h564q26 0 26 -26v-52q0 -26 -26 -26h-102q-32 0 -46 -12t-14 -48z" />
    <glyph glyph-name="j" unicode="j" horiz-adv-x="1119" 
d="M160 225q-11 8 -14.5 6t2.5 -14q29 -59 102.5 -97t155.5 -38q109 0 186 68.5t77 199.5v186q0 36 -14 48t-46 12h-102q-26 0 -26 26v52q0 26 26 26h560q26 0 26 -26v-52q0 -26 -26 -26h-98q-32 0 -46 -12t-14 -48v-224q0 -83 -37.5 -149.5t-100 -107t-140 -62
t-161.5 -21.5q-113 0 -214.5 36t-167 107t-65.5 160q0 87 57 137t131 50q61 0 103.5 -35.5t42.5 -98.5q0 -41 -20 -71.5t-50 -43t-64.5 -10t-62.5 21.5z" />
    <glyph glyph-name="k" unicode="k" horiz-adv-x="1430" 
d="M1428 78v-52q0 -26 -26 -26h-573q-26 0 -26 26v52q0 26 26 26h58q20 0 28 8t3.5 20t-18.5 24l-202 168q-15 14 -35 5l-166 -73q-20 -9 -20 -31v-61q0 -36 14 -48t46 -12h88q26 0 26 -26v-52q0 -26 -26 -26h-550q-26 0 -26 26v52q0 26 26 26h102q32 0 46 12t14 48v372
q0 36 -14 48t-46 12h-102q-26 0 -26 26v52q0 26 26 26h550q26 0 26 -26v-52q0 -26 -26 -26h-88q-32 0 -46 -12t-14 -48v-134q0 -14 8.5 -19.5t21.5 0.5l383 172q21 9 26 19t-2 16t-20 6h-59q-26 0 -26 26v52q0 26 26 26h531q26 0 26 -26v-52q0 -26 -24 -26h-24
q-83 0 -174 -40l-250 -111q-13 -6 -14.5 -16t9.5 -20l287 -241q42 -35 85.5 -49.5t107.5 -14.5h7q26 0 26 -26z" />
    <glyph glyph-name="l" unicode="l" horiz-adv-x="1187" 
d="M1043 316h79q26 0 26 -26v-264q0 -26 -26 -26h-1047q-26 0 -26 26v52q0 26 26 26h102q32 0 46 12t14 48v372q0 36 -14 48t-46 12h-102q-26 0 -26 26v52q0 26 26 26h564q26 0 26 -26v-52q0 -26 -26 -26h-102q-32 0 -46 -12t-14 -48v-406q0 -26 26 -26h323q102 0 141.5 42
t48.5 145q3 25 27 25z" />
    <glyph glyph-name="m" unicode="m" horiz-adv-x="1742" 
d="M1505 536v-371q0 -36 14 -48t46 -12h102q26 0 26 -26v-52q0 -26 -26 -26h-560q-26 0 -26 26v52q0 26 26 26h98q32 0 46 12t14 48v346q0 19 -10.5 22t-21.5 -13l-325 -503q-11 -17 -31 -17h-102q-20 0 -31 17l-325 503q-11 16 -21.5 13t-10.5 -22v-347q0 -36 14 -48
t46 -12h98q26 0 26 -26v-52q0 -26 -26 -26h-470q-26 0 -26 26v52q0 26 26 26h102q32 0 46 12t14 48v372q0 36 -14 48t-46 12h-102q-26 0 -26 26v52q0 26 26 26h479q20 0 31 -17l274 -425q18 -28 36 0l278 425q11 17 31 17h463q26 0 26 -26v-52q0 -26 -26 -26h-102
q-32 0 -46 -12t-14 -48z" />
    <glyph glyph-name="n" unicode="n" horiz-adv-x="1455" 
d="M933 701h470q26 0 26 -26v-52q0 -26 -26 -26h-98q-32 0 -46 -12t-14 -48v-511q0 -26 -26 -26h-204q-19 0 -32 12l-564 491q-13 11 -22.5 7t-9.5 -21v-325q0 -36 14 -48t46 -12h102q26 0 26 -26v-52q0 -26 -26 -26h-474q-26 0 -26 26v52q0 26 26 26h102q32 0 46 12t14 48
v372q0 36 -14 48t-46 12h-102q-26 0 -26 26v52q0 26 26 26h444q19 0 32 -12l512 -446q13 -11 22.5 -7t9.5 21v281q0 36 -14 48t-46 12h-102q-26 0 -26 26v52q0 26 26 26z" />
    <glyph glyph-name="o" unicode="o" horiz-adv-x="1314" 
d="M657 -28q-299 0 -457 93.5t-158 284.5t158 284.5t457 93.5t457 -93.5t158 -284.5t-158 -284.5t-457 -93.5zM308 350q0 -134 81 -204t268 -70t268 70t81 204q0 136 -78 205t-271 69q-187 0 -268 -70t-81 -204z" />
    <glyph glyph-name="p" unicode="p" horiz-adv-x="1293" 
d="M75 700h783q200 0 303 -58.5t103 -159.5t-103 -159.5t-303 -58.5h-355q-26 0 -26 -26v-74q0 -36 14 -48t46 -12h102q26 0 26 -26v-52q0 -26 -26 -26h-564q-26 0 -26 26v52q0 26 26 26h102q32 0 46 12t14 48v372q0 36 -14 48t-46 12h-102q-26 0 -26 26v52q0 26 26 26z
M1002 482q0 61 -49 87.5t-155 26.5h-295q-26 0 -26 -26v-176q0 -26 26 -26h295q106 0 155 26.5t49 87.5z" />
    <glyph glyph-name="q" unicode="q" horiz-adv-x="1314" 
d="M1048 -86q90 0 142 19q24 7 35 -12l18 -35q13 -23 -9 -35q-87 -45 -241 -45q-113 0 -202 38.5t-125 107.5q-10 20 -31 20q-593 8 -593 378q0 191 158 284.5t457 93.5t457 -93.5t158 -284.5q0 -290 -368 -358q-15 -3 -20.5 -10.5t0.5 -16.5q41 -51 164 -51zM308 350
q0 -134 81 -204t268 -70t268 70t81 204q0 136 -78 205t-271 69q-187 0 -268 -70t-81 -204z" />
    <glyph glyph-name="r" unicode="r" horiz-adv-x="1337" 
d="M1214 104h54q26 0 26 -26v-52q0 -26 -26 -26h-320q-20 0 -32 16l-184 244q-12 16 -31 16h-198q-26 0 -26 -26v-86q0 -36 14 -48t46 -12h102q26 0 26 -26v-52q0 -26 -26 -26h-564q-26 0 -26 26v52q0 26 26 26h102q32 0 46 12t14 48v372q0 36 -14 48t-46 12h-102
q-26 0 -26 26v52q0 26 26 26h799q201 0 303.5 -56t102.5 -156q0 -80 -67 -132.5t-198 -70.5q-16 -2 -20.5 -11.5t5.5 -21.5l64 -84q26 -33 60.5 -48.5t89.5 -15.5zM477 570v-164q0 -26 26 -26h311q103 0 153.5 25t50.5 83t-50.5 83t-153.5 25h-311q-26 0 -26 -26z" />
    <glyph glyph-name="s" unicode="s" horiz-adv-x="1162" 
d="M1049 482h-105q-20 0 -30 19q-36 61 -134 89.5t-223 28.5q-280 0 -280 -91q0 -57 136 -68l370 -29q49 -4 81.5 -8t75.5 -12.5t70.5 -22t54 -34t39 -51t12.5 -70.5q0 -88 -63.5 -147.5t-168 -86.5t-243.5 -27q-254 0 -390 72q-22 13 -35 -10l-8 -15q-9 -19 -30 -19h-85
q-26 0 -26 26v181q0 26 26 26h105q20 0 30 -19q78 -135 390 -135q119 0 195 22.5t76 68.5q0 58 -124 69l-369 30q-70 6 -124 17t-106.5 33t-81.5 62.5t-29 95.5q0 70 44.5 121.5t118 78t150.5 38t159 11.5q114 0 213 -19t152 -50q24 -13 34 10l7 14q10 19 31 19h85
q26 0 26 -26v-166q0 -26 -26 -26z" />
    <glyph glyph-name="t" unicode="t" horiz-adv-x="1254" 
d="M60 700h1134q26 0 26 -26v-234q0 -26 -26 -26h-79q-25 0 -27 26q-8 90 -33 123t-97 33h-185q-26 0 -26 -26v-406q0 -36 14 -48t46 -12h102q26 0 26 -26v-52q0 -26 -26 -26h-564q-26 0 -26 26v52q0 26 26 26h102q32 0 46 12t14 48v406q0 26 -26 26h-185q-72 0 -97 -33
t-33 -123q-2 -26 -27 -26h-79q-26 0 -26 26v234q0 26 26 26z" />
    <glyph glyph-name="u" unicode="u" horiz-adv-x="1404" 
d="M1352 596h-98q-33 0 -45.5 -12t-12.5 -50v-192q0 -189 -113 -279.5t-376 -90.5q-264 0 -381.5 91.5t-117.5 278.5v192q0 38 -12.5 50t-45.5 12h-98q-26 0 -26 26v52q0 26 26 26h552q26 0 26 -26v-52q0 -26 -26 -26h-98q-33 0 -45.5 -12t-12.5 -50v-174q0 -143 67 -213.5
t232 -70.5q164 0 231.5 73t67.5 211v174q0 38 -12.5 50t-45.5 12h-98q-26 0 -26 26v52q0 26 26 26h462q26 0 26 -26v-52q0 -26 -26 -26z" />
    <glyph glyph-name="v" unicode="v" horiz-adv-x="1296" 
d="M42 596h-17q-17 0 -17 26v52q0 26 26 26h520q26 0 26 -26v-52q0 -26 -26 -26h-79q-32 0 -40.5 -16.5t10.5 -44.5l241 -354q18 -26 36 0l237 354q17 23 8.5 42t-39.5 19h-81q-26 0 -26 26v52q0 26 26 26h415q26 0 26 -26v-52q0 -26 -17 -26h-17q-53 0 -80.5 -13.5
t-53.5 -52.5l-348 -513q-11 -17 -31 -17h-178q-19 0 -31 16l-356 514q-27 39 -54.5 52.5t-79.5 13.5z" />
    <glyph glyph-name="w" unicode="w" horiz-adv-x="1834" 
d="M1395 700h403q26 0 26 -26v-52q0 -26 -17 -26h-17q-54 0 -83.5 -13.5t-50.5 -52.5l-277 -512q-11 -18 -31 -18h-192q-20 0 -31 18l-189 340q-8 14 -18 14t-18 -14l-183 -340q-11 -18 -31 -18h-192q-20 0 -31 18l-285 512q-21 39 -50.5 52.5t-83.5 13.5h-8q-26 0 -26 26
v52q0 26 26 26h504q26 0 26 -26v-52q0 -26 -26 -26h-69q-29 0 -37 -17.5t7 -43.5l183 -343q8 -14 18 -14t18 14l169 322q10 21 -2 36q-37 46 -101 46q-26 0 -26 26v52q0 26 26 26h476q26 0 26 -26v-52q0 -26 -26 -26h-69q-29 0 -37 -17.5t7 -43.5l183 -343q8 -14 18 -14
t18 14l179 343q13 23 5.5 42t-36.5 19h-75q-26 0 -26 26v52q0 26 26 26z" />
    <glyph glyph-name="x" unicode="x" horiz-adv-x="1301" 
d="M1265 104h13q13 0 13 -26v-52q0 -26 -26 -26h-568q-26 0 -26 26v52q0 26 26 26h59q30 0 37.5 14t-15.5 30l-168 118q-18 12 -36 0l-165 -118q-22 -16 -15 -30t37 -14h53q26 0 26 -26v-52q0 -26 -26 -26h-448q-26 0 -26 26v52q0 26 12 26h11q79 0 139 39l294 187
q26 18 0 36l-270 190q-57 40 -137 40q-26 0 -26 26v52q0 26 26 26h571q26 0 26 -26v-52q0 -26 -26 -26h-62q-30 0 -37.5 -14t15.5 -30l152 -107q18 -12 36 0l153 107q22 16 15 30t-37 14h-61q-26 0 -26 26v52q0 26 26 26h429q26 0 26 -26v-52q0 -26 -11 -26h-12
q-70 0 -129 -39l-265 -176q-13 -7 -13 -17.5t12 -18.5l287 -201q57 -40 137 -40z" />
    <glyph glyph-name="y" unicode="y" horiz-adv-x="1260" 
d="M1079 545l-299 -278q-14 -13 -14 -32v-71q0 -36 14 -48t46 -12h102q26 0 26 -26v-52q0 -26 -26 -26h-564q-26 0 -26 26v52q0 26 26 26h102q32 0 46 12t14 48v59q0 19 -14 32l-321 290q-33 30 -68.5 40.5t-88.5 10.5q-24 0 -24 26v52q0 26 26 26h530q26 0 26 -26v-52
q0 -26 -26 -26h-66q-27 0 -33.5 -16t13.5 -33l197 -175q18 -15 36 1l193 174q20 17 13.5 33t-33.5 16h-66q-26 0 -26 26v52q0 26 26 26h404q26 0 26 -26v-52q0 -15 -5 -20.5t-19 -5.5q-52 0 -83 -10t-64 -41z" />
    <glyph glyph-name="z" unicode="z" horiz-adv-x="1190" 
d="M1103 595l-660 -459q-16 -11 -12.5 -21.5t22.5 -10.5h396q82 0 107 33.5t33 136.5q2 26 27 26h89q26 0 26 -26v-248q0 -26 -26 -26h-1031q-26 0 -26 26v48q0 19 16 31l660 459q16 11 12.5 21.5t-22.5 10.5h-355q-82 0 -107 -33.5t-33 -136.5q-2 -26 -27 -26h-89
q-26 0 -26 26v248q0 26 26 26h990q26 0 26 -26v-48q0 -19 -16 -31z" />
    <glyph glyph-name="braceleft" unicode="{" horiz-adv-x="510" 
d="M341 508q0 -107 -130 -146q-27 -7 0 -14q130 -38 130 -151q0 -66 20 -97t79 -37q26 -2 26 -26v-37q0 -26 -27 -26q-158 2 -226 45t-68 155q0 69 -18 96.5t-68 31.5q-26 2 -26 26v54q0 24 26 26q50 4 68 31t18 92q0 109 68 151t226 44q27 0 27 -26v-36q0 -23 -34 -28
q-59 -6 -75 -35t-16 -93z" />
    <glyph glyph-name="bar" unicode="|" horiz-adv-x="300" 
d="M194 -120h-88q-26 0 -26 26v888q0 26 26 26h88q26 0 26 -26v-888q0 -26 -26 -26z" />
    <glyph glyph-name="braceright" unicode="}" horiz-adv-x="510" 
d="M169 508q0 64 -16 93t-75 35q-34 5 -34 28v36q0 26 27 26q158 -2 226 -44t68 -151q0 -65 18 -92t68 -31q26 -2 26 -26v-54q0 -24 -26 -26q-50 -4 -68 -31.5t-18 -96.5q0 -112 -68 -155t-226 -45q-27 0 -27 26v37q0 24 26 26q59 6 79 37t20 97q0 113 130 151q27 7 0 14
q-130 39 -130 146z" />
    <glyph glyph-name="asciitilde" unicode="~" horiz-adv-x="812" 
d="M106 281h45q21 0 27 25q6 27 48 27q39 0 156 -33t202 -33q68 0 108 37.5t40 114.5v11q0 26 -26 26h-45q-21 0 -27 -25q-6 -27 -48 -27q-35 0 -147 33t-195 33q-70 0 -117 -38t-47 -114v-11q0 -26 26 -26z" />
    <glyph glyph-name="exclamdown" unicode="&#xa1;" horiz-adv-x="420" 
d="M210 537q58 0 94.5 -34.5t36.5 -86.5q0 -51 -36.5 -85.5t-94.5 -34.5q-57 0 -93.5 34.5t-36.5 85.5q0 52 36.5 86.5t93.5 34.5zM210 -204q-78 0 -122 34.5t-44 91.5q0 48 36 135l63 155q7 20 30 20h74q23 0 30 -20l63 -155q36 -90 36 -135q0 -57 -44.5 -91.5
t-121.5 -34.5z" />
    <glyph glyph-name="cent" unicode="&#xa2;" horiz-adv-x="903" 
d="M500 191q159 0 213 81q11 18 31 18h65q15 0 20.5 -8.5t-1.5 -21.5q-88 -157 -358 -157q-30 0 -36 -22l-20 -67q-8 -24 -32 -18l-30 8q-25 6 -19 31l14 47q8 26 -20 31q-130 20 -203.5 80.5t-73.5 161.5q0 127 114 189.5t306 62.5q27 0 33 22l17 57q8 24 32 18l30 -8
q25 -6 19 -31l-11 -38q-8 -26 21 -31q112 -19 177 -65t65 -105q0 -46 -37 -70t-87 -24q-45 0 -77 20t-32 54q0 33 29.5 52.5t76.5 11.5q8 -2 9.5 0t-5.5 6q-47 27 -147 40q-24 1 -31 -21l-79 -274q-8 -30 27 -30zM250 355q0 -101 106 -141q26 -11 33 17l74 257
q4 15 -7.5 22.5t-33.5 3.5q-85 -13 -128.5 -55t-43.5 -104z" />
    <glyph glyph-name="sterling" unicode="&#xa3;" horiz-adv-x="1122" 
d="M959 266h79q26 0 26 -26v-214q0 -26 -26 -26h-954q-26 0 -26 26v39q0 21 23 29q42 14 71.5 44.5t40 59.5t10.5 56q0 13 -26 13h-89q-26 0 -26 26v52q0 26 26 26h31q17 0 21.5 9.5t-5.5 22.5q-39 52 -39 97q0 56 39 100t104 71t144.5 41t166.5 14q123 0 233 -26
t184.5 -81.5t74.5 -129.5q0 -53 -41 -89t-107 -36q-56 0 -97 27.5t-41 73.5q0 44 30.5 66.5t75.5 20.5q11 0 15.5 1t2 4.5t-12.5 8.5q-103 50 -285 50q-121 0 -173.5 -32.5t-52.5 -83.5q0 -13 1.5 -24t6.5 -25t6.5 -18.5t10.5 -22.5l9 -19q9 -20 30 -20h230q26 0 26 -26v-52
q0 -26 -26 -26h-214q-22 0 -28 -24q-20 -83 -85 -122q-28 -17 3 -17h426q100 0 135.5 28.5t44.5 108.5q2 25 27 25z" />
    <glyph glyph-name="currency" unicode="&#xa4;" horiz-adv-x="842" 
d="M769 351q0 -77 -47 -129q-20 -20 1 -36l37 -27q24 -17 1 -37l-74 -61q-18 -15 -37 -1l-97 70q-13 11 -33 9q-46 -6 -100 -6q-53 0 -98 6q-20 2 -34 -9l-96 -70q-19 -14 -37 1l-74 61q-23 20 1 37l36 27q22 16 2 36q-47 52 -47 129t47 129q19 21 -2 36l-36 27
q-24 17 -1 37l74 61q18 15 37 1l96 -70q15 -11 34 -8q50 5 98 5q54 0 100 -6q20 -2 33 9l97 70q19 14 37 -1l74 -61q23 -20 -1 -37l-36 -27q-21 -15 -4 -34q49 -51 49 -131zM265 351q0 -54 41.5 -88t113.5 -34q74 0 115.5 34t41.5 88t-41.5 88t-115.5 34q-72 0 -113.5 -34
t-41.5 -88z" />
    <glyph glyph-name="yen" unicode="&#xa5;" horiz-adv-x="1320" 
d="M850 700h404q26 0 26 -26v-52q0 -15 -5 -20.5t-19 -5.5q-52 0 -83 -10t-64 -41l-167 -155q-34 -32 13 -32h147q26 0 26 -26v-10q0 -26 -26 -26h-242q-19 0 -45 -25q-14 -16 -9 -25.5t21 -9.5h275q26 0 26 -26v-10q0 -26 -26 -26h-280q-26 0 -26 -22q0 -28 14 -38t46 -10
h102q26 0 26 -26v-52q0 -26 -26 -26h-564q-26 0 -26 26v52q0 26 26 26h102q32 0 46 10t14 38q0 22 -26 22h-280q-26 0 -26 26v10q0 26 26 26h267q17 0 21 8t-11 24q-30 28 -49 28h-228q-26 0 -26 26v10q0 26 26 26h130q48 0 13 32l-172 155q-33 30 -68.5 40.5t-88.5 10.5
q-24 0 -24 26v52q0 26 26 26h530q26 0 26 -26v-52q0 -26 -26 -26h-66q-27 0 -33.5 -16t13.5 -33l197 -175q18 -15 36 1l193 174q20 17 13.5 33t-33.5 16h-66q-26 0 -26 26v52q0 26 26 26z" />
    <glyph glyph-name="brokenbar" unicode="&#xa6;" horiz-adv-x="300" 
d="M194 420h-88q-26 0 -26 26v348q0 26 26 26h88q26 0 26 -26v-348q0 -26 -26 -26zM106 280h88q26 0 26 -26v-348q0 -26 -26 -26h-88q-26 0 -26 26v348q0 26 26 26z" />
    <glyph glyph-name="section" unicode="&#xa7;" horiz-adv-x="1162" 
d="M1049 482h-105q-20 0 -30 19q-36 61 -134 89.5t-223 28.5q-280 0 -280 -91q0 -57 136 -68l370 -29q49 -4 81.5 -8t75.5 -12.5t70.5 -22t54 -34t39 -51t12.5 -70.5q0 -88 -63.5 -147.5t-168 -86.5t-243.5 -27q-254 0 -390 72q-22 13 -35 -10l-8 -15q-9 -19 -30 -19h-85
q-26 0 -26 26v181q0 26 26 26h105q20 0 30 -19q78 -135 390 -135q119 0 195 22.5t76 68.5q0 58 -124 69l-369 30q-70 6 -124 17t-106.5 33t-81.5 62.5t-29 95.5q0 70 44.5 121.5t118 78t150.5 38t159 11.5q114 0 213 -19t152 -50q24 -13 34 10l7 14q10 19 31 19h85
q26 0 26 -26v-166q0 -26 -26 -26zM162 487q-12 -58 38 -91.5t129 -41.5l520 -46q59 -5 100 -29t51 -63q2 -7 5 -9.5t5.5 -0.5t3.5 8q9 62 -34 95t-125 40l-515 45q-64 6 -109 31.5t-55 61.5q-2 7 -4.5 9.5t-5.5 0t-4 -9.5z" />
    <glyph glyph-name="dieresis" unicode="&#xa8;" horiz-adv-x="673" 
d="M207 780q-107 0 -107 87q0 86 107 86q106 0 106 -86q0 -87 -106 -87zM467 780q-107 0 -107 87q0 86 107 86q106 0 106 -86q0 -87 -106 -87z" />
    <glyph glyph-name="copyright" unicode="&#xa9;" horiz-adv-x="1312" 
d="M656 728q131 0 238.5 -21.5t191 -65.5t130 -118.5t46.5 -172.5t-46.5 -172.5t-130 -118.5t-191 -65.5t-238.5 -21.5t-238.5 21.5t-191 65.5t-130 118.5t-46.5 172.5t46.5 172.5t130 118.5t191 65.5t238.5 21.5zM656 50q86 0 160 10t138 32.5t109 56.5t71 85.5t26 115.5
t-26 115.5t-71 85.5t-109 56.5t-138 32.5t-160 10t-160 -10t-138 -32.5t-109 -56.5t-71 -85.5t-26 -115.5t26 -115.5t71 -85.5t109 -56.5t138 -32.5t160 -10zM957 404h-61q-16 0 -24 14q-26 43 -71.5 62t-119.5 19q-111 0 -160.5 -37.5t-49.5 -113.5t49.5 -114t160.5 -38
q151 0 202 82q8 14 24 14h52q11 0 15.5 -6.5t0.5 -16.5q-29 -68 -108 -104.5t-194 -36.5q-169 0 -267 55t-98 165q0 109 96.5 164t258.5 55q124 0 191 -40q18 -10 28 6l4 6q7 13 24 13h47q20 0 20 -20v-108q0 -20 -20 -20z" />
    <glyph glyph-name="ordfeminine" unicode="&#xaa;" horiz-adv-x="702" 
d="M618 453h10q9 0 9 -12v-34q0 -12 -12 -12h-227q-12 0 -12 12v34q0 12 12 12h30q12 0 16.5 6.5t-1.5 14.5l-3 5q-6 7 -15 7h-193q-10 0 -14 -6l-4 -6q-6 -8 -1.5 -14.5t16.5 -6.5h30q12 0 12 -12v-34q0 -12 -12 -12h-180q-12 0 -12 12v34q0 12 10 12h9q32 0 49 21l107 144
q7 10 3 17t-16 7h-12q-12 0 -12 12v34q0 12 12 12h179q10 0 14 -7l159 -219q15 -21 49 -21zM282 544h91q7 0 9.5 4.5t-2.5 10.5l-45 61q-9 10 -17 -1l-44 -60q-8 -15 8 -15zM67 266v46q0 12 12 12h546q12 0 12 -12v-46q0 -12 -12 -12h-546q-12 0 -12 12z" />
    <glyph glyph-name="guillemotleft" unicode="&#xab;" horiz-adv-x="856" 
d="M71 390l309 185q21 12 36 -6l11 -13q16 -19 -2 -37l-154 -152q-18 -18 0 -36l154 -151q18 -18 2 -37l-11 -13q-15 -18 -36 -6l-309 184q-18 11 -18 32v18q0 21 18 32zM402 390l309 185q21 12 36 -6l11 -13q16 -19 -2 -37l-154 -152q-18 -18 0 -36l154 -151q18 -18 2 -37
l-11 -13q-15 -18 -36 -6l-309 184q-18 11 -18 32v18q0 21 18 32z" />
    <glyph glyph-name="registered" unicode="&#xae;" horiz-adv-x="743" 
d="M371 710q144 0 233 -46.5t89 -146.5q0 -67 -45 -111.5t-114.5 -62.5t-162.5 -18q-144 0 -232.5 46.5t-88.5 145.5q0 100 88.5 146.5t232.5 46.5zM371 369q262 0 262 148q0 150 -262 150t-262 -150q0 -148 262 -148zM479 484l12 -15q13 -17 35 -17h22q10 0 10 -10v-15
q0 -10 -10 -10h-91q-7 0 -13 6l-49 64q-6 6 -13 6h-59q-10 0 -10 -10v-11q0 -13 2 -16.5t11 -3.5h29q10 0 10 -10v-15q0 -10 -10 -10h-160q-10 0 -10 10v15q0 10 10 10h28q10 0 12 3.5t2 16.5v92q0 14 -2 17t-12 3h-28q-10 0 -10 10v15q0 10 10 10h226q133 0 133 -62
q0 -49 -69 -60q-14 -2 -6 -13zM313 574v-38q0 -10 10 -10h87q39 0 53.5 6.5t14.5 24.5q0 16 -14.5 21.5t-53.5 5.5h-87q-10 0 -10 -10z" />
    <glyph glyph-name="macron" unicode="&#xaf;" horiz-adv-x="676" 
d="M100 818v58q0 26 26 26h424q26 0 26 -26v-58q0 -26 -26 -26h-424q-26 0 -26 26z" />
    <glyph glyph-name="degree" unicode="&#xb0;" horiz-adv-x="592" 
d="M296 384q-116 0 -186 41.5t-70 121.5t70 121.5t186 41.5t186 -41.5t70 -121.5t-70 -121.5t-186 -41.5zM180 547q0 -42 31 -65.5t85 -23.5t85 23.5t31 65.5t-31 65.5t-85 23.5t-85 -23.5t-31 -65.5z" />
    <glyph glyph-name="plusminus" unicode="&#xb1;" horiz-adv-x="713" 
d="M458 501h159q26 0 26 -26v-80q0 -26 -26 -26h-159q-26 0 -26 -26v-110q0 -26 -26 -26h-99q-26 0 -26 26v110q0 26 -26 26h-159q-26 0 -26 26v80q0 26 26 26h159q26 0 26 26v110q0 26 26 26h99q26 0 26 -26v-110q0 -26 26 -26zM70 64v80q0 26 26 26h521q26 0 26 -26v-80
q0 -26 -26 -26h-521q-26 0 -26 26z" />
    <glyph glyph-name="twosuperior" unicode="&#xb2;" horiz-adv-x="632" 
d="M501 456h47q12 0 12 -12v-112q0 -12 -12 -12h-468q-12 0 -12 12v38q0 44 36 75.5t87.5 48t103.5 29.5t88 30t36 40q0 21 -28 35t-88 14q-82 0 -137 -28q-15 -8 2 -6q24 2 40.5 -11.5t16.5 -35.5q0 -24 -20.5 -37.5t-50.5 -13.5q-39 0 -59.5 21.5t-20.5 54.5q0 55 59 90.5
t179 35.5q122 0 182.5 -37t60.5 -92q0 -45 -45.5 -76.5t-101 -44.5t-110.5 -28t-67 -31q-4 -5 -0.5 -9t9.5 -4h154q47 0 66 12t28 43q1 11 13 11z" />
    <glyph glyph-name="threesuperior" unicode="&#xb3;" horiz-adv-x="624" 
d="M429 518q69 -8 108 -27.5t39 -63.5q0 -51 -64 -86t-210 -34q-120 1 -184.5 36.5t-64.5 86.5q0 31 24 49t65 18q75 0 75 -49q0 -21 -15.5 -34t-46.5 -12q-9 0 -9 -3q0 -1 5 -4q47 -24 151 -25q131 -2 131 57q0 56 -122 56h-46q-12 0 -12 12v35q0 12 12 12h46q101 0 101 54
q0 28 -27.5 40.5t-90.5 12.5q-108 0 -151 -29q-3 -2 -1 -3h3q37 7 58.5 -6.5t21.5 -38.5q0 -50 -75 -50q-39 0 -64.5 18.5t-25.5 52.5q0 53 63 86t177 33q127 0 191 -32t64 -81q0 -40 -35.5 -60.5t-90.5 -20.5z" />
    <glyph glyph-name="acute" unicode="&#xb4;" horiz-adv-x="547" 
d="M221 960h171q19 0 22 -10.5t-12 -21.5l-189 -132q-16 -10 -33 -10h-44q-16 0 -21 9t3 22l72 125q10 18 31 18z" />
    <glyph glyph-name="paragraph" unicode="&#xb6;" horiz-adv-x="1188" 
d="M389 700h719q26 0 26 -26v-52q0 -26 -26 -26h-114q-32 0 -40 -12.5t-8 -59.5v-498q0 -26 -26 -26h-128q-26 0 -26 26v544q0 26 -26 26h-38q-26 0 -26 -26v-544q0 -26 -26 -26h-128q-26 0 -26 26v228q0 26 -26 26h-81q-170 0 -257 55t-87 155t87 155t257 55z" />
    <glyph glyph-name="periodcentered" unicode="&#xb7;" horiz-adv-x="373" 
d="M187 239q-58 0 -94.5 34.5t-36.5 86.5q0 51 36.5 85.5t94.5 34.5q57 0 93.5 -34.5t36.5 -85.5q0 -52 -36.5 -86.5t-93.5 -34.5z" />
    <glyph glyph-name="cedilla" unicode="&#xb8;" horiz-adv-x="638" 
d="M115 -227l5 7q13 18 34 12q70 -18 141 -18q48 0 68.5 10t20.5 36q0 46 -60 46q-30 0 -75 -15q-16 -7 -34 -1l-20 7q-25 10 -13 35l55 108h85l-24 -46q-7 -15 -2.5 -19.5t21.5 0.5q29 9 61 9q68 0 114 -34.5t46 -89.5q0 -60 -57.5 -92t-142.5 -32q-114 0 -213 42
q-25 11 -10 35z" />
    <glyph glyph-name="onesuperior" unicode="&#xb9;" horiz-adv-x="486" 
d="M330 692v-277q0 -19 5.5 -25t18.5 -6h80q12 0 12 -12v-40q0 -12 -12 -12h-348q-12 0 -12 12v40q0 12 12 12h86q12 0 17 6t5 25v147q0 20 -4 25.5t-16 5.5h-79q-12 0 -12 12v40q0 12 12 12h42q45 0 67 8t42 32q6 7 15 7h57q12 0 12 -12z" />
    <glyph glyph-name="ordmasculine" unicode="&#xba;" horiz-adv-x="653" 
d="M326 384q-115 0 -182.5 41.5t-67.5 121.5t67.5 121.5t182.5 41.5q116 0 183.5 -41.5t67.5 -121.5t-67.5 -121.5t-183.5 -41.5zM201 547q0 -44 32.5 -71.5t92.5 -27.5t93 27.5t33 71.5t-33 71.5t-93 27.5t-92.5 -27.5t-32.5 -71.5zM86 266v46q0 12 12 12h457q12 0 12 -12
v-46q0 -12 -12 -12h-457q-12 0 -12 12z" />
    <glyph glyph-name="guillemotright" unicode="&#xbb;" horiz-adv-x="856" 
d="M145 575l309 -185q18 -11 18 -32v-18q0 -21 -18 -32l-309 -184q-21 -12 -36 6l-11 13q-16 19 2 37l154 151q18 18 0 36l-154 152q-18 18 -2 37l11 13q15 18 36 6zM476 575l309 -185q18 -11 18 -32v-18q0 -21 -18 -32l-309 -184q-21 -12 -36 6l-11 13q-16 19 2 37l154 151
q18 18 0 36l-154 152q-18 18 -2 37l11 13q15 18 36 6z" />
    <glyph glyph-name="onequarter" unicode="&#xbc;" horiz-adv-x="1262" 
d="M339 692v-277q0 -19 5.5 -25t18.5 -6h80q12 0 12 -12v-40q0 -12 -12 -12h-348q-12 0 -12 12v40q0 12 12 12h86q12 0 17 6t5 25v147q0 20 -4 25.5t-16 5.5h-79q-12 0 -12 12v40q0 12 12 12h42q45 0 67 8t42 32q6 7 15 7h57q12 0 12 -12zM251 32l584 654q13 14 32 14h74
q17 0 21.5 -9.5t-7.5 -22.5l-583 -654q-13 -14 -32 -14h-74q-17 0 -21.5 9.5t6.5 22.5zM1190 112h-89q-12 0 -12 -8v-9q0 -19 5 -25t17 -6h79q12 0 12 -12v-40q0 -12 -12 -12h-340q-12 0 -12 12v40q0 12 12 12h81q12 0 17 6t5 25v5q0 12 -12 12h-314q-12 0 -12 12v44
q0 9 8 15l357 193q7 4 15 4h82q12 0 12 -12v-180q0 -12 12 -12h89q12 0 12 -12v-40q0 -12 -12 -12zM766 176h175q12 0 12 12v91q0 7 -4 9.5t-10 -1.5l-177 -97q-8 -4 -6.5 -9t10.5 -5z" />
    <glyph glyph-name="onehalf" unicode="&#xbd;" horiz-adv-x="1253" 
d="M333 692v-277q0 -19 5.5 -25t18.5 -6h80q12 0 12 -12v-40q0 -12 -12 -12h-348q-12 0 -12 12v40q0 12 12 12h86q12 0 17 6t5 25v147q0 20 -4 25.5t-16 5.5h-79q-12 0 -12 12v40q0 12 12 12h42q45 0 67 8t42 32q6 7 15 7h57q12 0 12 -12zM249 32l584 654q13 14 32 14h74
q17 0 21.5 -9.5t-7.5 -22.5l-583 -654q-13 -14 -32 -14h-74q-17 0 -21.5 9.5t6.5 22.5zM1162 135h47q12 0 12 -12v-112q0 -12 -12 -12h-468q-12 0 -12 12v38q0 44 36 75.5t87.5 48t103.5 29.5t88 30t36 40q0 21 -28 35t-88 14q-82 0 -137 -28q-15 -8 2 -6q24 2 40.5 -11.5
t16.5 -35.5q0 -24 -20.5 -37.5t-50.5 -13.5q-39 0 -59.5 21.5t-20.5 54.5q0 55 59 90.5t179 35.5q122 0 182.5 -37t60.5 -92q0 -45 -45.5 -76.5t-101 -44.5t-110.5 -28t-67 -31q-4 -5 -0.5 -9t9.5 -4h154q47 0 66 12t28 43q1 11 13 11z" />
    <glyph glyph-name="threequarters" unicode="&#xbe;" horiz-adv-x="1327" 
d="M426 518q69 -8 108 -27.5t39 -63.5q0 -51 -64 -86t-210 -34q-120 1 -184.5 36.5t-64.5 86.5q0 31 24 49t65 18q75 0 75 -49q0 -21 -15.5 -34t-46.5 -12q-9 0 -9 -3q0 -1 5 -4q47 -24 151 -25q131 -2 131 57q0 56 -122 56h-46q-12 0 -12 12v35q0 12 12 12h46q101 0 101 54
q0 28 -27.5 40.5t-90.5 12.5q-108 0 -151 -29q-3 -2 -1 -3h3q37 7 58.5 -6.5t21.5 -38.5q0 -50 -75 -50q-39 0 -64.5 18.5t-25.5 52.5q0 53 63 86t177 33q127 0 191 -32t64 -81q0 -40 -35.5 -60.5t-90.5 -20.5zM328 32l584 654q13 14 32 14h74q17 0 21.5 -9.5t-7.5 -22.5
l-583 -654q-13 -14 -32 -14h-74q-17 0 -21.5 9.5t6.5 22.5zM1255 113h-89q-12 0 -12 -8v-9q0 -19 5 -25t17 -6h79q12 0 12 -12v-40q0 -12 -12 -12h-340q-12 0 -12 12v40q0 12 12 12h81q12 0 17 6t5 25v5q0 12 -12 12h-314q-12 0 -12 12v44q0 9 8 15l357 193q7 4 15 4h82
q12 0 12 -12v-180q0 -12 12 -12h89q12 0 12 -12v-40q0 -12 -12 -12zM831 177h175q12 0 12 12v91q0 7 -4 9.5t-10 -1.5l-177 -97q-8 -4 -6.5 -9t10.5 -5z" />
    <glyph glyph-name="questiondown" unicode="&#xbf;" horiz-adv-x="915" 
d="M460 716q58 0 94.5 -34.5t36.5 -86.5q0 -51 -36.5 -85.5t-94.5 -34.5q-57 0 -93.5 34.5t-36.5 85.5q0 52 36.5 86.5t93.5 34.5zM420 428h70q13 0 20 -7.5t5 -20.5q-6 -41 -31 -69.5t-56 -44t-61.5 -29t-51 -34.5t-20.5 -51q0 -94 191 -94q146 0 237 61q6 4 4.5 8.5
t-9.5 3.5q-53 -3 -90 20t-37 70t36.5 72t88.5 25q62 0 106 -35t44 -100q0 -100 -106 -164.5t-289 -64.5q-187 0 -306.5 58t-119.5 148q0 44 31 74.5t77.5 47t94.5 30t89 32t54 43.5q11 21 29 21z" />
    <glyph glyph-name="Agrave" unicode="&#xc0;" 
d="M482 960h171q21 0 31 -18l72 -125q8 -13 3 -22t-21 -9h-44q-17 0 -33 10l-189 132q-15 11 -12 21.5t22 10.5zM1353 104h17q17 0 17 -26v-52q0 -26 -26 -26h-520q-26 0 -26 26v52q0 26 26 26h79q31 0 39.5 18t-9.5 43l-26 36q-13 16 -32 16h-488q-19 0 -31 -16l-27 -36
q-19 -25 -10 -43t40 -18h83q26 0 26 -26v-52q0 -26 -26 -26h-419q-26 0 -26 26v52q0 26 17 26h17q49 0 76.5 13.5t57.5 52.5l277 365q20 25 11.5 43t-41.5 18h-50q-26 0 -26 26v52q0 26 26 26h430q20 0 32 -16l378 -514q28 -39 56 -52.5t78 -13.5zM501 321h295q16 0 21 9.5
t-5 22.5l-144 196q-18 25 -36 0l-146 -196q-10 -13 -5.5 -22.5t20.5 -9.5z" />
    <glyph glyph-name="Aacute" unicode="&#xc1;" 
d="M680 960h171q19 0 22 -10.5t-12 -21.5l-189 -132q-16 -10 -33 -10h-44q-16 0 -21 9t3 22l72 125q10 18 31 18zM1353 104h17q17 0 17 -26v-52q0 -26 -26 -26h-520q-26 0 -26 26v52q0 26 26 26h79q31 0 39.5 18t-9.5 43l-26 36q-13 16 -32 16h-488q-19 0 -31 -16l-27 -36
q-19 -25 -10 -43t40 -18h83q26 0 26 -26v-52q0 -26 -26 -26h-419q-26 0 -26 26v52q0 26 17 26h17q49 0 76.5 13.5t57.5 52.5l277 365q20 25 11.5 43t-41.5 18h-50q-26 0 -26 26v52q0 26 26 26h430q20 0 32 -16l378 -514q28 -39 56 -52.5t78 -13.5zM501 321h295q16 0 21 9.5
t-5 22.5l-144 196q-18 25 -36 0l-146 -196q-10 -13 -5.5 -22.5t20.5 -9.5z" />
    <glyph glyph-name="Acircumflex" unicode="&#xc2;" 
d="M566 961l-139 -139q-12 -12 -8.5 -22t19.5 -10h26q17 0 32 7l151 74q18 8 36 0l151 -74q15 -7 32 -7h24q17 0 21 10t-8 22l-139 139q-13 13 -32 13h-134q-19 0 -32 -13zM1353 104h17q17 0 17 -26v-52q0 -26 -26 -26h-520q-26 0 -26 26v52q0 26 26 26h79q31 0 39.5 18
t-9.5 43l-26 36q-13 16 -32 16h-488q-19 0 -31 -16l-27 -36q-19 -25 -10 -43t40 -18h83q26 0 26 -26v-52q0 -26 -26 -26h-419q-26 0 -26 26v52q0 26 17 26h17q49 0 76.5 13.5t57.5 52.5l277 365q20 25 11.5 43t-41.5 18h-50q-26 0 -26 26v52q0 26 26 26h430q20 0 32 -16
l378 -514q28 -39 56 -52.5t78 -13.5zM501 321h295q16 0 21 9.5t-5 22.5l-144 196q-18 25 -36 0l-146 -196q-10 -13 -5.5 -22.5t20.5 -9.5z" />
    <glyph glyph-name="Atilde" unicode="&#xc3;" 
d="M405 779h46q19 0 27 24q9 34 57 34q38 0 76.5 -17t84.5 -34t101 -17q154 0 154 128v11q0 26 -26 26h-46q-19 0 -27 -24q-11 -34 -57 -34q-35 0 -73.5 17t-86 34t-102.5 17q-154 0 -154 -128v-11q0 -26 26 -26zM1353 104h17q17 0 17 -26v-52q0 -26 -26 -26h-520
q-26 0 -26 26v52q0 26 26 26h79q31 0 39.5 18t-9.5 43l-26 36q-13 16 -32 16h-488q-19 0 -31 -16l-27 -36q-19 -25 -10 -43t40 -18h83q26 0 26 -26v-52q0 -26 -26 -26h-419q-26 0 -26 26v52q0 26 17 26h17q49 0 76.5 13.5t57.5 52.5l277 365q20 25 11.5 43t-41.5 18h-50
q-26 0 -26 26v52q0 26 26 26h430q20 0 32 -16l378 -514q28 -39 56 -52.5t78 -13.5zM501 321h295q16 0 21 9.5t-5 22.5l-144 196q-18 25 -36 0l-146 -196q-10 -13 -5.5 -22.5t20.5 -9.5z" />
    <glyph glyph-name="Adieresis" unicode="&#xc4;" 
d="M536 780q-107 0 -107 87q0 86 107 86q106 0 106 -86q0 -87 -106 -87zM796 780q-107 0 -107 87q0 86 107 86q106 0 106 -86q0 -87 -106 -87zM1353 104h17q17 0 17 -26v-52q0 -26 -26 -26h-520q-26 0 -26 26v52q0 26 26 26h79q31 0 39.5 18t-9.5 43l-26 36q-13 16 -32 16
h-488q-19 0 -31 -16l-27 -36q-19 -25 -10 -43t40 -18h83q26 0 26 -26v-52q0 -26 -26 -26h-419q-26 0 -26 26v52q0 26 17 26h17q49 0 76.5 13.5t57.5 52.5l277 365q20 25 11.5 43t-41.5 18h-50q-26 0 -26 26v52q0 26 26 26h430q20 0 32 -16l378 -514q28 -39 56 -52.5
t78 -13.5zM501 321h295q16 0 21 9.5t-5 22.5l-144 196q-18 25 -36 0l-146 -196q-10 -13 -5.5 -22.5t20.5 -9.5z" />
    <glyph glyph-name="Aring" unicode="&#xc5;" 
d="M665 770q-91 0 -147.5 32.5t-56.5 90.5t56.5 90.5t147.5 32.5q92 0 148.5 -32.5t56.5 -90.5t-56.5 -90.5t-148.5 -32.5zM580 893q0 -28 22.5 -43.5t62.5 -15.5t63 15.5t23 43.5t-23 43.5t-63 15.5t-62.5 -15.5t-22.5 -43.5zM1353 104h17q17 0 17 -26v-52q0 -26 -26 -26
h-520q-26 0 -26 26v52q0 26 26 26h79q31 0 39.5 18t-9.5 43l-26 36q-13 16 -32 16h-488q-19 0 -31 -16l-27 -36q-19 -25 -10 -43t40 -18h83q26 0 26 -26v-52q0 -26 -26 -26h-419q-26 0 -26 26v52q0 26 17 26h17q49 0 76.5 13.5t57.5 52.5l277 365q20 25 11.5 43t-41.5 18
h-50q-26 0 -26 26v52q0 26 26 26h430q20 0 32 -16l378 -514q28 -39 56 -52.5t78 -13.5zM501 321h295q16 0 21 9.5t-5 22.5l-144 196q-18 25 -36 0l-146 -196q-10 -13 -5.5 -22.5t20.5 -9.5z" />
    <glyph glyph-name="AE" unicode="&#xc6;" horiz-adv-x="2029" 
d="M1959 270v-244q0 -26 -26 -26h-1133q-26 0 -26 26v52q0 26 26 26h102q32 0 46 12t14 48v47q0 26 -26 26h-428q-19 0 -32 -12l-74 -60q-23 -17 -15 -39t46 -22h84q26 0 26 -26v-52q0 -26 -26 -26h-493q-26 0 -26 26v52q0 26 26 26h10q101 0 161 50l461 381q28 23 22 42
t-38 19h-54q-26 0 -26 26v52q0 26 26 26h1337q26 0 26 -26v-214q0 -26 -26 -26h-79q-25 0 -27 25q-9 79 -41 108t-119 29h-429q-26 0 -26 -26v-137q0 -26 26 -26h184q65 0 87.5 19.5t22.5 70.5q0 23 26 23h68q26 0 26 -26v-278q0 -26 -26 -26h-68q-26 0 -26 23
q0 51 -22 70.5t-88 19.5h-184q-26 0 -26 -26v-147q0 -26 26 -26h439q86 0 118.5 38t41.5 129q2 25 27 25h79q26 0 26 -26zM962 367v203q0 26 -18 26h-2q-18 0 -30 -12l-257 -211q-14 -12 -10.5 -22t21.5 -10h270q26 0 26 26z" />
    <glyph glyph-name="Ccedilla" unicode="&#xc7;" horiz-adv-x="1205" 
d="M1027 263h104q14 0 20 -8t2 -21q-40 -124 -151.5 -187.5t-299.5 -72.5q-21 -1 -31 -19q-8 -16 -3 -21t22 1q29 9 61 9q68 0 114 -34.5t46 -89.5q0 -60 -57.5 -92t-142.5 -32q-112 0 -213 42q-26 11 -9 35l4 7q13 18 34 12q70 -18 141 -18q48 0 68.5 10t20.5 36
q0 46 -60 46q-30 0 -75 -15q-16 -7 -34 -1l-20 7q-25 10 -13 35l26 50q7 14 1.5 22t-21.5 9q-246 11 -382.5 105.5t-136.5 271.5q0 126 74 212.5t200.5 126t299.5 39.5q222 0 338 -73q23 -14 36 8l11 19q11 18 32 18h93q26 0 26 -26v-202q0 -26 -26 -26h-112q-21 0 -30 20
q-38 82 -115 120t-206 38q-355 0 -355 -274t355 -274q277 0 334 165q9 22 30 22z" />
    <glyph glyph-name="Egrave" unicode="&#xc8;" horiz-adv-x="1304" 
d="M531 960h171q21 0 31 -18l72 -125q8 -13 3 -22t-21 -9h-44q-17 0 -33 10l-189 132q-15 11 -12 21.5t22 10.5zM932 596h-429q-26 0 -26 -26v-137q0 -26 26 -26h184q65 0 87.5 19.5t22.5 70.5q0 23 26 23h68q26 0 26 -26v-278q0 -26 -26 -26h-68q-26 0 -26 23
q0 51 -22 70.5t-88 19.5h-184q-26 0 -26 -26v-147q0 -26 26 -26h439q86 0 118.5 38t41.5 129q2 25 27 25h79q26 0 26 -26v-244q0 -26 -26 -26h-1133q-26 0 -26 26v52q0 26 26 26h102q32 0 46 12t14 48v372q0 36 -14 48t-46 12h-102q-26 0 -26 26v52q0 26 26 26h1123
q26 0 26 -26v-214q0 -26 -26 -26h-79q-25 0 -27 25q-9 79 -41 108t-119 29z" />
    <glyph glyph-name="Eacute" unicode="&#xc9;" horiz-adv-x="1304" 
d="M729 960h171q19 0 22 -10.5t-12 -21.5l-189 -132q-16 -10 -33 -10h-44q-16 0 -21 9t3 22l72 125q10 18 31 18zM932 596h-429q-26 0 -26 -26v-137q0 -26 26 -26h184q65 0 87.5 19.5t22.5 70.5q0 23 26 23h68q26 0 26 -26v-278q0 -26 -26 -26h-68q-26 0 -26 23
q0 51 -22 70.5t-88 19.5h-184q-26 0 -26 -26v-147q0 -26 26 -26h439q86 0 118.5 38t41.5 129q2 25 27 25h79q26 0 26 -26v-244q0 -26 -26 -26h-1133q-26 0 -26 26v52q0 26 26 26h102q32 0 46 12t14 48v372q0 36 -14 48t-46 12h-102q-26 0 -26 26v52q0 26 26 26h1123
q26 0 26 -26v-214q0 -26 -26 -26h-79q-25 0 -27 25q-9 79 -41 108t-119 29z" />
    <glyph glyph-name="Ecircumflex" unicode="&#xca;" horiz-adv-x="1304" 
d="M615 961l-139 -139q-12 -12 -8.5 -22t19.5 -10h26q17 0 32 7l151 74q18 8 36 0l151 -74q15 -7 32 -7h24q17 0 21 10t-8 22l-139 139q-13 13 -32 13h-134q-19 0 -32 -13zM932 596h-429q-26 0 -26 -26v-137q0 -26 26 -26h184q65 0 87.5 19.5t22.5 70.5q0 23 26 23h68
q26 0 26 -26v-278q0 -26 -26 -26h-68q-26 0 -26 23q0 51 -22 70.5t-88 19.5h-184q-26 0 -26 -26v-147q0 -26 26 -26h439q86 0 118.5 38t41.5 129q2 25 27 25h79q26 0 26 -26v-244q0 -26 -26 -26h-1133q-26 0 -26 26v52q0 26 26 26h102q32 0 46 12t14 48v372q0 36 -14 48
t-46 12h-102q-26 0 -26 26v52q0 26 26 26h1123q26 0 26 -26v-214q0 -26 -26 -26h-79q-25 0 -27 25q-9 79 -41 108t-119 29z" />
    <glyph glyph-name="Edieresis" unicode="&#xcb;" horiz-adv-x="1304" 
d="M585 780q-107 0 -107 87q0 86 107 86q106 0 106 -86q0 -87 -106 -87zM845 780q-107 0 -107 87q0 86 107 86q106 0 106 -86q0 -87 -106 -87zM932 596h-429q-26 0 -26 -26v-137q0 -26 26 -26h184q65 0 87.5 19.5t22.5 70.5q0 23 26 23h68q26 0 26 -26v-278q0 -26 -26 -26
h-68q-26 0 -26 23q0 51 -22 70.5t-88 19.5h-184q-26 0 -26 -26v-147q0 -26 26 -26h439q86 0 118.5 38t41.5 129q2 25 27 25h79q26 0 26 -26v-244q0 -26 -26 -26h-1133q-26 0 -26 26v52q0 26 26 26h102q32 0 46 12t14 48v372q0 36 -14 48t-46 12h-102q-26 0 -26 26v52
q0 26 26 26h1123q26 0 26 -26v-214q0 -26 -26 -26h-79q-25 0 -27 25q-9 79 -41 108t-119 29z" />
    <glyph glyph-name="Igrave" unicode="&#xcc;" horiz-adv-x="714" 
d="M174 960h171q21 0 31 -18l72 -125q8 -13 3 -22t-21 -9h-44q-17 0 -33 10l-189 132q-15 11 -12 21.5t22 10.5zM477 536v-372q0 -36 14 -48t46 -12h102q26 0 26 -26v-52q0 -26 -26 -26h-564q-26 0 -26 26v52q0 26 26 26h102q32 0 46 12t14 48v372q0 36 -14 48t-46 12h-102
q-26 0 -26 26v52q0 26 26 26h564q26 0 26 -26v-52q0 -26 -26 -26h-102q-32 0 -46 -12t-14 -48z" />
    <glyph glyph-name="Iacute" unicode="&#xcd;" horiz-adv-x="714" 
d="M372 960h171q19 0 22 -10.5t-12 -21.5l-189 -132q-16 -10 -33 -10h-44q-16 0 -21 9t3 22l72 125q10 18 31 18zM477 536v-372q0 -36 14 -48t46 -12h102q26 0 26 -26v-52q0 -26 -26 -26h-564q-26 0 -26 26v52q0 26 26 26h102q32 0 46 12t14 48v372q0 36 -14 48t-46 12h-102
q-26 0 -26 26v52q0 26 26 26h564q26 0 26 -26v-52q0 -26 -26 -26h-102q-32 0 -46 -12t-14 -48z" />
    <glyph glyph-name="Icircumflex" unicode="&#xce;" horiz-adv-x="714" 
d="M258 961l-139 -139q-12 -12 -8.5 -22t19.5 -10h26q17 0 32 7l151 74q18 8 36 0l151 -74q15 -7 32 -7h24q17 0 21 10t-8 22l-139 139q-13 13 -32 13h-134q-19 0 -32 -13zM477 536v-372q0 -36 14 -48t46 -12h102q26 0 26 -26v-52q0 -26 -26 -26h-564q-26 0 -26 26v52
q0 26 26 26h102q32 0 46 12t14 48v372q0 36 -14 48t-46 12h-102q-26 0 -26 26v52q0 26 26 26h564q26 0 26 -26v-52q0 -26 -26 -26h-102q-32 0 -46 -12t-14 -48z" />
    <glyph glyph-name="Idieresis" unicode="&#xcf;" horiz-adv-x="714" 
d="M228 780q-107 0 -107 87q0 86 107 86q106 0 106 -86q0 -87 -106 -87zM488 780q-107 0 -107 87q0 86 107 86q106 0 106 -86q0 -87 -106 -87zM477 536v-372q0 -36 14 -48t46 -12h102q26 0 26 -26v-52q0 -26 -26 -26h-564q-26 0 -26 26v52q0 26 26 26h102q32 0 46 12t14 48
v372q0 36 -14 48t-46 12h-102q-26 0 -26 26v52q0 26 26 26h564q26 0 26 -26v-52q0 -26 -26 -26h-102q-32 0 -46 -12t-14 -48z" />
    <glyph glyph-name="Eth" unicode="&#xd0;" horiz-adv-x="1376" 
d="M75 700h629q320 0 475 -82.5t155 -262.5q0 -187 -154.5 -271t-475.5 -84h-629q-26 0 -26 26v52q0 26 26 26h102q32 0 46 12t14 48v125q0 26 -26 26h-136q-26 0 -26 26v46q0 26 26 26h136q26 0 26 26v97q0 36 -13 48t-47 12h-102q-26 0 -26 26v52q0 26 26 26zM503 104h191
q203 0 288.5 59t85.5 192q0 126 -86 183.5t-288 57.5h-191q-26 0 -26 -26v-131q0 -26 26 -26h154q26 0 26 -26v-46q0 -26 -26 -26h-154q-26 0 -26 -26v-159q0 -26 26 -26z" />
    <glyph glyph-name="Ntilde" unicode="&#xd1;" horiz-adv-x="1455" 
d="M472 779h46q20 0 27 24q9 34 57 34q38 0 76.5 -17t84.5 -34t101 -17q154 0 154 128v11q0 26 -26 26h-46q-20 0 -27 -24q-11 -34 -57 -34q-38 0 -115 34t-147 34q-154 0 -154 -128v-11q0 -26 26 -26zM933 701h470q26 0 26 -26v-52q0 -26 -26 -26h-98q-32 0 -46 -12
t-14 -48v-511q0 -26 -26 -26h-204q-19 0 -32 12l-564 491q-13 11 -22.5 7t-9.5 -21v-325q0 -36 14 -48t46 -12h102q26 0 26 -26v-52q0 -26 -26 -26h-474q-26 0 -26 26v52q0 26 26 26h102q32 0 46 12t14 48v372q0 36 -14 48t-46 12h-102q-26 0 -26 26v52q0 26 26 26h444
q19 0 32 -12l512 -446q13 -11 22.5 -7t9.5 21v281q0 36 -14 48t-46 12h-102q-26 0 -26 26v52q0 26 26 26z" />
    <glyph glyph-name="Ograve" unicode="&#xd2;" horiz-adv-x="1314" 
d="M474 960h171q21 0 31 -18l72 -125q8 -13 3 -22t-21 -9h-44q-17 0 -33 10l-189 132q-15 11 -12 21.5t22 10.5zM657 -28q-299 0 -457 93.5t-158 284.5t158 284.5t457 93.5t457 -93.5t158 -284.5t-158 -284.5t-457 -93.5zM308 350q0 -134 81 -204t268 -70t268 70t81 204
q0 136 -78 205t-271 69q-187 0 -268 -70t-81 -204z" />
    <glyph glyph-name="Oacute" unicode="&#xd3;" horiz-adv-x="1314" 
d="M672 960h171q19 0 22 -10.5t-12 -21.5l-189 -132q-16 -10 -33 -10h-44q-16 0 -21 9t3 22l72 125q10 18 31 18zM657 -28q-299 0 -457 93.5t-158 284.5t158 284.5t457 93.5t457 -93.5t158 -284.5t-158 -284.5t-457 -93.5zM308 350q0 -134 81 -204t268 -70t268 70t81 204
q0 136 -78 205t-271 69q-187 0 -268 -70t-81 -204z" />
    <glyph glyph-name="Ocircumflex" unicode="&#xd4;" horiz-adv-x="1314" 
d="M558 961l-139 -139q-12 -12 -8.5 -22t19.5 -10h26q17 0 32 7l151 74q18 8 36 0l151 -74q15 -7 32 -7h24q17 0 21 10t-8 22l-139 139q-13 13 -32 13h-134q-19 0 -32 -13zM657 -28q-299 0 -457 93.5t-158 284.5t158 284.5t457 93.5t457 -93.5t158 -284.5t-158 -284.5
t-457 -93.5zM308 350q0 -134 81 -204t268 -70t268 70t81 204q0 136 -78 205t-271 69q-187 0 -268 -70t-81 -204z" />
    <glyph glyph-name="Otilde" unicode="&#xd5;" horiz-adv-x="1314" 
d="M397 779h46q19 0 27 24q9 34 57 34q38 0 76.5 -17t84.5 -34t101 -17q154 0 154 128v11q0 26 -26 26h-46q-19 0 -27 -24q-11 -34 -57 -34q-35 0 -73.5 17t-86 34t-102.5 17q-154 0 -154 -128v-11q0 -26 26 -26zM657 -28q-299 0 -457 93.5t-158 284.5t158 284.5t457 93.5
t457 -93.5t158 -284.5t-158 -284.5t-457 -93.5zM308 350q0 -134 81 -204t268 -70t268 70t81 204q0 136 -78 205t-271 69q-187 0 -268 -70t-81 -204z" />
    <glyph glyph-name="Odieresis" unicode="&#xd6;" horiz-adv-x="1314" 
d="M528 780q-107 0 -107 87q0 86 107 86q106 0 106 -86q0 -87 -106 -87zM788 780q-107 0 -107 87q0 86 107 86q106 0 106 -86q0 -87 -106 -87zM657 -28q-299 0 -457 93.5t-158 284.5t158 284.5t457 93.5t457 -93.5t158 -284.5t-158 -284.5t-457 -93.5zM308 350
q0 -134 81 -204t268 -70t268 70t81 204q0 136 -78 205t-271 69q-187 0 -268 -70t-81 -204z" />
    <glyph glyph-name="multiply" unicode="&#xd7;" horiz-adv-x="685" 
d="M476 336l133 -100q22 -17 2 -37l-57 -57q-17 -17 -36 -2l-157 117q-18 15 -36 0l-158 -118q-19 -14 -36 3l-57 57q-20 20 2 37l133 100q25 18 0 36l-133 99q-22 17 -2 37l57 57q17 17 36 2l158 -117q18 -15 36 0l157 117q19 15 36 -2l57 -57q20 -20 -2 -37l-133 -99
q-25 -18 0 -36z" />
    <glyph glyph-name="Oslash" unicode="&#xd8;" horiz-adv-x="1314" 
d="M1018 778l-39 -56q-17 -25 12 -35q281 -83 281 -337q0 -191 -158 -284.5t-457 -93.5q-83 0 -163 8q-22 1 -33 -15l-40 -58q-11 -17 -31 -17h-76q-16 0 -21 9t5 23l38 56q18 26 -13 34q-281 85 -281 338q0 191 158 284.5t457 93.5q82 0 164 -8q20 -3 33 15l40 58
q11 17 31 17h76q16 0 21 -9t-4 -23zM308 350q0 -154 102 -220q22 -13 36 9l307 448q8 13 4 22.5t-19 10.5q-33 4 -81 4q-187 0 -268 -70t-81 -204zM657 76q187 0 268 70t81 204q0 157 -100 221q-21 14 -36 -8l-308 -450q-8 -13 -5.5 -22.5t15.5 -10.5q35 -4 85 -4z" />
    <glyph glyph-name="Ugrave" unicode="&#xd9;" horiz-adv-x="1404" 
d="M571 960h171q21 0 31 -18l72 -125q8 -13 3 -22t-21 -9h-44q-17 0 -33 10l-189 132q-15 11 -12 21.5t22 10.5zM1352 596h-98q-33 0 -45.5 -12t-12.5 -50v-192q0 -189 -113 -279.5t-376 -90.5q-264 0 -381.5 91.5t-117.5 278.5v192q0 38 -12.5 50t-45.5 12h-98
q-26 0 -26 26v52q0 26 26 26h552q26 0 26 -26v-52q0 -26 -26 -26h-98q-33 0 -45.5 -12t-12.5 -50v-174q0 -143 67 -213.5t232 -70.5q164 0 231.5 73t67.5 211v174q0 38 -12.5 50t-45.5 12h-98q-26 0 -26 26v52q0 26 26 26h462q26 0 26 -26v-52q0 -26 -26 -26z" />
    <glyph glyph-name="Uacute" unicode="&#xda;" horiz-adv-x="1404" 
d="M769 960h171q19 0 22 -10.5t-12 -21.5l-189 -132q-16 -10 -33 -10h-44q-16 0 -21 9t3 22l72 125q10 18 31 18zM1352 596h-98q-33 0 -45.5 -12t-12.5 -50v-192q0 -189 -113 -279.5t-376 -90.5q-264 0 -381.5 91.5t-117.5 278.5v192q0 38 -12.5 50t-45.5 12h-98
q-26 0 -26 26v52q0 26 26 26h552q26 0 26 -26v-52q0 -26 -26 -26h-98q-33 0 -45.5 -12t-12.5 -50v-174q0 -143 67 -213.5t232 -70.5q164 0 231.5 73t67.5 211v174q0 38 -12.5 50t-45.5 12h-98q-26 0 -26 26v52q0 26 26 26h462q26 0 26 -26v-52q0 -26 -26 -26z" />
    <glyph glyph-name="Ucircumflex" unicode="&#xdb;" horiz-adv-x="1404" 
d="M655 961l-139 -139q-12 -12 -8.5 -22t19.5 -10h26q17 0 32 7l151 74q18 8 36 0l151 -74q15 -7 32 -7h24q17 0 21 10t-8 22l-139 139q-13 13 -32 13h-134q-19 0 -32 -13zM1352 596h-98q-33 0 -45.5 -12t-12.5 -50v-192q0 -189 -113 -279.5t-376 -90.5q-264 0 -381.5 91.5
t-117.5 278.5v192q0 38 -12.5 50t-45.5 12h-98q-26 0 -26 26v52q0 26 26 26h552q26 0 26 -26v-52q0 -26 -26 -26h-98q-33 0 -45.5 -12t-12.5 -50v-174q0 -143 67 -213.5t232 -70.5q164 0 231.5 73t67.5 211v174q0 38 -12.5 50t-45.5 12h-98q-26 0 -26 26v52q0 26 26 26h462
q26 0 26 -26v-52q0 -26 -26 -26z" />
    <glyph glyph-name="Udieresis" unicode="&#xdc;" horiz-adv-x="1404" 
d="M625 780q-107 0 -107 87q0 86 107 86q106 0 106 -86q0 -87 -106 -87zM885 780q-107 0 -107 87q0 86 107 86q106 0 106 -86q0 -87 -106 -87zM1352 596h-98q-33 0 -45.5 -12t-12.5 -50v-192q0 -189 -113 -279.5t-376 -90.5q-264 0 -381.5 91.5t-117.5 278.5v192
q0 38 -12.5 50t-45.5 12h-98q-26 0 -26 26v52q0 26 26 26h552q26 0 26 -26v-52q0 -26 -26 -26h-98q-33 0 -45.5 -12t-12.5 -50v-174q0 -143 67 -213.5t232 -70.5q164 0 231.5 73t67.5 211v174q0 38 -12.5 50t-45.5 12h-98q-26 0 -26 26v52q0 26 26 26h462q26 0 26 -26v-52
q0 -26 -26 -26z" />
    <glyph glyph-name="Yacute" unicode="&#xdd;" horiz-adv-x="1260" 
d="M705 960h171q19 0 22 -10.5t-12 -21.5l-189 -132q-16 -10 -33 -10h-44q-16 0 -21 9t3 22l72 125q10 18 31 18zM1079 545l-299 -278q-14 -13 -14 -32v-71q0 -36 14 -48t46 -12h102q26 0 26 -26v-52q0 -26 -26 -26h-564q-26 0 -26 26v52q0 26 26 26h102q32 0 46 12t14 48
v59q0 19 -14 32l-321 290q-33 30 -68.5 40.5t-88.5 10.5q-24 0 -24 26v52q0 26 26 26h530q26 0 26 -26v-52q0 -26 -26 -26h-66q-27 0 -33.5 -16t13.5 -33l197 -175q18 -15 36 1l193 174q20 17 13.5 33t-33.5 16h-66q-26 0 -26 26v52q0 26 26 26h404q26 0 26 -26v-52
q0 -15 -5 -20.5t-19 -5.5q-52 0 -83 -10t-64 -41z" />
    <glyph glyph-name="Thorn" unicode="&#xde;" horiz-adv-x="1313" 
d="M503 585h375q201 0 303.5 -50.5t102.5 -142.5t-102.5 -142.5t-303.5 -50.5h-375q-26 0 -26 -17v-18q0 -36 14 -48t46 -12h102q26 0 26 -26v-52q0 -26 -26 -26h-564q-26 0 -26 26v52q0 26 26 26h102q32 0 46 12t14 48v372q0 36 -14 48t-46 12h-102q-26 0 -26 26v52
q0 26 26 26h376q26 0 26 -26v-63q0 -26 26 -26zM503 303h341q105 0 149.5 18.5t44.5 70.5t-44.5 70.5t-149.5 18.5h-341q-26 0 -26 -26v-126q0 -26 26 -26z" />
    <glyph glyph-name="germandbls" unicode="&#xdf;" horiz-adv-x="2324" 
d="M1049 482h-105q-20 0 -30 19q-36 61 -134 89.5t-223 28.5q-280 0 -280 -91q0 -57 136 -68l370 -29q49 -4 81.5 -8t75.5 -12.5t70.5 -22t54 -34t39 -51t12.5 -70.5q0 -88 -63.5 -147.5t-168 -86.5t-243.5 -27q-254 0 -390 72q-22 13 -35 -10l-8 -15q-9 -19 -30 -19h-85
q-26 0 -26 26v181q0 26 26 26h105q20 0 30 -19q78 -135 390 -135q119 0 195 22.5t76 68.5q0 58 -124 69l-369 30q-70 6 -124 17t-106.5 33t-81.5 62.5t-29 95.5q0 70 44.5 121.5t118 78t150.5 38t159 11.5q114 0 213 -19t152 -50q24 -13 34 10l7 14q10 19 31 19h85
q26 0 26 -26v-166q0 -26 -26 -26zM2211 482h-105q-20 0 -30 19q-36 61 -134 89.5t-223 28.5q-280 0 -280 -91q0 -57 136 -68l370 -29q49 -4 81.5 -8t75.5 -12.5t70.5 -22t54 -34t39 -51t12.5 -70.5q0 -88 -63.5 -147.5t-168 -86.5t-243.5 -27q-254 0 -390 72q-22 13 -35 -10
l-8 -15q-9 -19 -30 -19h-85q-26 0 -26 26v181q0 26 26 26h105q20 0 30 -19q78 -135 390 -135q119 0 195 22.5t76 68.5q0 58 -124 69l-369 30q-70 6 -124 17t-106.5 33t-81.5 62.5t-29 95.5q0 70 44.5 121.5t118 78t150.5 38t159 11.5q114 0 213 -19t152 -50q24 -13 34 10
l7 14q10 19 31 19h85q26 0 26 -26v-166q0 -26 -26 -26z" />
    <glyph glyph-name="agrave" unicode="&#xe0;" 
d="M482 960h171q21 0 31 -18l72 -125q8 -13 3 -22t-21 -9h-44q-17 0 -33 10l-189 132q-15 11 -12 21.5t22 10.5zM1353 104h17q17 0 17 -26v-52q0 -26 -26 -26h-520q-26 0 -26 26v52q0 26 26 26h79q31 0 39.5 18t-9.5 43l-26 36q-13 16 -32 16h-488q-19 0 -31 -16l-27 -36
q-19 -25 -10 -43t40 -18h83q26 0 26 -26v-52q0 -26 -26 -26h-419q-26 0 -26 26v52q0 26 17 26h17q49 0 76.5 13.5t57.5 52.5l277 365q20 25 11.5 43t-41.5 18h-50q-26 0 -26 26v52q0 26 26 26h430q20 0 32 -16l378 -514q28 -39 56 -52.5t78 -13.5zM501 321h295q16 0 21 9.5
t-5 22.5l-144 196q-18 25 -36 0l-146 -196q-10 -13 -5.5 -22.5t20.5 -9.5z" />
    <glyph glyph-name="aacute" unicode="&#xe1;" 
d="M680 960h171q19 0 22 -10.5t-12 -21.5l-189 -132q-16 -10 -33 -10h-44q-16 0 -21 9t3 22l72 125q10 18 31 18zM1353 104h17q17 0 17 -26v-52q0 -26 -26 -26h-520q-26 0 -26 26v52q0 26 26 26h79q31 0 39.5 18t-9.5 43l-26 36q-13 16 -32 16h-488q-19 0 -31 -16l-27 -36
q-19 -25 -10 -43t40 -18h83q26 0 26 -26v-52q0 -26 -26 -26h-419q-26 0 -26 26v52q0 26 17 26h17q49 0 76.5 13.5t57.5 52.5l277 365q20 25 11.5 43t-41.5 18h-50q-26 0 -26 26v52q0 26 26 26h430q20 0 32 -16l378 -514q28 -39 56 -52.5t78 -13.5zM501 321h295q16 0 21 9.5
t-5 22.5l-144 196q-18 25 -36 0l-146 -196q-10 -13 -5.5 -22.5t20.5 -9.5z" />
    <glyph glyph-name="acircumflex" unicode="&#xe2;" 
d="M566 961l-139 -139q-12 -12 -8.5 -22t19.5 -10h26q17 0 32 7l151 74q18 8 36 0l151 -74q15 -7 32 -7h24q17 0 21 10t-8 22l-139 139q-13 13 -32 13h-134q-19 0 -32 -13zM1353 104h17q17 0 17 -26v-52q0 -26 -26 -26h-520q-26 0 -26 26v52q0 26 26 26h79q31 0 39.5 18
t-9.5 43l-26 36q-13 16 -32 16h-488q-19 0 -31 -16l-27 -36q-19 -25 -10 -43t40 -18h83q26 0 26 -26v-52q0 -26 -26 -26h-419q-26 0 -26 26v52q0 26 17 26h17q49 0 76.5 13.5t57.5 52.5l277 365q20 25 11.5 43t-41.5 18h-50q-26 0 -26 26v52q0 26 26 26h430q20 0 32 -16
l378 -514q28 -39 56 -52.5t78 -13.5zM501 321h295q16 0 21 9.5t-5 22.5l-144 196q-18 25 -36 0l-146 -196q-10 -13 -5.5 -22.5t20.5 -9.5z" />
    <glyph glyph-name="atilde" unicode="&#xe3;" 
d="M405 779h46q19 0 27 24q9 34 57 34q38 0 76.5 -17t84.5 -34t101 -17q154 0 154 128v11q0 26 -26 26h-46q-19 0 -27 -24q-11 -34 -57 -34q-35 0 -73.5 17t-86 34t-102.5 17q-154 0 -154 -128v-11q0 -26 26 -26zM1353 104h17q17 0 17 -26v-52q0 -26 -26 -26h-520
q-26 0 -26 26v52q0 26 26 26h79q31 0 39.5 18t-9.5 43l-26 36q-13 16 -32 16h-488q-19 0 -31 -16l-27 -36q-19 -25 -10 -43t40 -18h83q26 0 26 -26v-52q0 -26 -26 -26h-419q-26 0 -26 26v52q0 26 17 26h17q49 0 76.5 13.5t57.5 52.5l277 365q20 25 11.5 43t-41.5 18h-50
q-26 0 -26 26v52q0 26 26 26h430q20 0 32 -16l378 -514q28 -39 56 -52.5t78 -13.5zM501 321h295q16 0 21 9.5t-5 22.5l-144 196q-18 25 -36 0l-146 -196q-10 -13 -5.5 -22.5t20.5 -9.5z" />
    <glyph glyph-name="adieresis" unicode="&#xe4;" 
d="M536 780q-107 0 -107 87q0 86 107 86q106 0 106 -86q0 -87 -106 -87zM796 780q-107 0 -107 87q0 86 107 86q106 0 106 -86q0 -87 -106 -87zM1353 104h17q17 0 17 -26v-52q0 -26 -26 -26h-520q-26 0 -26 26v52q0 26 26 26h79q31 0 39.5 18t-9.5 43l-26 36q-13 16 -32 16
h-488q-19 0 -31 -16l-27 -36q-19 -25 -10 -43t40 -18h83q26 0 26 -26v-52q0 -26 -26 -26h-419q-26 0 -26 26v52q0 26 17 26h17q49 0 76.5 13.5t57.5 52.5l277 365q20 25 11.5 43t-41.5 18h-50q-26 0 -26 26v52q0 26 26 26h430q20 0 32 -16l378 -514q28 -39 56 -52.5
t78 -13.5zM501 321h295q16 0 21 9.5t-5 22.5l-144 196q-18 25 -36 0l-146 -196q-10 -13 -5.5 -22.5t20.5 -9.5z" />
    <glyph glyph-name="aring" unicode="&#xe5;" 
d="M665 770q-91 0 -147.5 32.5t-56.5 90.5t56.5 90.5t147.5 32.5q92 0 148.5 -32.5t56.5 -90.5t-56.5 -90.5t-148.5 -32.5zM580 893q0 -28 22.5 -43.5t62.5 -15.5t63 15.5t23 43.5t-23 43.5t-63 15.5t-62.5 -15.5t-22.5 -43.5zM1353 104h17q17 0 17 -26v-52q0 -26 -26 -26
h-520q-26 0 -26 26v52q0 26 26 26h79q31 0 39.5 18t-9.5 43l-26 36q-13 16 -32 16h-488q-19 0 -31 -16l-27 -36q-19 -25 -10 -43t40 -18h83q26 0 26 -26v-52q0 -26 -26 -26h-419q-26 0 -26 26v52q0 26 17 26h17q49 0 76.5 13.5t57.5 52.5l277 365q20 25 11.5 43t-41.5 18
h-50q-26 0 -26 26v52q0 26 26 26h430q20 0 32 -16l378 -514q28 -39 56 -52.5t78 -13.5zM501 321h295q16 0 21 9.5t-5 22.5l-144 196q-18 25 -36 0l-146 -196q-10 -13 -5.5 -22.5t20.5 -9.5z" />
    <glyph glyph-name="ae" unicode="&#xe6;" horiz-adv-x="2029" 
d="M1959 270v-244q0 -26 -26 -26h-1133q-26 0 -26 26v52q0 26 26 26h102q32 0 46 12t14 48v47q0 26 -26 26h-428q-19 0 -32 -12l-74 -60q-23 -17 -15 -39t46 -22h84q26 0 26 -26v-52q0 -26 -26 -26h-493q-26 0 -26 26v52q0 26 26 26h10q101 0 161 50l461 381q28 23 22 42
t-38 19h-54q-26 0 -26 26v52q0 26 26 26h1337q26 0 26 -26v-214q0 -26 -26 -26h-79q-25 0 -27 25q-9 79 -41 108t-119 29h-429q-26 0 -26 -26v-137q0 -26 26 -26h184q65 0 87.5 19.5t22.5 70.5q0 23 26 23h68q26 0 26 -26v-278q0 -26 -26 -26h-68q-26 0 -26 23
q0 51 -22 70.5t-88 19.5h-184q-26 0 -26 -26v-147q0 -26 26 -26h439q86 0 118.5 38t41.5 129q2 25 27 25h79q26 0 26 -26zM962 367v203q0 26 -18 26h-2q-18 0 -30 -12l-257 -211q-14 -12 -10.5 -22t21.5 -10h270q26 0 26 26z" />
    <glyph glyph-name="ccedilla" unicode="&#xe7;" horiz-adv-x="1205" 
d="M1027 263h104q14 0 20 -8t2 -21q-42 -127 -158 -190.5t-314 -70.5l-10 -19q-7 -15 -2.5 -19.5t21.5 0.5q29 9 61 9q68 0 114 -34.5t46 -89.5q0 -60 -57.5 -92t-142.5 -32q-114 0 -213 42q-25 11 -10 35l5 7q13 18 34 12q70 -18 141 -18q48 0 68.5 10t20.5 36q0 46 -60 46
q-30 0 -75 -15q-16 -7 -34 -1l-20 7q-25 10 -13 35l41 80q-262 5 -408 99.5t-146 278.5q0 126 74 212.5t200.5 126t299.5 39.5q222 0 338 -73q23 -14 36 8l11 19q11 18 32 18h93q26 0 26 -26v-202q0 -26 -26 -26h-112q-21 0 -30 20q-38 82 -115 120t-206 38
q-355 0 -355 -274t355 -274q277 0 334 165q9 22 30 22z" />
    <glyph glyph-name="egrave" unicode="&#xe8;" horiz-adv-x="1304" 
d="M531 960h171q21 0 31 -18l72 -125q8 -13 3 -22t-21 -9h-44q-17 0 -33 10l-189 132q-15 11 -12 21.5t22 10.5zM932 596h-429q-26 0 -26 -26v-137q0 -26 26 -26h184q65 0 87.5 19.5t22.5 70.5q0 23 26 23h68q26 0 26 -26v-278q0 -26 -26 -26h-68q-26 0 -26 23
q0 51 -22 70.5t-88 19.5h-184q-26 0 -26 -26v-147q0 -26 26 -26h439q86 0 118.5 38t41.5 129q2 25 27 25h79q26 0 26 -26v-244q0 -26 -26 -26h-1133q-26 0 -26 26v52q0 26 26 26h102q32 0 46 12t14 48v372q0 36 -14 48t-46 12h-102q-26 0 -26 26v52q0 26 26 26h1123
q26 0 26 -26v-214q0 -26 -26 -26h-79q-25 0 -27 25q-9 79 -41 108t-119 29z" />
    <glyph glyph-name="eacute" unicode="&#xe9;" horiz-adv-x="1304" 
d="M729 960h171q19 0 22 -10.5t-12 -21.5l-189 -132q-16 -10 -33 -10h-44q-16 0 -21 9t3 22l72 125q10 18 31 18zM932 596h-429q-26 0 -26 -26v-137q0 -26 26 -26h184q65 0 87.5 19.5t22.5 70.5q0 23 26 23h68q26 0 26 -26v-278q0 -26 -26 -26h-68q-26 0 -26 23
q0 51 -22 70.5t-88 19.5h-184q-26 0 -26 -26v-147q0 -26 26 -26h439q86 0 118.5 38t41.5 129q2 25 27 25h79q26 0 26 -26v-244q0 -26 -26 -26h-1133q-26 0 -26 26v52q0 26 26 26h102q32 0 46 12t14 48v372q0 36 -14 48t-46 12h-102q-26 0 -26 26v52q0 26 26 26h1123
q26 0 26 -26v-214q0 -26 -26 -26h-79q-25 0 -27 25q-9 79 -41 108t-119 29z" />
    <glyph glyph-name="ecircumflex" unicode="&#xea;" horiz-adv-x="1304" 
d="M615 961l-139 -139q-12 -12 -8.5 -22t19.5 -10h26q17 0 32 7l151 74q18 8 36 0l151 -74q15 -7 32 -7h24q17 0 21 10t-8 22l-139 139q-13 13 -32 13h-134q-19 0 -32 -13zM932 596h-429q-26 0 -26 -26v-137q0 -26 26 -26h184q65 0 87.5 19.5t22.5 70.5q0 23 26 23h68
q26 0 26 -26v-278q0 -26 -26 -26h-68q-26 0 -26 23q0 51 -22 70.5t-88 19.5h-184q-26 0 -26 -26v-147q0 -26 26 -26h439q86 0 118.5 38t41.5 129q2 25 27 25h79q26 0 26 -26v-244q0 -26 -26 -26h-1133q-26 0 -26 26v52q0 26 26 26h102q32 0 46 12t14 48v372q0 36 -14 48
t-46 12h-102q-26 0 -26 26v52q0 26 26 26h1123q26 0 26 -26v-214q0 -26 -26 -26h-79q-25 0 -27 25q-9 79 -41 108t-119 29z" />
    <glyph glyph-name="edieresis" unicode="&#xeb;" horiz-adv-x="1304" 
d="M585 780q-107 0 -107 87q0 86 107 86q106 0 106 -86q0 -87 -106 -87zM845 780q-107 0 -107 87q0 86 107 86q106 0 106 -86q0 -87 -106 -87zM932 596h-429q-26 0 -26 -26v-137q0 -26 26 -26h184q65 0 87.5 19.5t22.5 70.5q0 23 26 23h68q26 0 26 -26v-278q0 -26 -26 -26
h-68q-26 0 -26 23q0 51 -22 70.5t-88 19.5h-184q-26 0 -26 -26v-147q0 -26 26 -26h439q86 0 118.5 38t41.5 129q2 25 27 25h79q26 0 26 -26v-244q0 -26 -26 -26h-1133q-26 0 -26 26v52q0 26 26 26h102q32 0 46 12t14 48v372q0 36 -14 48t-46 12h-102q-26 0 -26 26v52
q0 26 26 26h1123q26 0 26 -26v-214q0 -26 -26 -26h-79q-25 0 -27 25q-9 79 -41 108t-119 29z" />
    <glyph glyph-name="igrave" unicode="&#xec;" horiz-adv-x="714" 
d="M174 960h171q21 0 31 -18l72 -125q8 -13 3 -22t-21 -9h-44q-17 0 -33 10l-189 132q-15 11 -12 21.5t22 10.5zM477 536v-372q0 -36 14 -48t46 -12h102q26 0 26 -26v-52q0 -26 -26 -26h-564q-26 0 -26 26v52q0 26 26 26h102q32 0 46 12t14 48v372q0 36 -14 48t-46 12h-102
q-26 0 -26 26v52q0 26 26 26h564q26 0 26 -26v-52q0 -26 -26 -26h-102q-32 0 -46 -12t-14 -48z" />
    <glyph glyph-name="iacute" unicode="&#xed;" horiz-adv-x="714" 
d="M372 960h171q19 0 22 -10.5t-12 -21.5l-189 -132q-16 -10 -33 -10h-44q-16 0 -21 9t3 22l72 125q10 18 31 18zM477 536v-372q0 -36 14 -48t46 -12h102q26 0 26 -26v-52q0 -26 -26 -26h-564q-26 0 -26 26v52q0 26 26 26h102q32 0 46 12t14 48v372q0 36 -14 48t-46 12h-102
q-26 0 -26 26v52q0 26 26 26h564q26 0 26 -26v-52q0 -26 -26 -26h-102q-32 0 -46 -12t-14 -48z" />
    <glyph glyph-name="icircumflex" unicode="&#xee;" horiz-adv-x="714" 
d="M258 961l-139 -139q-12 -12 -8.5 -22t19.5 -10h26q17 0 32 7l151 74q18 8 36 0l151 -74q15 -7 32 -7h24q17 0 21 10t-8 22l-139 139q-13 13 -32 13h-134q-19 0 -32 -13zM477 536v-372q0 -36 14 -48t46 -12h102q26 0 26 -26v-52q0 -26 -26 -26h-564q-26 0 -26 26v52
q0 26 26 26h102q32 0 46 12t14 48v372q0 36 -14 48t-46 12h-102q-26 0 -26 26v52q0 26 26 26h564q26 0 26 -26v-52q0 -26 -26 -26h-102q-32 0 -46 -12t-14 -48z" />
    <glyph glyph-name="idieresis" unicode="&#xef;" horiz-adv-x="714" 
d="M228 780q-107 0 -107 87q0 86 107 86q106 0 106 -86q0 -87 -106 -87zM488 780q-107 0 -107 87q0 86 107 86q106 0 106 -86q0 -87 -106 -87zM477 536v-372q0 -36 14 -48t46 -12h102q26 0 26 -26v-52q0 -26 -26 -26h-564q-26 0 -26 26v52q0 26 26 26h102q32 0 46 12t14 48
v372q0 36 -14 48t-46 12h-102q-26 0 -26 26v52q0 26 26 26h564q26 0 26 -26v-52q0 -26 -26 -26h-102q-32 0 -46 -12t-14 -48z" />
    <glyph glyph-name="eth" unicode="&#xf0;" horiz-adv-x="1376" 
d="M75 700h629q320 0 475 -82.5t155 -262.5q0 -187 -154.5 -271t-475.5 -84h-629q-26 0 -26 26v52q0 26 26 26h102q32 0 46 12t14 48v125q0 26 -26 26h-136q-26 0 -26 26v46q0 26 26 26h136q26 0 26 26v97q0 36 -13 48t-47 12h-102q-26 0 -26 26v52q0 26 26 26zM503 104h191
q203 0 288.5 59t85.5 192q0 126 -86 183.5t-288 57.5h-191q-26 0 -26 -26v-131q0 -26 26 -26h154q26 0 26 -26v-46q0 -26 -26 -26h-154q-26 0 -26 -26v-159q0 -26 26 -26z" />
    <glyph glyph-name="ntilde" unicode="&#xf1;" horiz-adv-x="1455" 
d="M472 779h46q20 0 27 24q9 34 57 34q38 0 76.5 -17t84.5 -34t101 -17q154 0 154 128v11q0 26 -26 26h-46q-20 0 -27 -24q-11 -34 -57 -34q-38 0 -115 34t-147 34q-154 0 -154 -128v-11q0 -26 26 -26zM933 701h470q26 0 26 -26v-52q0 -26 -26 -26h-98q-32 0 -46 -12
t-14 -48v-511q0 -26 -26 -26h-204q-19 0 -32 12l-564 491q-13 11 -22.5 7t-9.5 -21v-325q0 -36 14 -48t46 -12h102q26 0 26 -26v-52q0 -26 -26 -26h-474q-26 0 -26 26v52q0 26 26 26h102q32 0 46 12t14 48v372q0 36 -14 48t-46 12h-102q-26 0 -26 26v52q0 26 26 26h444
q19 0 32 -12l512 -446q13 -11 22.5 -7t9.5 21v281q0 36 -14 48t-46 12h-102q-26 0 -26 26v52q0 26 26 26z" />
    <glyph glyph-name="ograve" unicode="&#xf2;" horiz-adv-x="1314" 
d="M474 960h171q21 0 31 -18l72 -125q8 -13 3 -22t-21 -9h-44q-17 0 -33 10l-189 132q-15 11 -12 21.5t22 10.5zM657 -28q-299 0 -457 93.5t-158 284.5t158 284.5t457 93.5t457 -93.5t158 -284.5t-158 -284.5t-457 -93.5zM308 350q0 -134 81 -204t268 -70t268 70t81 204
q0 136 -78 205t-271 69q-187 0 -268 -70t-81 -204z" />
    <glyph glyph-name="oacute" unicode="&#xf3;" horiz-adv-x="1314" 
d="M672 960h171q19 0 22 -10.5t-12 -21.5l-189 -132q-16 -10 -33 -10h-44q-16 0 -21 9t3 22l72 125q10 18 31 18zM657 -28q-299 0 -457 93.5t-158 284.5t158 284.5t457 93.5t457 -93.5t158 -284.5t-158 -284.5t-457 -93.5zM308 350q0 -134 81 -204t268 -70t268 70t81 204
q0 136 -78 205t-271 69q-187 0 -268 -70t-81 -204z" />
    <glyph glyph-name="ocircumflex" unicode="&#xf4;" horiz-adv-x="1314" 
d="M558 961l-139 -139q-12 -12 -8.5 -22t19.5 -10h26q17 0 32 7l151 74q18 8 36 0l151 -74q15 -7 32 -7h24q17 0 21 10t-8 22l-139 139q-13 13 -32 13h-134q-19 0 -32 -13zM657 -28q-299 0 -457 93.5t-158 284.5t158 284.5t457 93.5t457 -93.5t158 -284.5t-158 -284.5
t-457 -93.5zM308 350q0 -134 81 -204t268 -70t268 70t81 204q0 136 -78 205t-271 69q-187 0 -268 -70t-81 -204z" />
    <glyph glyph-name="otilde" unicode="&#xf5;" horiz-adv-x="1314" 
d="M397 779h46q19 0 27 24q9 34 57 34q38 0 76.5 -17t84.5 -34t101 -17q154 0 154 128v11q0 26 -26 26h-46q-19 0 -27 -24q-11 -34 -57 -34q-35 0 -73.5 17t-86 34t-102.5 17q-154 0 -154 -128v-11q0 -26 26 -26zM657 -28q-299 0 -457 93.5t-158 284.5t158 284.5t457 93.5
t457 -93.5t158 -284.5t-158 -284.5t-457 -93.5zM308 350q0 -134 81 -204t268 -70t268 70t81 204q0 136 -78 205t-271 69q-187 0 -268 -70t-81 -204z" />
    <glyph glyph-name="odieresis" unicode="&#xf6;" horiz-adv-x="1314" 
d="M528 780q-107 0 -107 87q0 86 107 86q106 0 106 -86q0 -87 -106 -87zM788 780q-107 0 -107 87q0 86 107 86q106 0 106 -86q0 -87 -106 -87zM657 -28q-299 0 -457 93.5t-158 284.5t158 284.5t457 93.5t457 -93.5t158 -284.5t-158 -284.5t-457 -93.5zM308 350
q0 -134 81 -204t268 -70t268 70t81 204q0 136 -78 205t-271 69q-187 0 -268 -70t-81 -204z" />
    <glyph glyph-name="divide" unicode="&#xf7;" horiz-adv-x="773" 
d="M387 486q-107 0 -107 87q0 86 107 86q106 0 106 -86q0 -87 -106 -87zM50 323v74q0 26 26 26h621q26 0 26 -26v-74q0 -26 -26 -26h-621q-26 0 -26 26zM387 61q-107 0 -107 87q0 86 107 86q106 0 106 -86q0 -87 -106 -87z" />
    <glyph glyph-name="oslash" unicode="&#xf8;" horiz-adv-x="1314" 
d="M1018 778l-39 -56q-17 -25 12 -35q281 -83 281 -337q0 -191 -158 -284.5t-457 -93.5q-83 0 -163 8q-22 1 -33 -15l-40 -58q-11 -17 -31 -17h-76q-16 0 -21 9t5 23l38 56q18 26 -13 34q-281 85 -281 338q0 191 158 284.5t457 93.5q82 0 164 -8q20 -3 33 15l40 58
q11 17 31 17h76q16 0 21 -9t-4 -23zM308 350q0 -154 102 -220q22 -13 36 9l307 448q8 13 4 22.5t-19 10.5q-33 4 -81 4q-187 0 -268 -70t-81 -204zM657 76q187 0 268 70t81 204q0 157 -100 221q-21 14 -36 -8l-308 -450q-8 -13 -5.5 -22.5t15.5 -10.5q35 -4 85 -4z" />
    <glyph glyph-name="ugrave" unicode="&#xf9;" horiz-adv-x="1404" 
d="M571 960h171q21 0 31 -18l72 -125q8 -13 3 -22t-21 -9h-44q-17 0 -33 10l-189 132q-15 11 -12 21.5t22 10.5zM1352 596h-98q-33 0 -45.5 -12t-12.5 -50v-192q0 -189 -113 -279.5t-376 -90.5q-264 0 -381.5 91.5t-117.5 278.5v192q0 38 -12.5 50t-45.5 12h-98
q-26 0 -26 26v52q0 26 26 26h552q26 0 26 -26v-52q0 -26 -26 -26h-98q-33 0 -45.5 -12t-12.5 -50v-174q0 -143 67 -213.5t232 -70.5q164 0 231.5 73t67.5 211v174q0 38 -12.5 50t-45.5 12h-98q-26 0 -26 26v52q0 26 26 26h462q26 0 26 -26v-52q0 -26 -26 -26z" />
    <glyph glyph-name="uacute" unicode="&#xfa;" horiz-adv-x="1404" 
d="M769 960h171q19 0 22 -10.5t-12 -21.5l-189 -132q-16 -10 -33 -10h-44q-16 0 -21 9t3 22l72 125q10 18 31 18zM1352 596h-98q-33 0 -45.5 -12t-12.5 -50v-192q0 -189 -113 -279.5t-376 -90.5q-264 0 -381.5 91.5t-117.5 278.5v192q0 38 -12.5 50t-45.5 12h-98
q-26 0 -26 26v52q0 26 26 26h552q26 0 26 -26v-52q0 -26 -26 -26h-98q-33 0 -45.5 -12t-12.5 -50v-174q0 -143 67 -213.5t232 -70.5q164 0 231.5 73t67.5 211v174q0 38 -12.5 50t-45.5 12h-98q-26 0 -26 26v52q0 26 26 26h462q26 0 26 -26v-52q0 -26 -26 -26z" />
    <glyph glyph-name="ucircumflex" unicode="&#xfb;" horiz-adv-x="1404" 
d="M655 961l-139 -139q-12 -12 -8.5 -22t19.5 -10h26q17 0 32 7l151 74q18 8 36 0l151 -74q15 -7 32 -7h24q17 0 21 10t-8 22l-139 139q-13 13 -32 13h-134q-19 0 -32 -13zM1352 596h-98q-33 0 -45.5 -12t-12.5 -50v-192q0 -189 -113 -279.5t-376 -90.5q-264 0 -381.5 91.5
t-117.5 278.5v192q0 38 -12.5 50t-45.5 12h-98q-26 0 -26 26v52q0 26 26 26h552q26 0 26 -26v-52q0 -26 -26 -26h-98q-33 0 -45.5 -12t-12.5 -50v-174q0 -143 67 -213.5t232 -70.5q164 0 231.5 73t67.5 211v174q0 38 -12.5 50t-45.5 12h-98q-26 0 -26 26v52q0 26 26 26h462
q26 0 26 -26v-52q0 -26 -26 -26z" />
    <glyph glyph-name="udieresis" unicode="&#xfc;" horiz-adv-x="1404" 
d="M625 780q-107 0 -107 87q0 86 107 86q106 0 106 -86q0 -87 -106 -87zM885 780q-107 0 -107 87q0 86 107 86q106 0 106 -86q0 -87 -106 -87zM1352 596h-98q-33 0 -45.5 -12t-12.5 -50v-192q0 -189 -113 -279.5t-376 -90.5q-264 0 -381.5 91.5t-117.5 278.5v192
q0 38 -12.5 50t-45.5 12h-98q-26 0 -26 26v52q0 26 26 26h552q26 0 26 -26v-52q0 -26 -26 -26h-98q-33 0 -45.5 -12t-12.5 -50v-174q0 -143 67 -213.5t232 -70.5q164 0 231.5 73t67.5 211v174q0 38 -12.5 50t-45.5 12h-98q-26 0 -26 26v52q0 26 26 26h462q26 0 26 -26v-52
q0 -26 -26 -26z" />
    <glyph glyph-name="yacute" unicode="&#xfd;" horiz-adv-x="1260" 
d="M705 960h171q19 0 22 -10.5t-12 -21.5l-189 -132q-16 -10 -33 -10h-44q-16 0 -21 9t3 22l72 125q10 18 31 18zM1079 545l-299 -278q-14 -13 -14 -32v-71q0 -36 14 -48t46 -12h102q26 0 26 -26v-52q0 -26 -26 -26h-564q-26 0 -26 26v52q0 26 26 26h102q32 0 46 12t14 48
v59q0 19 -14 32l-321 290q-33 30 -68.5 40.5t-88.5 10.5q-24 0 -24 26v52q0 26 26 26h530q26 0 26 -26v-52q0 -26 -26 -26h-66q-27 0 -33.5 -16t13.5 -33l197 -175q18 -15 36 1l193 174q20 17 13.5 33t-33.5 16h-66q-26 0 -26 26v52q0 26 26 26h404q26 0 26 -26v-52
q0 -15 -5 -20.5t-19 -5.5q-52 0 -83 -10t-64 -41z" />
    <glyph glyph-name="thorn" unicode="&#xfe;" horiz-adv-x="1313" 
d="M503 585h375q201 0 303.5 -50.5t102.5 -142.5t-102.5 -142.5t-303.5 -50.5h-375q-26 0 -26 -17v-18q0 -36 14 -48t46 -12h102q26 0 26 -26v-52q0 -26 -26 -26h-564q-26 0 -26 26v52q0 26 26 26h102q32 0 46 12t14 48v372q0 36 -14 48t-46 12h-102q-26 0 -26 26v52
q0 26 26 26h376q26 0 26 -26v-63q0 -26 26 -26zM503 303h341q105 0 149.5 18.5t44.5 70.5t-44.5 70.5t-149.5 18.5h-341q-26 0 -26 -26v-126q0 -26 26 -26z" />
    <glyph glyph-name="ydieresis" unicode="&#xff;" horiz-adv-x="1260" 
d="M561 780q-107 0 -107 87q0 86 107 86q106 0 106 -86q0 -87 -106 -87zM821 780q-107 0 -107 87q0 86 107 86q106 0 106 -86q0 -87 -106 -87zM1079 545l-299 -278q-14 -13 -14 -32v-71q0 -36 14 -48t46 -12h102q26 0 26 -26v-52q0 -26 -26 -26h-564q-26 0 -26 26v52
q0 26 26 26h102q32 0 46 12t14 48v59q0 19 -14 32l-321 290q-33 30 -68.5 40.5t-88.5 10.5q-24 0 -24 26v52q0 26 26 26h530q26 0 26 -26v-52q0 -26 -26 -26h-66q-27 0 -33.5 -16t13.5 -33l197 -175q18 -15 36 1l193 174q20 17 13.5 33t-33.5 16h-66q-26 0 -26 26v52
q0 26 26 26h404q26 0 26 -26v-52q0 -15 -5 -20.5t-19 -5.5q-52 0 -83 -10t-64 -41z" />
    <glyph glyph-name="Amacron" unicode="&#x100;" 
d="M423 818v58q0 26 26 26h424q26 0 26 -26v-58q0 -26 -26 -26h-424q-26 0 -26 26zM1353 104h17q17 0 17 -26v-52q0 -26 -26 -26h-520q-26 0 -26 26v52q0 26 26 26h79q31 0 39.5 18t-9.5 43l-26 36q-13 16 -32 16h-488q-19 0 -31 -16l-27 -36q-19 -25 -10 -43t40 -18h83
q26 0 26 -26v-52q0 -26 -26 -26h-419q-26 0 -26 26v52q0 26 17 26h17q49 0 76.5 13.5t57.5 52.5l277 365q20 25 11.5 43t-41.5 18h-50q-26 0 -26 26v52q0 26 26 26h430q20 0 32 -16l378 -514q28 -39 56 -52.5t78 -13.5zM501 321h295q16 0 21 9.5t-5 22.5l-144 196
q-18 25 -36 0l-146 -196q-10 -13 -5.5 -22.5t20.5 -9.5z" />
    <glyph glyph-name="amacron" unicode="&#x101;" 
d="M423 818v58q0 26 26 26h424q26 0 26 -26v-58q0 -26 -26 -26h-424q-26 0 -26 26zM1353 104h17q17 0 17 -26v-52q0 -26 -26 -26h-520q-26 0 -26 26v52q0 26 26 26h79q31 0 39.5 18t-9.5 43l-26 36q-13 16 -32 16h-488q-19 0 -31 -16l-27 -36q-19 -25 -10 -43t40 -18h83
q26 0 26 -26v-52q0 -26 -26 -26h-419q-26 0 -26 26v52q0 26 17 26h17q49 0 76.5 13.5t57.5 52.5l277 365q20 25 11.5 43t-41.5 18h-50q-26 0 -26 26v52q0 26 26 26h430q20 0 32 -16l378 -514q28 -39 56 -52.5t78 -13.5zM501 321h295q16 0 21 9.5t-5 22.5l-144 196
q-18 25 -36 0l-146 -196q-10 -13 -5.5 -22.5t20.5 -9.5z" />
    <glyph glyph-name="Abreve" unicode="&#x102;" 
d="M817 950h21q28 0 25 -26q-3 -25 -13 -48t-30.5 -47t-60.5 -38.5t-94 -14.5t-94 14.5t-60.5 38.5t-30.5 47t-13 48q-3 26 25 26h21q18 0 29 -20q30 -54 123 -54t123 54q11 20 29 20zM1353 104h17q17 0 17 -26v-52q0 -26 -26 -26h-520q-26 0 -26 26v52q0 26 26 26h79
q31 0 39.5 18t-9.5 43l-26 36q-13 16 -32 16h-488q-19 0 -31 -16l-27 -36q-19 -25 -10 -43t40 -18h83q26 0 26 -26v-52q0 -26 -26 -26h-419q-26 0 -26 26v52q0 26 17 26h17q49 0 76.5 13.5t57.5 52.5l277 365q20 25 11.5 43t-41.5 18h-50q-26 0 -26 26v52q0 26 26 26h430
q20 0 32 -16l378 -514q28 -39 56 -52.5t78 -13.5zM501 321h295q16 0 21 9.5t-5 22.5l-144 196q-18 25 -36 0l-146 -196q-10 -13 -5.5 -22.5t20.5 -9.5z" />
    <glyph glyph-name="abreve" unicode="&#x103;" 
d="M817 950h21q28 0 25 -26q-3 -25 -13 -48t-30.5 -47t-60.5 -38.5t-94 -14.5t-94 14.5t-60.5 38.5t-30.5 47t-13 48q-3 26 25 26h21q18 0 29 -20q30 -54 123 -54t123 54q11 20 29 20zM1353 104h17q17 0 17 -26v-52q0 -26 -26 -26h-520q-26 0 -26 26v52q0 26 26 26h79
q31 0 39.5 18t-9.5 43l-26 36q-13 16 -32 16h-488q-19 0 -31 -16l-27 -36q-19 -25 -10 -43t40 -18h83q26 0 26 -26v-52q0 -26 -26 -26h-419q-26 0 -26 26v52q0 26 17 26h17q49 0 76.5 13.5t57.5 52.5l277 365q20 25 11.5 43t-41.5 18h-50q-26 0 -26 26v52q0 26 26 26h430
q20 0 32 -16l378 -514q28 -39 56 -52.5t78 -13.5zM501 321h295q16 0 21 9.5t-5 22.5l-144 196q-18 25 -36 0l-146 -196q-10 -13 -5.5 -22.5t20.5 -9.5z" />
    <glyph glyph-name="Aogonek" unicode="&#x104;" 
d="M1413 -165q9 -16 -4 -31q-48 -61 -145 -61q-70 0 -104.5 30t-34.5 76q0 71 78 124q16 11 14 19t-21 8h-355q-26 0 -26 26v52q0 26 26 26h79q31 0 39.5 18t-9.5 43l-26 36q-13 16 -32 16h-487q-20 0 -32 -16l-27 -36q-19 -25 -10 -43t40 -18h83q26 0 26 -26v-52
q0 -26 -26 -26h-419q-26 0 -26 26v52q0 26 17 26h17q49 0 76.5 13.5t57.5 52.5l277 365q20 25 11.5 43t-41.5 18h-50q-26 0 -26 26v52q0 26 26 26h430q20 0 32 -16l378 -514q28 -39 56 -52.5t78 -13.5h8q26 0 26 -26v-52q0 -26 -25 -26h-8q-19 0 -33 -10q-68 -50 -68 -110
q0 -57 73 -57q34 0 56 12q23 13 31 0zM813 353l-145 196q-18 25 -36 0l-146 -196q-10 -13 -5 -22.5t21 -9.5h295q16 0 21 9.5t-5 22.5z" />
    <glyph glyph-name="aogonek" unicode="&#x105;" 
d="M1413 -165q9 -16 -4 -31q-48 -61 -145 -61q-70 0 -104.5 30t-34.5 76q0 71 78 124q16 11 14 19t-21 8h-355q-26 0 -26 26v52q0 26 26 26h79q31 0 39.5 18t-9.5 43l-26 36q-13 16 -32 16h-487q-20 0 -32 -16l-27 -36q-19 -25 -10 -43t40 -18h83q26 0 26 -26v-52
q0 -26 -26 -26h-419q-26 0 -26 26v52q0 26 17 26h17q49 0 76.5 13.5t57.5 52.5l277 365q20 25 11.5 43t-41.5 18h-50q-26 0 -26 26v52q0 26 26 26h430q20 0 32 -16l378 -514q28 -39 56 -52.5t78 -13.5h8q26 0 26 -26v-52q0 -26 -25 -26h-8q-19 0 -33 -10q-68 -50 -68 -110
q0 -57 73 -57q34 0 56 12q23 13 31 0zM813 353l-145 196q-18 25 -36 0l-146 -196q-10 -13 -5 -22.5t21 -9.5h295q16 0 21 9.5t-5 22.5z" />
    <glyph glyph-name="Cacute" unicode="&#x106;" horiz-adv-x="1205" 
d="M662 960h171q19 0 22 -10.5t-12 -21.5l-189 -132q-16 -10 -33 -10h-44q-16 0 -21 9t3 22l72 125q10 18 31 18zM1126 446h-112q-21 0 -30 20q-38 82 -115 120t-206 38q-355 0 -355 -274t355 -274q277 0 334 165q9 22 30 22h104q14 0 20 -8t2 -21q-45 -135 -174 -198.5
t-352 -63.5q-277 0 -431 94.5t-154 283.5q0 126 74 212.5t200.5 126t299.5 39.5q222 0 338 -73q23 -14 36 8l11 19q11 18 32 18h93q26 0 26 -26v-202q0 -26 -26 -26z" />
    <glyph glyph-name="cacute" unicode="&#x107;" horiz-adv-x="1205" 
d="M662 960h171q19 0 22 -10.5t-12 -21.5l-189 -132q-16 -10 -33 -10h-44q-16 0 -21 9t3 22l72 125q10 18 31 18zM1126 446h-112q-21 0 -30 20q-38 82 -115 120t-206 38q-355 0 -355 -274t355 -274q277 0 334 165q9 22 30 22h104q14 0 20 -8t2 -21q-45 -135 -174 -198.5
t-352 -63.5q-277 0 -431 94.5t-154 283.5q0 126 74 212.5t200.5 126t299.5 39.5q222 0 338 -73q23 -14 36 8l11 19q11 18 32 18h93q26 0 26 -26v-202q0 -26 -26 -26z" />
    <glyph glyph-name="Cdotaccent" unicode="&#x10a;" horiz-adv-x="1205" 
d="M647 780q-107 0 -107 87q0 86 107 86q106 0 106 -86q0 -87 -106 -87zM1126 446h-112q-21 0 -30 20q-38 82 -115 120t-206 38q-355 0 -355 -274t355 -274q277 0 334 165q9 22 30 22h104q14 0 20 -8t2 -21q-45 -135 -174 -198.5t-352 -63.5q-277 0 -431 94.5t-154 283.5
q0 126 74 212.5t200.5 126t299.5 39.5q222 0 338 -73q23 -14 36 8l11 19q11 18 32 18h93q26 0 26 -26v-202q0 -26 -26 -26z" />
    <glyph glyph-name="cdotaccent" unicode="&#x10b;" horiz-adv-x="1205" 
d="M647 780q-107 0 -107 87q0 86 107 86q106 0 106 -86q0 -87 -106 -87zM1126 446h-112q-21 0 -30 20q-38 82 -115 120t-206 38q-355 0 -355 -274t355 -274q277 0 334 165q9 22 30 22h104q14 0 20 -8t2 -21q-45 -135 -174 -198.5t-352 -63.5q-277 0 -431 94.5t-154 283.5
q0 126 74 212.5t200.5 126t299.5 39.5q222 0 338 -73q23 -14 36 8l11 19q11 18 32 18h93q26 0 26 -26v-202q0 -26 -26 -26z" />
    <glyph glyph-name="Ccaron" unicode="&#x10c;" horiz-adv-x="1205" 
d="M446 974h-26q-16 0 -19.5 -10t8.5 -22l139 -139q13 -13 32 -13h134q19 0 32 13l139 139q12 12 8.5 22t-19.5 10h-26q-17 0 -32 -7l-151 -74q-18 -8 -36 0l-151 74q-15 7 -32 7zM1126 446h-112q-21 0 -30 20q-38 82 -115 120t-206 38q-355 0 -355 -274t355 -274
q277 0 334 165q9 22 30 22h104q14 0 20 -8t2 -21q-45 -135 -174 -198.5t-352 -63.5q-277 0 -431 94.5t-154 283.5q0 126 74 212.5t200.5 126t299.5 39.5q222 0 338 -73q23 -14 36 8l11 19q11 18 32 18h93q26 0 26 -26v-202q0 -26 -26 -26z" />
    <glyph glyph-name="ccaron" unicode="&#x10d;" horiz-adv-x="1205" 
d="M446 974h-26q-16 0 -19.5 -10t8.5 -22l139 -139q13 -13 32 -13h134q19 0 32 13l139 139q12 12 8.5 22t-19.5 10h-26q-17 0 -32 -7l-151 -74q-18 -8 -36 0l-151 74q-15 7 -32 7zM1126 446h-112q-21 0 -30 20q-38 82 -115 120t-206 38q-355 0 -355 -274t355 -274
q277 0 334 165q9 22 30 22h104q14 0 20 -8t2 -21q-45 -135 -174 -198.5t-352 -63.5q-277 0 -431 94.5t-154 283.5q0 126 74 212.5t200.5 126t299.5 39.5q222 0 338 -73q23 -14 36 8l11 19q11 18 32 18h93q26 0 26 -26v-202q0 -26 -26 -26z" />
    <glyph glyph-name="Dcaron" unicode="&#x10e;" horiz-adv-x="1376" 
d="M523 974h-26q-16 0 -19.5 -10t8.5 -22l139 -139q13 -13 32 -13h134q19 0 32 13l139 139q12 12 8.5 22t-19.5 10h-26q-17 0 -32 -7l-151 -74q-18 -8 -36 0l-151 74q-15 7 -32 7zM75 700h629q320 0 475 -82.5t155 -262.5q0 -187 -154.5 -271t-475.5 -84h-629q-26 0 -26 26
v52q0 26 26 26h102q32 0 46 12t14 48v372q0 36 -13 48t-47 12h-102q-26 0 -26 26v52q0 26 26 26zM1068 355q0 126 -86 183.5t-288 57.5h-191q-26 0 -26 -26v-440q0 -26 26 -26h191q203 0 288.5 59t85.5 192z" />
    <glyph glyph-name="dcaron" unicode="&#x10f;" horiz-adv-x="1376" 
d="M523 974h-26q-16 0 -19.5 -10t8.5 -22l139 -139q13 -13 32 -13h134q19 0 32 13l139 139q12 12 8.5 22t-19.5 10h-26q-17 0 -32 -7l-151 -74q-18 -8 -36 0l-151 74q-15 7 -32 7zM75 700h629q320 0 475 -82.5t155 -262.5q0 -187 -154.5 -271t-475.5 -84h-629q-26 0 -26 26
v52q0 26 26 26h102q32 0 46 12t14 48v372q0 36 -13 48t-47 12h-102q-26 0 -26 26v52q0 26 26 26zM1068 355q0 126 -86 183.5t-288 57.5h-191q-26 0 -26 -26v-440q0 -26 26 -26h191q203 0 288.5 59t85.5 192z" />
    <glyph glyph-name="Dcroat" unicode="&#x110;" horiz-adv-x="1376" 
d="M75 700h629q320 0 475 -82.5t155 -262.5q0 -187 -154.5 -271t-475.5 -84h-629q-26 0 -26 26v52q0 26 26 26h102q32 0 46 12t14 48v125q0 26 -26 26h-136q-26 0 -26 26v46q0 26 26 26h136q26 0 26 26v97q0 36 -13 48t-47 12h-102q-26 0 -26 26v52q0 26 26 26zM503 104h191
q203 0 288.5 59t85.5 192q0 126 -86 183.5t-288 57.5h-191q-26 0 -26 -26v-131q0 -26 26 -26h154q26 0 26 -26v-46q0 -26 -26 -26h-154q-26 0 -26 -26v-159q0 -26 26 -26z" />
    <glyph glyph-name="dcroat" unicode="&#x111;" horiz-adv-x="1376" 
d="M75 700h629q320 0 475 -82.5t155 -262.5q0 -187 -154.5 -271t-475.5 -84h-629q-26 0 -26 26v52q0 26 26 26h102q32 0 46 12t14 48v125q0 26 -26 26h-136q-26 0 -26 26v46q0 26 26 26h136q26 0 26 26v97q0 36 -13 48t-47 12h-102q-26 0 -26 26v52q0 26 26 26zM503 104h191
q203 0 288.5 59t85.5 192q0 126 -86 183.5t-288 57.5h-191q-26 0 -26 -26v-131q0 -26 26 -26h154q26 0 26 -26v-46q0 -26 -26 -26h-154q-26 0 -26 -26v-159q0 -26 26 -26z" />
    <glyph glyph-name="Emacron" unicode="&#x112;" horiz-adv-x="1304" 
d="M472 818v58q0 26 26 26h424q26 0 26 -26v-58q0 -26 -26 -26h-424q-26 0 -26 26zM932 596h-429q-26 0 -26 -26v-137q0 -26 26 -26h184q65 0 87.5 19.5t22.5 70.5q0 23 26 23h68q26 0 26 -26v-278q0 -26 -26 -26h-68q-26 0 -26 23q0 51 -22 70.5t-88 19.5h-184
q-26 0 -26 -26v-147q0 -26 26 -26h439q86 0 118.5 38t41.5 129q2 25 27 25h79q26 0 26 -26v-244q0 -26 -26 -26h-1133q-26 0 -26 26v52q0 26 26 26h102q32 0 46 12t14 48v372q0 36 -14 48t-46 12h-102q-26 0 -26 26v52q0 26 26 26h1123q26 0 26 -26v-214q0 -26 -26 -26h-79
q-25 0 -27 25q-9 79 -41 108t-119 29z" />
    <glyph glyph-name="emacron" unicode="&#x113;" horiz-adv-x="1304" 
d="M472 818v58q0 26 26 26h424q26 0 26 -26v-58q0 -26 -26 -26h-424q-26 0 -26 26zM932 596h-429q-26 0 -26 -26v-137q0 -26 26 -26h184q65 0 87.5 19.5t22.5 70.5q0 23 26 23h68q26 0 26 -26v-278q0 -26 -26 -26h-68q-26 0 -26 23q0 51 -22 70.5t-88 19.5h-184
q-26 0 -26 -26v-147q0 -26 26 -26h439q86 0 118.5 38t41.5 129q2 25 27 25h79q26 0 26 -26v-244q0 -26 -26 -26h-1133q-26 0 -26 26v52q0 26 26 26h102q32 0 46 12t14 48v372q0 36 -14 48t-46 12h-102q-26 0 -26 26v52q0 26 26 26h1123q26 0 26 -26v-214q0 -26 -26 -26h-79
q-25 0 -27 25q-9 79 -41 108t-119 29z" />
    <glyph glyph-name="Edotaccent" unicode="&#x116;" horiz-adv-x="1304" 
d="M714 780q-107 0 -107 87q0 86 107 86q106 0 106 -86q0 -87 -106 -87zM932 596h-429q-26 0 -26 -26v-137q0 -26 26 -26h184q65 0 87.5 19.5t22.5 70.5q0 23 26 23h68q26 0 26 -26v-278q0 -26 -26 -26h-68q-26 0 -26 23q0 51 -22 70.5t-88 19.5h-184q-26 0 -26 -26v-147
q0 -26 26 -26h439q86 0 118.5 38t41.5 129q2 25 27 25h79q26 0 26 -26v-244q0 -26 -26 -26h-1133q-26 0 -26 26v52q0 26 26 26h102q32 0 46 12t14 48v372q0 36 -14 48t-46 12h-102q-26 0 -26 26v52q0 26 26 26h1123q26 0 26 -26v-214q0 -26 -26 -26h-79q-25 0 -27 25
q-9 79 -41 108t-119 29z" />
    <glyph glyph-name="edotaccent" unicode="&#x117;" horiz-adv-x="1304" 
d="M714 780q-107 0 -107 87q0 86 107 86q106 0 106 -86q0 -87 -106 -87zM932 596h-429q-26 0 -26 -26v-137q0 -26 26 -26h184q65 0 87.5 19.5t22.5 70.5q0 23 26 23h68q26 0 26 -26v-278q0 -26 -26 -26h-68q-26 0 -26 23q0 51 -22 70.5t-88 19.5h-184q-26 0 -26 -26v-147
q0 -26 26 -26h439q86 0 118.5 38t41.5 129q2 25 27 25h79q26 0 26 -26v-244q0 -26 -26 -26h-1133q-26 0 -26 26v52q0 26 26 26h102q32 0 46 12t14 48v372q0 36 -14 48t-46 12h-102q-26 0 -26 26v52q0 26 26 26h1123q26 0 26 -26v-214q0 -26 -26 -26h-79q-25 0 -27 25
q-9 79 -41 108t-119 29z" />
    <glyph glyph-name="Eogonek" unicode="&#x118;" horiz-adv-x="1304" 
d="M1311 -165q9 -16 -4 -31q-48 -61 -145 -61q-70 0 -104.5 30t-34.5 76q0 71 78 124q16 11 14 19t-21 8h-1019q-26 0 -26 26v52q0 26 26 26h102q32 0 46 12t14 48v372q0 36 -14 48t-46 12h-102q-26 0 -26 26v52q0 26 26 26h1123q26 0 26 -26v-214q0 -26 -26 -26h-79
q-25 0 -27 25q-9 79 -41 108t-119 29h-429q-26 0 -26 -26v-137q0 -26 26 -26h184q65 0 87.5 19.5t22.5 70.5q0 23 26 23h68q26 0 26 -26v-278q0 -26 -26 -26h-68q-26 0 -26 23q0 51 -22 70.5t-88 19.5h-184q-26 0 -26 -26v-147q0 -26 26 -26h439q86 0 118.5 38t41.5 129
q2 25 27 25h79q26 0 26 -26v-250q0 -19 -17 -32q-66 -50 -66 -108q0 -57 73 -57q34 0 56 12q23 13 31 0z" />
    <glyph glyph-name="eogonek" unicode="&#x119;" horiz-adv-x="1304" 
d="M1311 -165q9 -16 -4 -31q-48 -61 -145 -61q-70 0 -104.5 30t-34.5 76q0 71 78 124q16 11 14 19t-21 8h-1019q-26 0 -26 26v52q0 26 26 26h102q32 0 46 12t14 48v372q0 36 -14 48t-46 12h-102q-26 0 -26 26v52q0 26 26 26h1123q26 0 26 -26v-214q0 -26 -26 -26h-79
q-25 0 -27 25q-9 79 -41 108t-119 29h-429q-26 0 -26 -26v-137q0 -26 26 -26h184q65 0 87.5 19.5t22.5 70.5q0 23 26 23h68q26 0 26 -26v-278q0 -26 -26 -26h-68q-26 0 -26 23q0 51 -22 70.5t-88 19.5h-184q-26 0 -26 -26v-147q0 -26 26 -26h439q86 0 118.5 38t41.5 129
q2 25 27 25h79q26 0 26 -26v-250q0 -19 -17 -32q-66 -50 -66 -108q0 -57 73 -57q34 0 56 12q23 13 31 0z" />
    <glyph glyph-name="Ecaron" unicode="&#x11a;" horiz-adv-x="1304" 
d="M513 974h-26q-16 0 -19.5 -10t8.5 -22l139 -139q13 -13 32 -13h134q19 0 32 13l139 139q12 12 8.5 22t-19.5 10h-26q-17 0 -32 -7l-151 -74q-18 -8 -36 0l-151 74q-15 7 -32 7zM932 596h-429q-26 0 -26 -26v-137q0 -26 26 -26h184q65 0 87.5 19.5t22.5 70.5q0 23 26 23
h68q26 0 26 -26v-278q0 -26 -26 -26h-68q-26 0 -26 23q0 51 -22 70.5t-88 19.5h-184q-26 0 -26 -26v-147q0 -26 26 -26h439q86 0 118.5 38t41.5 129q2 25 27 25h79q26 0 26 -26v-244q0 -26 -26 -26h-1133q-26 0 -26 26v52q0 26 26 26h102q32 0 46 12t14 48v372q0 36 -14 48
t-46 12h-102q-26 0 -26 26v52q0 26 26 26h1123q26 0 26 -26v-214q0 -26 -26 -26h-79q-25 0 -27 25q-9 79 -41 108t-119 29z" />
    <glyph glyph-name="ecaron" unicode="&#x11b;" horiz-adv-x="1304" 
d="M513 974h-26q-16 0 -19.5 -10t8.5 -22l139 -139q13 -13 32 -13h134q19 0 32 13l139 139q12 12 8.5 22t-19.5 10h-26q-17 0 -32 -7l-151 -74q-18 -8 -36 0l-151 74q-15 7 -32 7zM932 596h-429q-26 0 -26 -26v-137q0 -26 26 -26h184q65 0 87.5 19.5t22.5 70.5q0 23 26 23
h68q26 0 26 -26v-278q0 -26 -26 -26h-68q-26 0 -26 23q0 51 -22 70.5t-88 19.5h-184q-26 0 -26 -26v-147q0 -26 26 -26h439q86 0 118.5 38t41.5 129q2 25 27 25h79q26 0 26 -26v-244q0 -26 -26 -26h-1133q-26 0 -26 26v52q0 26 26 26h102q32 0 46 12t14 48v372q0 36 -14 48
t-46 12h-102q-26 0 -26 26v52q0 26 26 26h1123q26 0 26 -26v-214q0 -26 -26 -26h-79q-25 0 -27 25q-9 79 -41 108t-119 29z" />
    <glyph glyph-name="Gbreve" unicode="&#x11e;" horiz-adv-x="1337" 
d="M805 950h21q28 0 25 -26q-3 -25 -13 -48t-30.5 -47t-60.5 -38.5t-94 -14.5t-94 14.5t-60.5 38.5t-30.5 47t-13 48q-3 26 25 26h21q18 0 29 -20q30 -54 123 -54t123 54q11 20 29 20zM795 386h490q26 0 26 -26v-58q0 -26 -25 -26h-25q-37 0 -48.5 -11t-11.5 -49v-190
q0 -26 -26 -26h-89q-23 0 -29 22l-14 48q-10 31 -34 10q-123 -108 -369 -108q-285 0 -441.5 94t-156.5 284t156.5 284t441.5 94q231 0 346 -73q23 -14 36 8l11 19q11 18 32 18h93q26 0 26 -26v-201q0 -26 -26 -26h-112q-21 0 -30 20q-76 157 -348 157q-195 0 -277.5 -69.5
t-82.5 -204.5q0 -134 83.5 -204t276.5 -70q147 0 235 54t88 112q0 34 -47 34h-149q-26 0 -26 26v58q0 26 26 26z" />
    <glyph glyph-name="gbreve" unicode="&#x11f;" horiz-adv-x="1337" 
d="M805 950h21q28 0 25 -26q-3 -25 -13 -48t-30.5 -47t-60.5 -38.5t-94 -14.5t-94 14.5t-60.5 38.5t-30.5 47t-13 48q-3 26 25 26h21q18 0 29 -20q30 -54 123 -54t123 54q11 20 29 20zM795 386h490q26 0 26 -26v-58q0 -26 -25 -26h-25q-37 0 -48.5 -11t-11.5 -49v-190
q0 -26 -26 -26h-89q-23 0 -29 22l-14 48q-10 31 -34 10q-123 -108 -369 -108q-285 0 -441.5 94t-156.5 284t156.5 284t441.5 94q231 0 346 -73q23 -14 36 8l11 19q11 18 32 18h93q26 0 26 -26v-201q0 -26 -26 -26h-112q-21 0 -30 20q-76 157 -348 157q-195 0 -277.5 -69.5
t-82.5 -204.5q0 -134 83.5 -204t276.5 -70q147 0 235 54t88 112q0 34 -47 34h-149q-26 0 -26 26v58q0 26 26 26z" />
    <glyph glyph-name="Gdotaccent" unicode="&#x120;" horiz-adv-x="1337" 
d="M653 780q-107 0 -107 87q0 86 107 86q106 0 106 -86q0 -87 -106 -87zM795 386h490q26 0 26 -26v-58q0 -26 -25 -26h-25q-37 0 -48.5 -11t-11.5 -49v-190q0 -26 -26 -26h-89q-23 0 -29 22l-14 48q-10 31 -34 10q-123 -108 -369 -108q-285 0 -441.5 94t-156.5 284
t156.5 284t441.5 94q231 0 346 -73q23 -14 36 8l11 19q11 18 32 18h93q26 0 26 -26v-201q0 -26 -26 -26h-112q-21 0 -30 20q-76 157 -348 157q-195 0 -277.5 -69.5t-82.5 -204.5q0 -134 83.5 -204t276.5 -70q147 0 235 54t88 112q0 34 -47 34h-149q-26 0 -26 26v58
q0 26 26 26z" />
    <glyph glyph-name="gdotaccent" unicode="&#x121;" horiz-adv-x="1337" 
d="M653 780q-107 0 -107 87q0 86 107 86q106 0 106 -86q0 -87 -106 -87zM795 386h490q26 0 26 -26v-58q0 -26 -25 -26h-25q-37 0 -48.5 -11t-11.5 -49v-190q0 -26 -26 -26h-89q-23 0 -29 22l-14 48q-10 31 -34 10q-123 -108 -369 -108q-285 0 -441.5 94t-156.5 284
t156.5 284t441.5 94q231 0 346 -73q23 -14 36 8l11 19q11 18 32 18h93q26 0 26 -26v-201q0 -26 -26 -26h-112q-21 0 -30 20q-76 157 -348 157q-195 0 -277.5 -69.5t-82.5 -204.5q0 -134 83.5 -204t276.5 -70q147 0 235 54t88 112q0 34 -47 34h-149q-26 0 -26 26v58
q0 26 26 26z" />
    <glyph glyph-name="Gcommaaccent" unicode="&#x122;" horiz-adv-x="1337" 
d="M795 386h490q26 0 26 -26v-58q0 -26 -25 -26h-25q-37 0 -48.5 -11t-11.5 -49v-190q0 -26 -26 -26h-89q-23 0 -29 22l-14 48q-10 31 -34 10q-123 -108 -369 -108q-285 0 -441.5 94t-156.5 284t156.5 284t441.5 94q231 0 346 -73q23 -14 36 8l11 19q11 18 32 18h93
q26 0 26 -26v-201q0 -26 -26 -26h-112q-21 0 -30 20q-76 157 -348 157q-195 0 -277.5 -69.5t-82.5 -204.5q0 -134 83.5 -204t276.5 -70q147 0 235 54t88 112q0 34 -47 34h-149q-26 0 -26 26v58q0 26 26 26zM620 -300q-46 0 -73.5 31.5t-27.5 79.5q0 55 36.5 90t93.5 35
q63 0 102 -45t39 -128q0 -98 -53.5 -155.5t-134.5 -76.5q-24 -6 -32 18l-8 23q-8 26 19 32q52 14 81 41.5t35 76.5q1 6 -3 7.5t-8 -4.5q-25 -25 -66 -25z" />
    <glyph glyph-name="gcommaaccent" unicode="&#x123;" horiz-adv-x="1337" 
d="M795 386h490q26 0 26 -26v-58q0 -26 -25 -26h-25q-37 0 -48.5 -11t-11.5 -49v-190q0 -26 -26 -26h-89q-23 0 -29 22l-14 48q-10 31 -34 10q-123 -108 -369 -108q-285 0 -441.5 94t-156.5 284t156.5 284t441.5 94q231 0 346 -73q23 -14 36 8l11 19q11 18 32 18h93
q26 0 26 -26v-201q0 -26 -26 -26h-112q-21 0 -30 20q-76 157 -348 157q-195 0 -277.5 -69.5t-82.5 -204.5q0 -134 83.5 -204t276.5 -70q147 0 235 54t88 112q0 34 -47 34h-149q-26 0 -26 26v58q0 26 26 26zM620 -300q-46 0 -73.5 31.5t-27.5 79.5q0 55 36.5 90t93.5 35
q63 0 102 -45t39 -128q0 -98 -53.5 -155.5t-134.5 -76.5q-24 -6 -32 18l-8 23q-8 26 19 32q52 14 81 41.5t35 76.5q1 6 -3 7.5t-8 -4.5q-25 -25 -66 -25z" />
    <glyph glyph-name="Hbar" unicode="&#x126;" horiz-adv-x="1502" 
d="M1427 596h-102q-32 0 -46 -11t-14 -41q0 -21 26 -21h136q26 0 26 -24t-26 -24h-136q-26 0 -26 -26v-285q0 -36 14 -48t46 -12h102q26 0 26 -26v-52q0 -26 -26 -26h-564q-26 0 -26 26v52q0 26 26 26h102q32 0 46 12t14 48v114q0 26 -26 26h-496q-26 0 -26 -26v-114
q0 -36 14 -48t46 -12h102q26 0 26 -26v-52q0 -26 -26 -26h-564q-26 0 -26 26v52q0 26 26 26h102q32 0 46 12t14 48v285q0 26 -26 26h-136q-26 0 -26 24t26 24h136q26 0 26 21q0 30 -14 41t-46 11h-102q-26 0 -26 26v52q0 26 26 26h564q26 0 26 -26v-52q0 -26 -26 -26h-102
q-32 0 -46 -11t-14 -41q0 -21 26 -21h496q26 0 26 21q0 30 -14 41t-46 11h-102q-26 0 -26 26v52q0 26 26 26h564q26 0 26 -26v-52q0 -26 -26 -26zM999 475h-496q-26 0 -26 -20v-21q0 -26 26 -26h496q26 0 26 26v21q0 12 -6 16t-20 4z" />
    <glyph glyph-name="hbar" unicode="&#x127;" horiz-adv-x="1502" 
d="M1427 596h-102q-32 0 -46 -11t-14 -41q0 -21 26 -21h136q26 0 26 -24t-26 -24h-136q-26 0 -26 -26v-285q0 -36 14 -48t46 -12h102q26 0 26 -26v-52q0 -26 -26 -26h-564q-26 0 -26 26v52q0 26 26 26h102q32 0 46 12t14 48v114q0 26 -26 26h-496q-26 0 -26 -26v-114
q0 -36 14 -48t46 -12h102q26 0 26 -26v-52q0 -26 -26 -26h-564q-26 0 -26 26v52q0 26 26 26h102q32 0 46 12t14 48v285q0 26 -26 26h-136q-26 0 -26 24t26 24h136q26 0 26 21q0 30 -14 41t-46 11h-102q-26 0 -26 26v52q0 26 26 26h564q26 0 26 -26v-52q0 -26 -26 -26h-102
q-32 0 -46 -11t-14 -41q0 -21 26 -21h496q26 0 26 21q0 30 -14 41t-46 11h-102q-26 0 -26 26v52q0 26 26 26h564q26 0 26 -26v-52q0 -26 -26 -26zM999 475h-496q-26 0 -26 -20v-21q0 -26 26 -26h496q26 0 26 26v21q0 12 -6 16t-20 4z" />
    <glyph glyph-name="Imacron" unicode="&#x12a;" horiz-adv-x="714" 
d="M115 818v58q0 26 26 26h424q26 0 26 -26v-58q0 -26 -26 -26h-424q-26 0 -26 26zM477 536v-372q0 -36 14 -48t46 -12h102q26 0 26 -26v-52q0 -26 -26 -26h-564q-26 0 -26 26v52q0 26 26 26h102q32 0 46 12t14 48v372q0 36 -14 48t-46 12h-102q-26 0 -26 26v52q0 26 26 26
h564q26 0 26 -26v-52q0 -26 -26 -26h-102q-32 0 -46 -12t-14 -48z" />
    <glyph glyph-name="imacron" unicode="&#x12b;" horiz-adv-x="714" 
d="M115 818v58q0 26 26 26h424q26 0 26 -26v-58q0 -26 -26 -26h-424q-26 0 -26 26zM477 536v-372q0 -36 14 -48t46 -12h102q26 0 26 -26v-52q0 -26 -26 -26h-564q-26 0 -26 26v52q0 26 26 26h102q32 0 46 12t14 48v372q0 36 -14 48t-46 12h-102q-26 0 -26 26v52q0 26 26 26
h564q26 0 26 -26v-52q0 -26 -26 -26h-102q-32 0 -46 -12t-14 -48z" />
    <glyph glyph-name="Iogonek" unicode="&#x12e;" horiz-adv-x="714" 
d="M639 596h-102q-32 0 -46 -12t-14 -48v-372q0 -36 14 -48t46 -12h102q26 0 26 -26v-52q0 -26 -26 -26h-69q-19 0 -33 -10q-68 -50 -68 -110q0 -57 73 -57q34 0 56 12q23 13 31 0q9 -15 -4 -31q-48 -61 -145 -61q-70 0 -104.5 30t-34.5 76q0 71 78 124q16 11 14 19t-21 8
h-337q-26 0 -26 26v52q0 26 26 26h102q32 0 46 12t14 48v372q0 36 -14 48t-46 12h-102q-26 0 -26 26v52q0 26 26 26h564q26 0 26 -26v-52q0 -26 -26 -26z" />
    <glyph glyph-name="iogonek" unicode="&#x12f;" horiz-adv-x="714" 
d="M639 596h-102q-32 0 -46 -12t-14 -48v-372q0 -36 14 -48t46 -12h102q26 0 26 -26v-52q0 -26 -26 -26h-69q-19 0 -33 -10q-68 -50 -68 -110q0 -57 73 -57q34 0 56 12q23 13 31 0q9 -15 -4 -31q-48 -61 -145 -61q-70 0 -104.5 30t-34.5 76q0 71 78 124q16 11 14 19t-21 8
h-337q-26 0 -26 26v52q0 26 26 26h102q32 0 46 12t14 48v372q0 36 -14 48t-46 12h-102q-26 0 -26 26v52q0 26 26 26h564q26 0 26 -26v-52q0 -26 -26 -26z" />
    <glyph glyph-name="Idotaccent" unicode="&#x130;" horiz-adv-x="714" 
d="M357 780q-107 0 -107 87q0 86 107 86q106 0 106 -86q0 -87 -106 -87zM477 536v-372q0 -36 14 -48t46 -12h102q26 0 26 -26v-52q0 -26 -26 -26h-564q-26 0 -26 26v52q0 26 26 26h102q32 0 46 12t14 48v372q0 36 -14 48t-46 12h-102q-26 0 -26 26v52q0 26 26 26h564
q26 0 26 -26v-52q0 -26 -26 -26h-102q-32 0 -46 -12t-14 -48z" />
    <glyph glyph-name="IJ" unicode="&#x132;" horiz-adv-x="1813" 
d="M477 536v-372q0 -36 14 -48t46 -12h102q26 0 26 -26v-52q0 -26 -26 -26h-564q-26 0 -26 26v52q0 26 26 26h102q32 0 46 12t14 48v372q0 36 -14 48t-46 12h-102q-26 0 -26 26v52q0 26 26 26h564q26 0 26 -26v-52q0 -26 -26 -26h-102q-32 0 -46 -12t-14 -48zM854 225
q-11 8 -14.5 6t2.5 -14q29 -59 102.5 -97t155.5 -38q109 0 186 68.5t77 199.5v186q0 36 -14 48t-46 12h-102q-26 0 -26 26v52q0 26 26 26h560q26 0 26 -26v-52q0 -26 -26 -26h-98q-32 0 -46 -12t-14 -48v-224q0 -83 -37.5 -149.5t-100 -107t-140 -62t-161.5 -21.5
q-113 0 -214.5 36t-167 107t-65.5 160q0 87 57 137t131 50q61 0 103.5 -35.5t42.5 -98.5q0 -41 -20 -71.5t-50 -43t-64.5 -10t-62.5 21.5z" />
    <glyph glyph-name="ij" unicode="&#x133;" horiz-adv-x="1813" 
d="M477 536v-372q0 -36 14 -48t46 -12h102q26 0 26 -26v-52q0 -26 -26 -26h-564q-26 0 -26 26v52q0 26 26 26h102q32 0 46 12t14 48v372q0 36 -14 48t-46 12h-102q-26 0 -26 26v52q0 26 26 26h564q26 0 26 -26v-52q0 -26 -26 -26h-102q-32 0 -46 -12t-14 -48zM854 225
q-11 8 -14.5 6t2.5 -14q29 -59 102.5 -97t155.5 -38q109 0 186 68.5t77 199.5v186q0 36 -14 48t-46 12h-102q-26 0 -26 26v52q0 26 26 26h560q26 0 26 -26v-52q0 -26 -26 -26h-98q-32 0 -46 -12t-14 -48v-224q0 -83 -37.5 -149.5t-100 -107t-140 -62t-161.5 -21.5
q-113 0 -214.5 36t-167 107t-65.5 160q0 87 57 137t131 50q61 0 103.5 -35.5t42.5 -98.5q0 -41 -20 -71.5t-50 -43t-64.5 -10t-62.5 21.5z" />
    <glyph glyph-name="Kcommaaccent" unicode="&#x136;" horiz-adv-x="1430" 
d="M1428 78v-52q0 -26 -26 -26h-573q-26 0 -26 26v52q0 26 26 26h58q20 0 28 8t3.5 20t-18.5 24l-202 168q-15 14 -35 5l-166 -73q-20 -9 -20 -31v-61q0 -36 14 -48t46 -12h88q26 0 26 -26v-52q0 -26 -26 -26h-550q-26 0 -26 26v52q0 26 26 26h102q32 0 46 12t14 48v372
q0 36 -14 48t-46 12h-102q-26 0 -26 26v52q0 26 26 26h550q26 0 26 -26v-52q0 -26 -26 -26h-88q-32 0 -46 -12t-14 -48v-134q0 -14 8.5 -19.5t21.5 0.5l383 172q21 9 26 19t-2 16t-20 6h-59q-26 0 -26 26v52q0 26 26 26h531q26 0 26 -26v-52q0 -26 -24 -26h-24
q-83 0 -174 -40l-250 -111q-13 -6 -14.5 -16t9.5 -20l287 -241q42 -35 85.5 -49.5t107.5 -14.5h7q26 0 26 -26zM712 -300q-46 0 -73.5 31.5t-27.5 79.5q0 55 36.5 90t93.5 35q63 0 102 -45t39 -128q0 -98 -53.5 -155.5t-134.5 -76.5q-24 -6 -32 18l-8 23q-8 26 19 32
q52 14 81 41.5t35 76.5q1 6 -3 7.5t-8 -4.5q-25 -25 -66 -25z" />
    <glyph glyph-name="kcommaaccent" unicode="&#x137;" horiz-adv-x="1430" 
d="M1428 78v-52q0 -26 -26 -26h-573q-26 0 -26 26v52q0 26 26 26h58q20 0 28 8t3.5 20t-18.5 24l-202 168q-15 14 -35 5l-166 -73q-20 -9 -20 -31v-61q0 -36 14 -48t46 -12h88q26 0 26 -26v-52q0 -26 -26 -26h-550q-26 0 -26 26v52q0 26 26 26h102q32 0 46 12t14 48v372
q0 36 -14 48t-46 12h-102q-26 0 -26 26v52q0 26 26 26h550q26 0 26 -26v-52q0 -26 -26 -26h-88q-32 0 -46 -12t-14 -48v-134q0 -14 8.5 -19.5t21.5 0.5l383 172q21 9 26 19t-2 16t-20 6h-59q-26 0 -26 26v52q0 26 26 26h531q26 0 26 -26v-52q0 -26 -24 -26h-24
q-83 0 -174 -40l-250 -111q-13 -6 -14.5 -16t9.5 -20l287 -241q42 -35 85.5 -49.5t107.5 -14.5h7q26 0 26 -26zM712 -300q-46 0 -73.5 31.5t-27.5 79.5q0 55 36.5 90t93.5 35q63 0 102 -45t39 -128q0 -98 -53.5 -155.5t-134.5 -76.5q-24 -6 -32 18l-8 23q-8 26 19 32
q52 14 81 41.5t35 76.5q1 6 -3 7.5t-8 -4.5q-25 -25 -66 -25z" />
    <glyph glyph-name="Lacute" unicode="&#x139;" horiz-adv-x="1187" 
d="M372 960h171q19 0 22 -10.5t-12 -21.5l-189 -132q-16 -10 -33 -10h-44q-16 0 -21 9t3 22l72 125q10 18 31 18zM1043 316h79q26 0 26 -26v-264q0 -26 -26 -26h-1047q-26 0 -26 26v52q0 26 26 26h102q32 0 46 12t14 48v372q0 36 -14 48t-46 12h-102q-26 0 -26 26v52
q0 26 26 26h564q26 0 26 -26v-52q0 -26 -26 -26h-102q-32 0 -46 -12t-14 -48v-406q0 -26 26 -26h323q102 0 141.5 42t48.5 145q3 25 27 25z" />
    <glyph glyph-name="lacute" unicode="&#x13a;" horiz-adv-x="1187" 
d="M372 960h171q19 0 22 -10.5t-12 -21.5l-189 -132q-16 -10 -33 -10h-44q-16 0 -21 9t3 22l72 125q10 18 31 18zM1043 316h79q26 0 26 -26v-264q0 -26 -26 -26h-1047q-26 0 -26 26v52q0 26 26 26h102q32 0 46 12t14 48v372q0 36 -14 48t-46 12h-102q-26 0 -26 26v52
q0 26 26 26h564q26 0 26 -26v-52q0 -26 -26 -26h-102q-32 0 -46 -12t-14 -48v-406q0 -26 26 -26h323q102 0 141.5 42t48.5 145q3 25 27 25z" />
    <glyph glyph-name="Lcommaaccent" unicode="&#x13b;" horiz-adv-x="1187" 
d="M1043 316h79q26 0 26 -26v-264q0 -26 -26 -26h-1047q-26 0 -26 26v52q0 26 26 26h102q32 0 46 12t14 48v372q0 36 -14 48t-46 12h-102q-26 0 -26 26v52q0 26 26 26h564q26 0 26 -26v-52q0 -26 -26 -26h-102q-32 0 -46 -12t-14 -48v-406q0 -26 26 -26h323q102 0 141.5 42
t48.5 145q3 25 27 25zM596 -300q-46 0 -73.5 31.5t-27.5 79.5q0 55 36.5 90t93.5 35q63 0 102 -45t39 -128q0 -98 -53.5 -155.5t-134.5 -76.5q-24 -6 -32 18l-8 23q-8 26 19 32q52 14 81 41.5t35 76.5q1 6 -3 7.5t-8 -4.5q-25 -25 -66 -25z" />
    <glyph glyph-name="lcommaaccent" unicode="&#x13c;" horiz-adv-x="1187" 
d="M1043 316h79q26 0 26 -26v-264q0 -26 -26 -26h-1047q-26 0 -26 26v52q0 26 26 26h102q32 0 46 12t14 48v372q0 36 -14 48t-46 12h-102q-26 0 -26 26v52q0 26 26 26h564q26 0 26 -26v-52q0 -26 -26 -26h-102q-32 0 -46 -12t-14 -48v-406q0 -26 26 -26h323q102 0 141.5 42
t48.5 145q3 25 27 25zM596 -300q-46 0 -73.5 31.5t-27.5 79.5q0 55 36.5 90t93.5 35q63 0 102 -45t39 -128q0 -98 -53.5 -155.5t-134.5 -76.5q-24 -6 -32 18l-8 23q-8 26 19 32q52 14 81 41.5t35 76.5q1 6 -3 7.5t-8 -4.5q-25 -25 -66 -25z" />
    <glyph glyph-name="Lcaron" unicode="&#x13d;" horiz-adv-x="1187" 
d="M835 478q-46 0 -73.5 31.5t-27.5 79.5q0 55 36.5 90t93.5 35q63 0 102 -45t39 -128q0 -98 -53.5 -155.5t-134.5 -76.5q-24 -6 -32 18l-8 23q-8 26 19 32q52 14 81 41.5t35 76.5q1 6 -3 7.5t-8 -4.5q-25 -25 -66 -25zM1043 316h79q26 0 26 -26v-264q0 -26 -26 -26h-1047
q-26 0 -26 26v52q0 26 26 26h102q32 0 46 12t14 48v372q0 36 -14 48t-46 12h-102q-26 0 -26 26v52q0 26 26 26h564q26 0 26 -26v-52q0 -26 -26 -26h-102q-32 0 -46 -12t-14 -48v-406q0 -26 26 -26h323q102 0 141.5 42t48.5 145q3 25 27 25z" />
    <glyph glyph-name="lcaron" unicode="&#x13e;" horiz-adv-x="1187" 
d="M835 478q-46 0 -73.5 31.5t-27.5 79.5q0 55 36.5 90t93.5 35q63 0 102 -45t39 -128q0 -98 -53.5 -155.5t-134.5 -76.5q-24 -6 -32 18l-8 23q-8 26 19 32q52 14 81 41.5t35 76.5q1 6 -3 7.5t-8 -4.5q-25 -25 -66 -25zM1043 316h79q26 0 26 -26v-264q0 -26 -26 -26h-1047
q-26 0 -26 26v52q0 26 26 26h102q32 0 46 12t14 48v372q0 36 -14 48t-46 12h-102q-26 0 -26 26v52q0 26 26 26h564q26 0 26 -26v-52q0 -26 -26 -26h-102q-32 0 -46 -12t-14 -48v-406q0 -26 26 -26h323q102 0 141.5 42t48.5 145q3 25 27 25z" />
    <glyph glyph-name="Ldot" unicode="&#x13f;" horiz-adv-x="1187" 
d="M1043 316h79q26 0 26 -26v-264q0 -26 -26 -26h-1047q-26 0 -26 26v52q0 26 26 26h102q32 0 46 12t14 48v372q0 36 -14 48t-46 12h-102q-26 0 -26 26v52q0 26 26 26h564q26 0 26 -26v-52q0 -26 -26 -26h-102q-32 0 -46 -12t-14 -48v-406q0 -26 26 -26h323q102 0 141.5 42
t48.5 145q3 25 27 25zM771 279q-58 0 -94.5 34.5t-36.5 86.5q0 51 36.5 85.5t94.5 34.5q57 0 93.5 -34.5t36.5 -85.5q0 -52 -36.5 -86.5t-93.5 -34.5z" />
    <glyph glyph-name="ldot" unicode="&#x140;" horiz-adv-x="1187" 
d="M1043 316h79q26 0 26 -26v-264q0 -26 -26 -26h-1047q-26 0 -26 26v52q0 26 26 26h102q32 0 46 12t14 48v372q0 36 -14 48t-46 12h-102q-26 0 -26 26v52q0 26 26 26h564q26 0 26 -26v-52q0 -26 -26 -26h-102q-32 0 -46 -12t-14 -48v-406q0 -26 26 -26h323q102 0 141.5 42
t48.5 145q3 25 27 25zM771 279q-58 0 -94.5 34.5t-36.5 86.5q0 51 36.5 85.5t94.5 34.5q57 0 93.5 -34.5t36.5 -85.5q0 -52 -36.5 -86.5t-93.5 -34.5z" />
    <glyph glyph-name="Lslash" unicode="&#x141;" horiz-adv-x="1187" 
d="M1043 316h79q26 0 26 -26v-264q0 -26 -26 -26h-1047q-26 0 -26 26v52q0 26 26 26h102q32 0 46 12t14 48v98q0 29 -29 23l-128 -29q-29 -6 -29 23v37q0 23 23 28l140 31q23 5 23 28v133q0 36 -14 48t-46 12h-102q-26 0 -26 26v52q0 26 26 26h564q26 0 26 -26v-52
q0 -26 -26 -26h-102q-32 0 -46 -12t-14 -48v-75q0 -29 29 -23l130 29q29 6 29 -23v-37q0 -23 -23 -28l-142 -31q-23 -5 -23 -28v-190q0 -26 26 -26h323q102 0 141.5 42t48.5 145q3 25 27 25z" />
    <glyph glyph-name="lslash" unicode="&#x142;" horiz-adv-x="1187" 
d="M1043 316h79q26 0 26 -26v-264q0 -26 -26 -26h-1047q-26 0 -26 26v52q0 26 26 26h102q32 0 46 12t14 48v98q0 29 -29 23l-128 -29q-29 -6 -29 23v37q0 23 23 28l140 31q23 5 23 28v133q0 36 -14 48t-46 12h-102q-26 0 -26 26v52q0 26 26 26h564q26 0 26 -26v-52
q0 -26 -26 -26h-102q-32 0 -46 -12t-14 -48v-75q0 -29 29 -23l130 29q29 6 29 -23v-37q0 -23 -23 -28l-142 -31q-23 -5 -23 -28v-190q0 -26 26 -26h323q102 0 141.5 42t48.5 145q3 25 27 25z" />
    <glyph glyph-name="Nacute" unicode="&#x143;" horiz-adv-x="1455" 
d="M747 960h171q19 0 22 -10.5t-12 -21.5l-189 -132q-16 -10 -33 -10h-44q-16 0 -21 9t3 22l72 125q10 18 31 18zM933 701h470q26 0 26 -26v-52q0 -26 -26 -26h-98q-32 0 -46 -12t-14 -48v-511q0 -26 -26 -26h-204q-19 0 -32 12l-564 491q-13 11 -22.5 7t-9.5 -21v-325
q0 -36 14 -48t46 -12h102q26 0 26 -26v-52q0 -26 -26 -26h-474q-26 0 -26 26v52q0 26 26 26h102q32 0 46 12t14 48v372q0 36 -14 48t-46 12h-102q-26 0 -26 26v52q0 26 26 26h444q19 0 32 -12l512 -446q13 -11 22.5 -7t9.5 21v281q0 36 -14 48t-46 12h-102q-26 0 -26 26v52
q0 26 26 26z" />
    <glyph glyph-name="nacute" unicode="&#x144;" horiz-adv-x="1455" 
d="M747 960h171q19 0 22 -10.5t-12 -21.5l-189 -132q-16 -10 -33 -10h-44q-16 0 -21 9t3 22l72 125q10 18 31 18zM933 701h470q26 0 26 -26v-52q0 -26 -26 -26h-98q-32 0 -46 -12t-14 -48v-511q0 -26 -26 -26h-204q-19 0 -32 12l-564 491q-13 11 -22.5 7t-9.5 -21v-325
q0 -36 14 -48t46 -12h102q26 0 26 -26v-52q0 -26 -26 -26h-474q-26 0 -26 26v52q0 26 26 26h102q32 0 46 12t14 48v372q0 36 -14 48t-46 12h-102q-26 0 -26 26v52q0 26 26 26h444q19 0 32 -12l512 -446q13 -11 22.5 -7t9.5 21v281q0 36 -14 48t-46 12h-102q-26 0 -26 26v52
q0 26 26 26z" />
    <glyph glyph-name="Ncommaaccent" unicode="&#x145;" horiz-adv-x="1455" 
d="M933 701h470q26 0 26 -26v-52q0 -26 -26 -26h-98q-32 0 -46 -12t-14 -48v-511q0 -26 -26 -26h-204q-19 0 -32 12l-564 491q-13 11 -22.5 7t-9.5 -21v-325q0 -36 14 -48t46 -12h102q26 0 26 -26v-52q0 -26 -26 -26h-474q-26 0 -26 26v52q0 26 26 26h102q32 0 46 12t14 48
v372q0 36 -14 48t-46 12h-102q-26 0 -26 26v52q0 26 26 26h444q19 0 32 -12l512 -446q13 -11 22.5 -7t9.5 21v281q0 36 -14 48t-46 12h-102q-26 0 -26 26v52q0 26 26 26zM742 -300q-46 0 -73.5 31.5t-27.5 79.5q0 55 36.5 90t93.5 35q63 0 102 -45t39 -128
q0 -98 -53.5 -155.5t-134.5 -76.5q-24 -6 -32 18l-8 23q-8 26 19 32q52 14 81 41.5t35 76.5q1 6 -3 7.5t-8 -4.5q-25 -25 -66 -25z" />
    <glyph glyph-name="ncommaaccent" unicode="&#x146;" horiz-adv-x="1455" 
d="M933 701h470q26 0 26 -26v-52q0 -26 -26 -26h-98q-32 0 -46 -12t-14 -48v-511q0 -26 -26 -26h-204q-19 0 -32 12l-564 491q-13 11 -22.5 7t-9.5 -21v-325q0 -36 14 -48t46 -12h102q26 0 26 -26v-52q0 -26 -26 -26h-474q-26 0 -26 26v52q0 26 26 26h102q32 0 46 12t14 48
v372q0 36 -14 48t-46 12h-102q-26 0 -26 26v52q0 26 26 26h444q19 0 32 -12l512 -446q13 -11 22.5 -7t9.5 21v281q0 36 -14 48t-46 12h-102q-26 0 -26 26v52q0 26 26 26zM742 -300q-46 0 -73.5 31.5t-27.5 79.5q0 55 36.5 90t93.5 35q63 0 102 -45t39 -128
q0 -98 -53.5 -155.5t-134.5 -76.5q-24 -6 -32 18l-8 23q-8 26 19 32q52 14 81 41.5t35 76.5q1 6 -3 7.5t-8 -4.5q-25 -25 -66 -25z" />
    <glyph glyph-name="Ncaron" unicode="&#x147;" horiz-adv-x="1455" 
d="M531 974h-26q-16 0 -19.5 -10t8.5 -22l139 -139q13 -13 32 -13h134q19 0 32 13l139 139q12 12 8.5 22t-19.5 10h-26q-17 0 -32 -7l-151 -74q-18 -8 -36 0l-151 74q-15 7 -32 7zM933 701h470q26 0 26 -26v-52q0 -26 -26 -26h-98q-32 0 -46 -12t-14 -48v-511q0 -26 -26 -26
h-204q-19 0 -32 12l-564 491q-13 11 -22.5 7t-9.5 -21v-325q0 -36 14 -48t46 -12h102q26 0 26 -26v-52q0 -26 -26 -26h-474q-26 0 -26 26v52q0 26 26 26h102q32 0 46 12t14 48v372q0 36 -14 48t-46 12h-102q-26 0 -26 26v52q0 26 26 26h444q19 0 32 -12l512 -446
q13 -11 22.5 -7t9.5 21v281q0 36 -14 48t-46 12h-102q-26 0 -26 26v52q0 26 26 26z" />
    <glyph glyph-name="ncaron" unicode="&#x148;" horiz-adv-x="1455" 
d="M531 974h-26q-16 0 -19.5 -10t8.5 -22l139 -139q13 -13 32 -13h134q19 0 32 13l139 139q12 12 8.5 22t-19.5 10h-26q-17 0 -32 -7l-151 -74q-18 -8 -36 0l-151 74q-15 7 -32 7zM933 701h470q26 0 26 -26v-52q0 -26 -26 -26h-98q-32 0 -46 -12t-14 -48v-511q0 -26 -26 -26
h-204q-19 0 -32 12l-564 491q-13 11 -22.5 7t-9.5 -21v-325q0 -36 14 -48t46 -12h102q26 0 26 -26v-52q0 -26 -26 -26h-474q-26 0 -26 26v52q0 26 26 26h102q32 0 46 12t14 48v372q0 36 -14 48t-46 12h-102q-26 0 -26 26v52q0 26 26 26h444q19 0 32 -12l512 -446
q13 -11 22.5 -7t9.5 21v281q0 36 -14 48t-46 12h-102q-26 0 -26 26v52q0 26 26 26z" />
    <glyph glyph-name="Eng" unicode="&#x14a;" horiz-adv-x="1465" 
d="M1439 675v-52q0 -26 -26 -26h-102q-33 0 -45.5 -12t-12.5 -50v-498q0 -77 -26.5 -137.5t-71 -96t-98.5 -53.5t-114 -18q-120 0 -210 63.5t-90 165.5q0 71 42.5 109.5t99.5 38.5q50 0 86.5 -29.5t36.5 -79.5q0 -41 -26 -67t-61.5 -28t-72.5 11q-13 6 -17 3t3 -15
q25 -43 73 -68t103 -25q54 0 97.5 25.5t65.5 76.5q9 21 -8 35l-638 557q-13 11 -22.5 7t-9.5 -21v-325q0 -38 12.5 -50t45.5 -12h102q26 0 26 -26v-52q0 -26 -26 -26h-480q-26 0 -26 26v52q0 26 26 26h102q33 0 45.5 12t12.5 50v368q0 38 -12.5 50t-45.5 12h-102
q-26 0 -26 26v52q0 26 26 26h440q19 0 32 -12l514 -452q13 -11 22.5 -6.5t9.5 21.5v284q0 38 -12.5 50t-45.5 12h-102q-26 0 -26 26v52q0 26 26 26h480q26 0 26 -26z" />
    <glyph glyph-name="eng" unicode="&#x14b;" horiz-adv-x="1465" 
d="M1439 675v-52q0 -26 -26 -26h-102q-33 0 -45.5 -12t-12.5 -50v-498q0 -77 -26.5 -137.5t-71 -96t-98.5 -53.5t-114 -18q-120 0 -210 63.5t-90 165.5q0 71 42.5 109.5t99.5 38.5q50 0 86.5 -29.5t36.5 -79.5q0 -41 -26 -67t-61.5 -28t-72.5 11q-13 6 -17 3t3 -15
q25 -43 73 -68t103 -25q54 0 97.5 25.5t65.5 76.5q9 21 -8 35l-638 557q-13 11 -22.5 7t-9.5 -21v-325q0 -38 12.5 -50t45.5 -12h102q26 0 26 -26v-52q0 -26 -26 -26h-480q-26 0 -26 26v52q0 26 26 26h102q33 0 45.5 12t12.5 50v368q0 38 -12.5 50t-45.5 12h-102
q-26 0 -26 26v52q0 26 26 26h440q19 0 32 -12l514 -452q13 -11 22.5 -6.5t9.5 21.5v284q0 38 -12.5 50t-45.5 12h-102q-26 0 -26 26v52q0 26 26 26h480q26 0 26 -26z" />
    <glyph glyph-name="Omacron" unicode="&#x14c;" horiz-adv-x="1314" 
d="M415 818v58q0 26 26 26h424q26 0 26 -26v-58q0 -26 -26 -26h-424q-26 0 -26 26zM657 -28q-299 0 -457 93.5t-158 284.5t158 284.5t457 93.5t457 -93.5t158 -284.5t-158 -284.5t-457 -93.5zM308 350q0 -134 81 -204t268 -70t268 70t81 204q0 136 -78 205t-271 69
q-187 0 -268 -70t-81 -204z" />
    <glyph glyph-name="omacron" unicode="&#x14d;" horiz-adv-x="1314" 
d="M415 818v58q0 26 26 26h424q26 0 26 -26v-58q0 -26 -26 -26h-424q-26 0 -26 26zM657 -28q-299 0 -457 93.5t-158 284.5t158 284.5t457 93.5t457 -93.5t158 -284.5t-158 -284.5t-457 -93.5zM308 350q0 -134 81 -204t268 -70t268 70t81 204q0 136 -78 205t-271 69
q-187 0 -268 -70t-81 -204z" />
    <glyph glyph-name="Ohungarumlaut" unicode="&#x150;" horiz-adv-x="1314" 
d="M417 818l124 139q13 14 32 14h120q17 0 21.5 -9.5t-6.5 -22.5l-124 -139q-13 -14 -32 -14h-120q-17 0 -21.5 9.5t6.5 22.5zM670 818l124 139q13 14 32 14h120q17 0 21.5 -9.5t-6.5 -22.5l-124 -139q-13 -14 -32 -14h-120q-17 0 -21.5 9.5t6.5 22.5zM657 -28
q-299 0 -457 93.5t-158 284.5t158 284.5t457 93.5t457 -93.5t158 -284.5t-158 -284.5t-457 -93.5zM308 350q0 -134 81 -204t268 -70t268 70t81 204q0 136 -78 205t-271 69q-187 0 -268 -70t-81 -204z" />
    <glyph glyph-name="ohungarumlaut" unicode="&#x151;" horiz-adv-x="1314" 
d="M417 818l124 139q13 14 32 14h120q17 0 21.5 -9.5t-6.5 -22.5l-124 -139q-13 -14 -32 -14h-120q-17 0 -21.5 9.5t6.5 22.5zM670 818l124 139q13 14 32 14h120q17 0 21.5 -9.5t-6.5 -22.5l-124 -139q-13 -14 -32 -14h-120q-17 0 -21.5 9.5t6.5 22.5zM657 -28
q-299 0 -457 93.5t-158 284.5t158 284.5t457 93.5t457 -93.5t158 -284.5t-158 -284.5t-457 -93.5zM308 350q0 -134 81 -204t268 -70t268 70t81 204q0 136 -78 205t-271 69q-187 0 -268 -70t-81 -204z" />
    <glyph glyph-name="OE" unicode="&#x152;" horiz-adv-x="1999" 
d="M1824 296h79q26 0 26 -26v-244q0 -26 -26 -26h-941q-14 0 -31 -3q-103 -17 -246 -17q-643 0 -643 370t643 370q143 0 246 -17q16 -3 31 -3h931q26 0 26 -26v-214q0 -26 -26 -26h-79q-25 0 -27 25q-9 79 -41 108t-119 29h-429q-26 0 -26 -26v-137q0 -26 26 -26h184
q65 0 87.5 19.5t22.5 70.5q0 23 26 23h68q26 0 26 -26v-278q0 -26 -26 -26h-68q-26 0 -26 23q0 51 -22 70.5t-88 19.5h-184q-26 0 -26 -26v-147q0 -26 26 -26h439q86 0 118.5 38t41.5 129q2 25 27 25zM932 144v412q0 23 -20 30q-77 30 -227 30q-180 0 -278.5 -69.5
t-98.5 -196.5t98.5 -196.5t278.5 -69.5q150 0 227 30q20 7 20 30z" />
    <glyph glyph-name="oe" unicode="&#x153;" horiz-adv-x="1999" 
d="M1824 296h79q26 0 26 -26v-244q0 -26 -26 -26h-941q-14 0 -31 -3q-103 -17 -246 -17q-643 0 -643 370t643 370q143 0 246 -17q16 -3 31 -3h931q26 0 26 -26v-214q0 -26 -26 -26h-79q-25 0 -27 25q-9 79 -41 108t-119 29h-429q-26 0 -26 -26v-137q0 -26 26 -26h184
q65 0 87.5 19.5t22.5 70.5q0 23 26 23h68q26 0 26 -26v-278q0 -26 -26 -26h-68q-26 0 -26 23q0 51 -22 70.5t-88 19.5h-184q-26 0 -26 -26v-147q0 -26 26 -26h439q86 0 118.5 38t41.5 129q2 25 27 25zM932 144v412q0 23 -20 30q-77 30 -227 30q-180 0 -278.5 -69.5
t-98.5 -196.5t98.5 -196.5t278.5 -69.5q150 0 227 30q20 7 20 30z" />
    <glyph glyph-name="Racute" unicode="&#x154;" horiz-adv-x="1337" 
d="M713 960h171q19 0 22 -10.5t-12 -21.5l-189 -132q-16 -10 -33 -10h-44q-16 0 -21 9t3 22l72 125q10 18 31 18zM1214 104h54q26 0 26 -26v-52q0 -26 -26 -26h-320q-20 0 -32 16l-184 244q-12 16 -31 16h-198q-26 0 -26 -26v-86q0 -36 14 -48t46 -12h102q26 0 26 -26v-52
q0 -26 -26 -26h-564q-26 0 -26 26v52q0 26 26 26h102q32 0 46 12t14 48v372q0 36 -14 48t-46 12h-102q-26 0 -26 26v52q0 26 26 26h799q201 0 303.5 -56t102.5 -156q0 -80 -67 -132.5t-198 -70.5q-16 -2 -20.5 -11.5t5.5 -21.5l64 -84q26 -33 60.5 -48.5t89.5 -15.5z
M477 570v-164q0 -26 26 -26h311q103 0 153.5 25t50.5 83t-50.5 83t-153.5 25h-311q-26 0 -26 -26z" />
    <glyph glyph-name="racute" unicode="&#x155;" horiz-adv-x="1337" 
d="M713 960h171q19 0 22 -10.5t-12 -21.5l-189 -132q-16 -10 -33 -10h-44q-16 0 -21 9t3 22l72 125q10 18 31 18zM1214 104h54q26 0 26 -26v-52q0 -26 -26 -26h-320q-20 0 -32 16l-184 244q-12 16 -31 16h-198q-26 0 -26 -26v-86q0 -36 14 -48t46 -12h102q26 0 26 -26v-52
q0 -26 -26 -26h-564q-26 0 -26 26v52q0 26 26 26h102q32 0 46 12t14 48v372q0 36 -14 48t-46 12h-102q-26 0 -26 26v52q0 26 26 26h799q201 0 303.5 -56t102.5 -156q0 -80 -67 -132.5t-198 -70.5q-16 -2 -20.5 -11.5t5.5 -21.5l64 -84q26 -33 60.5 -48.5t89.5 -15.5z
M477 570v-164q0 -26 26 -26h311q103 0 153.5 25t50.5 83t-50.5 83t-153.5 25h-311q-26 0 -26 -26z" />
    <glyph glyph-name="Rcommaaccent" unicode="&#x156;" horiz-adv-x="1337" 
d="M1214 104h54q26 0 26 -26v-52q0 -26 -26 -26h-320q-20 0 -32 16l-184 244q-12 16 -31 16h-198q-26 0 -26 -26v-86q0 -36 14 -48t46 -12h102q26 0 26 -26v-52q0 -26 -26 -26h-564q-26 0 -26 26v52q0 26 26 26h102q32 0 46 12t14 48v372q0 36 -14 48t-46 12h-102
q-26 0 -26 26v52q0 26 26 26h799q201 0 303.5 -56t102.5 -156q0 -80 -67 -132.5t-198 -70.5q-16 -2 -20.5 -11.5t5.5 -21.5l64 -84q26 -33 60.5 -48.5t89.5 -15.5zM477 570v-164q0 -26 26 -26h311q103 0 153.5 25t50.5 83t-50.5 83t-153.5 25h-311q-26 0 -26 -26zM678 -300
q-46 0 -73.5 31.5t-27.5 79.5q0 55 36.5 90t93.5 35q63 0 102 -45t39 -128q0 -98 -53.5 -155.5t-134.5 -76.5q-24 -6 -32 18l-8 23q-8 26 19 32q52 14 81 41.5t35 76.5q1 6 -3 7.5t-8 -4.5q-25 -25 -66 -25z" />
    <glyph glyph-name="rcommaaccent" unicode="&#x157;" horiz-adv-x="1337" 
d="M1214 104h54q26 0 26 -26v-52q0 -26 -26 -26h-320q-20 0 -32 16l-184 244q-12 16 -31 16h-198q-26 0 -26 -26v-86q0 -36 14 -48t46 -12h102q26 0 26 -26v-52q0 -26 -26 -26h-564q-26 0 -26 26v52q0 26 26 26h102q32 0 46 12t14 48v372q0 36 -14 48t-46 12h-102
q-26 0 -26 26v52q0 26 26 26h799q201 0 303.5 -56t102.5 -156q0 -80 -67 -132.5t-198 -70.5q-16 -2 -20.5 -11.5t5.5 -21.5l64 -84q26 -33 60.5 -48.5t89.5 -15.5zM477 570v-164q0 -26 26 -26h311q103 0 153.5 25t50.5 83t-50.5 83t-153.5 25h-311q-26 0 -26 -26zM678 -300
q-46 0 -73.5 31.5t-27.5 79.5q0 55 36.5 90t93.5 35q63 0 102 -45t39 -128q0 -98 -53.5 -155.5t-134.5 -76.5q-24 -6 -32 18l-8 23q-8 26 19 32q52 14 81 41.5t35 76.5q1 6 -3 7.5t-8 -4.5q-25 -25 -66 -25z" />
    <glyph glyph-name="Rcaron" unicode="&#x158;" horiz-adv-x="1337" 
d="M497 974h-26q-16 0 -19.5 -10t8.5 -22l139 -139q13 -13 32 -13h134q19 0 32 13l139 139q12 12 8.5 22t-19.5 10h-26q-17 0 -32 -7l-151 -74q-18 -8 -36 0l-151 74q-15 7 -32 7zM1214 104h54q26 0 26 -26v-52q0 -26 -26 -26h-320q-20 0 -32 16l-184 244q-12 16 -31 16
h-198q-26 0 -26 -26v-86q0 -36 14 -48t46 -12h102q26 0 26 -26v-52q0 -26 -26 -26h-564q-26 0 -26 26v52q0 26 26 26h102q32 0 46 12t14 48v372q0 36 -14 48t-46 12h-102q-26 0 -26 26v52q0 26 26 26h799q201 0 303.5 -56t102.5 -156q0 -80 -67 -132.5t-198 -70.5
q-16 -2 -20.5 -11.5t5.5 -21.5l64 -84q26 -33 60.5 -48.5t89.5 -15.5zM477 570v-164q0 -26 26 -26h311q103 0 153.5 25t50.5 83t-50.5 83t-153.5 25h-311q-26 0 -26 -26z" />
    <glyph glyph-name="rcaron" unicode="&#x159;" horiz-adv-x="1337" 
d="M497 974h-26q-16 0 -19.5 -10t8.5 -22l139 -139q13 -13 32 -13h134q19 0 32 13l139 139q12 12 8.5 22t-19.5 10h-26q-17 0 -32 -7l-151 -74q-18 -8 -36 0l-151 74q-15 7 -32 7zM1214 104h54q26 0 26 -26v-52q0 -26 -26 -26h-320q-20 0 -32 16l-184 244q-12 16 -31 16
h-198q-26 0 -26 -26v-86q0 -36 14 -48t46 -12h102q26 0 26 -26v-52q0 -26 -26 -26h-564q-26 0 -26 26v52q0 26 26 26h102q32 0 46 12t14 48v372q0 36 -14 48t-46 12h-102q-26 0 -26 26v52q0 26 26 26h799q201 0 303.5 -56t102.5 -156q0 -80 -67 -132.5t-198 -70.5
q-16 -2 -20.5 -11.5t5.5 -21.5l64 -84q26 -33 60.5 -48.5t89.5 -15.5zM477 570v-164q0 -26 26 -26h311q103 0 153.5 25t50.5 83t-50.5 83t-153.5 25h-311q-26 0 -26 -26z" />
    <glyph glyph-name="Sacute" unicode="&#x15a;" horiz-adv-x="1162" 
d="M600 960h171q19 0 22 -10.5t-12 -21.5l-189 -132q-16 -10 -33 -10h-44q-16 0 -21 9t3 22l72 125q10 18 31 18zM1049 482h-105q-20 0 -30 19q-36 61 -134 89.5t-223 28.5q-280 0 -280 -91q0 -57 136 -68l370 -29q49 -4 81.5 -8t75.5 -12.5t70.5 -22t54 -34t39 -51
t12.5 -70.5q0 -88 -63.5 -147.5t-168 -86.5t-243.5 -27q-254 0 -390 72q-22 13 -35 -10l-8 -15q-9 -19 -30 -19h-85q-26 0 -26 26v181q0 26 26 26h105q20 0 30 -19q78 -135 390 -135q119 0 195 22.5t76 68.5q0 58 -124 69l-369 30q-70 6 -124 17t-106.5 33t-81.5 62.5
t-29 95.5q0 70 44.5 121.5t118 78t150.5 38t159 11.5q114 0 213 -19t152 -50q24 -13 34 10l7 14q10 19 31 19h85q26 0 26 -26v-166q0 -26 -26 -26z" />
    <glyph glyph-name="sacute" unicode="&#x15b;" horiz-adv-x="1162" 
d="M600 960h171q19 0 22 -10.5t-12 -21.5l-189 -132q-16 -10 -33 -10h-44q-16 0 -21 9t3 22l72 125q10 18 31 18zM1049 482h-105q-20 0 -30 19q-36 61 -134 89.5t-223 28.5q-280 0 -280 -91q0 -57 136 -68l370 -29q49 -4 81.5 -8t75.5 -12.5t70.5 -22t54 -34t39 -51
t12.5 -70.5q0 -88 -63.5 -147.5t-168 -86.5t-243.5 -27q-254 0 -390 72q-22 13 -35 -10l-8 -15q-9 -19 -30 -19h-85q-26 0 -26 26v181q0 26 26 26h105q20 0 30 -19q78 -135 390 -135q119 0 195 22.5t76 68.5q0 58 -124 69l-369 30q-70 6 -124 17t-106.5 33t-81.5 62.5
t-29 95.5q0 70 44.5 121.5t118 78t150.5 38t159 11.5q114 0 213 -19t152 -50q24 -13 34 10l7 14q10 19 31 19h85q26 0 26 -26v-166q0 -26 -26 -26z" />
    <glyph glyph-name="Scedilla" unicode="&#x15e;" horiz-adv-x="1162" 
d="M1116 233q0 -124 -119 -189t-316 -71q-21 -1 -31 -19q-8 -15 -3 -20t22 1q29 9 61 9q68 0 114 -34.5t46 -89.5q0 -60 -57.5 -92t-142.5 -32q-112 0 -213 42q-26 11 -9 35l4 7q13 18 34 12q70 -18 141 -18q48 0 68.5 10t20.5 36q0 46 -60 46q-30 0 -75 -15q-16 -7 -34 -1
l-20 7q-25 10 -13 35l26 52q15 29 -18 31q-189 15 -291 69q-22 13 -35 -10l-8 -15q-9 -19 -30 -19h-85q-26 0 -26 26v181q0 26 26 26h105q20 0 30 -19q78 -135 390 -135q119 0 195 22.5t76 68.5q0 58 -124 69l-369 30q-70 6 -124 17t-106.5 33t-81.5 62.5t-29 95.5
q0 70 44.5 121.5t118 78t150.5 38t159 11.5q114 0 213 -19t152 -50q24 -13 34 10l7 14q10 19 31 19h85q26 0 26 -26v-166q0 -26 -26 -26h-105q-20 0 -30 19q-36 61 -134 89.5t-223 28.5q-280 0 -280 -91q0 -57 136 -68l370 -29q49 -4 81.5 -8t75.5 -12.5t70.5 -22t54 -34
t39 -51t12.5 -70.5z" />
    <glyph glyph-name="scedilla" unicode="&#x15f;" horiz-adv-x="1162" 
d="M1116 233q0 -124 -119 -189t-316 -71q-21 -1 -31 -19q-8 -15 -3 -20t22 1q29 9 61 9q68 0 114 -34.5t46 -89.5q0 -60 -57.5 -92t-142.5 -32q-112 0 -213 42q-26 11 -9 35l4 7q13 18 34 12q70 -18 141 -18q48 0 68.5 10t20.5 36q0 46 -60 46q-30 0 -75 -15q-16 -7 -34 -1
l-20 7q-25 10 -13 35l26 52q15 29 -18 31q-189 15 -291 69q-22 13 -35 -10l-8 -15q-9 -19 -30 -19h-85q-26 0 -26 26v181q0 26 26 26h105q20 0 30 -19q78 -135 390 -135q119 0 195 22.5t76 68.5q0 58 -124 69l-369 30q-70 6 -124 17t-106.5 33t-81.5 62.5t-29 95.5
q0 70 44.5 121.5t118 78t150.5 38t159 11.5q114 0 213 -19t152 -50q24 -13 34 10l7 14q10 19 31 19h85q26 0 26 -26v-166q0 -26 -26 -26h-105q-20 0 -30 19q-36 61 -134 89.5t-223 28.5q-280 0 -280 -91q0 -57 136 -68l370 -29q49 -4 81.5 -8t75.5 -12.5t70.5 -22t54 -34
t39 -51t12.5 -70.5z" />
    <glyph glyph-name="Scaron" unicode="&#x160;" horiz-adv-x="1162" 
d="M384 974h-26q-16 0 -19.5 -10t8.5 -22l139 -139q13 -13 32 -13h134q19 0 32 13l139 139q12 12 8.5 22t-19.5 10h-26q-17 0 -32 -7l-151 -74q-18 -8 -36 0l-151 74q-15 7 -32 7zM1049 482h-105q-20 0 -30 19q-36 61 -134 89.5t-223 28.5q-280 0 -280 -91q0 -57 136 -68
l370 -29q49 -4 81.5 -8t75.5 -12.5t70.5 -22t54 -34t39 -51t12.5 -70.5q0 -88 -63.5 -147.5t-168 -86.5t-243.5 -27q-254 0 -390 72q-22 13 -35 -10l-8 -15q-9 -19 -30 -19h-85q-26 0 -26 26v181q0 26 26 26h105q20 0 30 -19q78 -135 390 -135q119 0 195 22.5t76 68.5
q0 58 -124 69l-369 30q-70 6 -124 17t-106.5 33t-81.5 62.5t-29 95.5q0 70 44.5 121.5t118 78t150.5 38t159 11.5q114 0 213 -19t152 -50q24 -13 34 10l7 14q10 19 31 19h85q26 0 26 -26v-166q0 -26 -26 -26z" />
    <glyph glyph-name="scaron" unicode="&#x161;" horiz-adv-x="1162" 
d="M384 974h-26q-16 0 -19.5 -10t8.5 -22l139 -139q13 -13 32 -13h134q19 0 32 13l139 139q12 12 8.5 22t-19.5 10h-26q-17 0 -32 -7l-151 -74q-18 -8 -36 0l-151 74q-15 7 -32 7zM1049 482h-105q-20 0 -30 19q-36 61 -134 89.5t-223 28.5q-280 0 -280 -91q0 -57 136 -68
l370 -29q49 -4 81.5 -8t75.5 -12.5t70.5 -22t54 -34t39 -51t12.5 -70.5q0 -88 -63.5 -147.5t-168 -86.5t-243.5 -27q-254 0 -390 72q-22 13 -35 -10l-8 -15q-9 -19 -30 -19h-85q-26 0 -26 26v181q0 26 26 26h105q20 0 30 -19q78 -135 390 -135q119 0 195 22.5t76 68.5
q0 58 -124 69l-369 30q-70 6 -124 17t-106.5 33t-81.5 62.5t-29 95.5q0 70 44.5 121.5t118 78t150.5 38t159 11.5q114 0 213 -19t152 -50q24 -13 34 10l7 14q10 19 31 19h85q26 0 26 -26v-166q0 -26 -26 -26z" />
    <glyph glyph-name="Tcedilla" unicode="&#x162;" horiz-adv-x="1254" 
d="M60 700h1134q26 0 26 -26v-234q0 -26 -26 -26h-79q-25 0 -27 26q-8 90 -33 123t-97 33h-185q-26 0 -26 -26v-406q0 -36 14 -48t46 -12h102q26 0 26 -26v-52q0 -26 -26 -26h-214q-21 0 -31 -19l-14 -27q-7 -15 -2.5 -19.5t21.5 0.5q29 9 61 9q68 0 114 -34.5t46 -89.5
q0 -60 -57.5 -92t-142.5 -32q-112 0 -213 42q-26 11 -9 35l4 7q13 18 34 12q70 -18 141 -18q48 0 68.5 10t20.5 36q0 46 -60 46q-30 0 -75 -15q-16 -7 -34 -1l-20 7q-25 10 -13 35l39 77q7 13 2 22t-21 9h-209q-26 0 -26 26v52q0 26 26 26h102q32 0 46 12t14 48v406
q0 26 -26 26h-185q-72 0 -97 -33t-33 -123q-2 -26 -27 -26h-79q-26 0 -26 26v234q0 26 26 26z" />
    <glyph glyph-name="tcedilla" unicode="&#x163;" horiz-adv-x="1254" 
d="M60 700h1134q26 0 26 -26v-234q0 -26 -26 -26h-79q-25 0 -27 26q-8 90 -33 123t-97 33h-185q-26 0 -26 -26v-406q0 -36 14 -48t46 -12h102q26 0 26 -26v-52q0 -26 -26 -26h-214q-21 0 -31 -19l-14 -27q-7 -15 -2.5 -19.5t21.5 0.5q29 9 61 9q68 0 114 -34.5t46 -89.5
q0 -60 -57.5 -92t-142.5 -32q-112 0 -213 42q-26 11 -9 35l4 7q13 18 34 12q70 -18 141 -18q48 0 68.5 10t20.5 36q0 46 -60 46q-30 0 -75 -15q-16 -7 -34 -1l-20 7q-25 10 -13 35l39 77q7 13 2 22t-21 9h-209q-26 0 -26 26v52q0 26 26 26h102q32 0 46 12t14 48v406
q0 26 -26 26h-185q-72 0 -97 -33t-33 -123q-2 -26 -27 -26h-79q-26 0 -26 26v234q0 26 26 26z" />
    <glyph glyph-name="Tcaron" unicode="&#x164;" horiz-adv-x="1254" 
d="M426 974h-26q-16 0 -19.5 -10t8.5 -22l139 -139q13 -13 32 -13h134q19 0 32 13l139 139q12 12 8.5 22t-19.5 10h-26q-17 0 -32 -7l-151 -74q-18 -8 -36 0l-151 74q-15 7 -32 7zM60 700h1134q26 0 26 -26v-234q0 -26 -26 -26h-79q-25 0 -27 26q-8 90 -33 123t-97 33h-185
q-26 0 -26 -26v-406q0 -36 14 -48t46 -12h102q26 0 26 -26v-52q0 -26 -26 -26h-564q-26 0 -26 26v52q0 26 26 26h102q32 0 46 12t14 48v406q0 26 -26 26h-185q-72 0 -97 -33t-33 -123q-2 -26 -27 -26h-79q-26 0 -26 26v234q0 26 26 26z" />
    <glyph glyph-name="tcaron" unicode="&#x165;" horiz-adv-x="1254" 
d="M426 974h-26q-16 0 -19.5 -10t8.5 -22l139 -139q13 -13 32 -13h134q19 0 32 13l139 139q12 12 8.5 22t-19.5 10h-26q-17 0 -32 -7l-151 -74q-18 -8 -36 0l-151 74q-15 7 -32 7zM60 700h1134q26 0 26 -26v-234q0 -26 -26 -26h-79q-25 0 -27 26q-8 90 -33 123t-97 33h-185
q-26 0 -26 -26v-406q0 -36 14 -48t46 -12h102q26 0 26 -26v-52q0 -26 -26 -26h-564q-26 0 -26 26v52q0 26 26 26h102q32 0 46 12t14 48v406q0 26 -26 26h-185q-72 0 -97 -33t-33 -123q-2 -26 -27 -26h-79q-26 0 -26 26v234q0 26 26 26z" />
    <glyph glyph-name="Tbar" unicode="&#x166;" horiz-adv-x="1254" 
d="M385 818v58q0 26 26 26h424q26 0 26 -26v-58q0 -26 -26 -26h-424q-26 0 -26 26zM60 700h1134q26 0 26 -26v-234q0 -26 -26 -26h-79q-25 0 -27 26q-8 90 -33 123t-97 33h-185q-26 0 -26 -26v-406q0 -36 14 -48t46 -12h102q26 0 26 -26v-52q0 -26 -26 -26h-564
q-26 0 -26 26v52q0 26 26 26h102q32 0 46 12t14 48v406q0 26 -26 26h-185q-72 0 -97 -33t-33 -123q-2 -26 -27 -26h-79q-26 0 -26 26v234q0 26 26 26z" />
    <glyph glyph-name="tbar" unicode="&#x167;" horiz-adv-x="1254" 
d="M385 818v58q0 26 26 26h424q26 0 26 -26v-58q0 -26 -26 -26h-424q-26 0 -26 26zM60 700h1134q26 0 26 -26v-234q0 -26 -26 -26h-79q-25 0 -27 26q-8 90 -33 123t-97 33h-185q-26 0 -26 -26v-406q0 -36 14 -48t46 -12h102q26 0 26 -26v-52q0 -26 -26 -26h-564
q-26 0 -26 26v52q0 26 26 26h102q32 0 46 12t14 48v406q0 26 -26 26h-185q-72 0 -97 -33t-33 -123q-2 -26 -27 -26h-79q-26 0 -26 26v234q0 26 26 26z" />
    <glyph glyph-name="Umacron" unicode="&#x16a;" horiz-adv-x="1404" 
d="M512 818v58q0 26 26 26h424q26 0 26 -26v-58q0 -26 -26 -26h-424q-26 0 -26 26zM1352 596h-98q-33 0 -45.5 -12t-12.5 -50v-192q0 -189 -113 -279.5t-376 -90.5q-264 0 -381.5 91.5t-117.5 278.5v192q0 38 -12.5 50t-45.5 12h-98q-26 0 -26 26v52q0 26 26 26h552
q26 0 26 -26v-52q0 -26 -26 -26h-98q-33 0 -45.5 -12t-12.5 -50v-174q0 -143 67 -213.5t232 -70.5q164 0 231.5 73t67.5 211v174q0 38 -12.5 50t-45.5 12h-98q-26 0 -26 26v52q0 26 26 26h462q26 0 26 -26v-52q0 -26 -26 -26z" />
    <glyph glyph-name="umacron" unicode="&#x16b;" horiz-adv-x="1404" 
d="M512 818v58q0 26 26 26h424q26 0 26 -26v-58q0 -26 -26 -26h-424q-26 0 -26 26zM1352 596h-98q-33 0 -45.5 -12t-12.5 -50v-192q0 -189 -113 -279.5t-376 -90.5q-264 0 -381.5 91.5t-117.5 278.5v192q0 38 -12.5 50t-45.5 12h-98q-26 0 -26 26v52q0 26 26 26h552
q26 0 26 -26v-52q0 -26 -26 -26h-98q-33 0 -45.5 -12t-12.5 -50v-174q0 -143 67 -213.5t232 -70.5q164 0 231.5 73t67.5 211v174q0 38 -12.5 50t-45.5 12h-98q-26 0 -26 26v52q0 26 26 26h462q26 0 26 -26v-52q0 -26 -26 -26z" />
    <glyph glyph-name="Uring" unicode="&#x16e;" horiz-adv-x="1404" 
d="M754 770q-91 0 -147.5 32.5t-56.5 90.5t56.5 90.5t147.5 32.5q92 0 148.5 -32.5t56.5 -90.5t-56.5 -90.5t-148.5 -32.5zM669 893q0 -28 22.5 -43.5t62.5 -15.5t63 15.5t23 43.5t-23 43.5t-63 15.5t-62.5 -15.5t-22.5 -43.5zM1352 596h-98q-33 0 -45.5 -12t-12.5 -50v-192
q0 -189 -113 -279.5t-376 -90.5q-264 0 -381.5 91.5t-117.5 278.5v192q0 38 -12.5 50t-45.5 12h-98q-26 0 -26 26v52q0 26 26 26h552q26 0 26 -26v-52q0 -26 -26 -26h-98q-33 0 -45.5 -12t-12.5 -50v-174q0 -143 67 -213.5t232 -70.5q164 0 231.5 73t67.5 211v174
q0 38 -12.5 50t-45.5 12h-98q-26 0 -26 26v52q0 26 26 26h462q26 0 26 -26v-52q0 -26 -26 -26z" />
    <glyph glyph-name="uring" unicode="&#x16f;" horiz-adv-x="1404" 
d="M754 770q-91 0 -147.5 32.5t-56.5 90.5t56.5 90.5t147.5 32.5q92 0 148.5 -32.5t56.5 -90.5t-56.5 -90.5t-148.5 -32.5zM669 893q0 -28 22.5 -43.5t62.5 -15.5t63 15.5t23 43.5t-23 43.5t-63 15.5t-62.5 -15.5t-22.5 -43.5zM1352 596h-98q-33 0 -45.5 -12t-12.5 -50v-192
q0 -189 -113 -279.5t-376 -90.5q-264 0 -381.5 91.5t-117.5 278.5v192q0 38 -12.5 50t-45.5 12h-98q-26 0 -26 26v52q0 26 26 26h552q26 0 26 -26v-52q0 -26 -26 -26h-98q-33 0 -45.5 -12t-12.5 -50v-174q0 -143 67 -213.5t232 -70.5q164 0 231.5 73t67.5 211v174
q0 38 -12.5 50t-45.5 12h-98q-26 0 -26 26v52q0 26 26 26h462q26 0 26 -26v-52q0 -26 -26 -26z" />
    <glyph glyph-name="Uhungarumlaut" unicode="&#x170;" horiz-adv-x="1404" 
d="M514 818l124 139q13 14 32 14h120q17 0 21.5 -9.5t-6.5 -22.5l-124 -139q-13 -14 -32 -14h-120q-17 0 -21.5 9.5t6.5 22.5zM767 818l124 139q13 14 32 14h120q17 0 21.5 -9.5t-6.5 -22.5l-124 -139q-13 -14 -32 -14h-120q-17 0 -21.5 9.5t6.5 22.5zM1352 596h-98
q-33 0 -45.5 -12t-12.5 -50v-192q0 -189 -113 -279.5t-376 -90.5q-264 0 -381.5 91.5t-117.5 278.5v192q0 38 -12.5 50t-45.5 12h-98q-26 0 -26 26v52q0 26 26 26h552q26 0 26 -26v-52q0 -26 -26 -26h-98q-33 0 -45.5 -12t-12.5 -50v-174q0 -143 67 -213.5t232 -70.5
q164 0 231.5 73t67.5 211v174q0 38 -12.5 50t-45.5 12h-98q-26 0 -26 26v52q0 26 26 26h462q26 0 26 -26v-52q0 -26 -26 -26z" />
    <glyph glyph-name="uhungarumlaut" unicode="&#x171;" horiz-adv-x="1404" 
d="M514 818l124 139q13 14 32 14h120q17 0 21.5 -9.5t-6.5 -22.5l-124 -139q-13 -14 -32 -14h-120q-17 0 -21.5 9.5t6.5 22.5zM767 818l124 139q13 14 32 14h120q17 0 21.5 -9.5t-6.5 -22.5l-124 -139q-13 -14 -32 -14h-120q-17 0 -21.5 9.5t6.5 22.5zM1352 596h-98
q-33 0 -45.5 -12t-12.5 -50v-192q0 -189 -113 -279.5t-376 -90.5q-264 0 -381.5 91.5t-117.5 278.5v192q0 38 -12.5 50t-45.5 12h-98q-26 0 -26 26v52q0 26 26 26h552q26 0 26 -26v-52q0 -26 -26 -26h-98q-33 0 -45.5 -12t-12.5 -50v-174q0 -143 67 -213.5t232 -70.5
q164 0 231.5 73t67.5 211v174q0 38 -12.5 50t-45.5 12h-98q-26 0 -26 26v52q0 26 26 26h462q26 0 26 -26v-52q0 -26 -26 -26z" />
    <glyph glyph-name="Uogonek" unicode="&#x172;" horiz-adv-x="1404" 
d="M890 700h462q26 0 26 -26v-52q0 -26 -26 -26h-98q-33 0 -45.5 -12t-12.5 -50v-192q0 -144 -64 -230t-208 -119q-18 -5 -30 -14q-54 -46 -54 -99q0 -57 73 -57q33 0 56 12q24 13 30 1q10 -16 -3 -32q-50 -61 -145 -61q-70 0 -104.5 30t-34.5 76q0 55 50 102q23 22 -8 22
q-15 -1 -47 -1q-264 0 -381.5 91.5t-117.5 278.5v192q0 38 -12.5 50t-45.5 12h-98q-26 0 -26 26v52q0 26 26 26h552q26 0 26 -26v-52q0 -26 -26 -26h-98q-33 0 -45.5 -12t-12.5 -50v-174q0 -143 67 -213.5t232 -70.5q164 0 231.5 73t67.5 211v174q0 38 -12.5 50t-45.5 12
h-98q-26 0 -26 26v52q0 26 26 26z" />
    <glyph glyph-name="uogonek" unicode="&#x173;" horiz-adv-x="1404" 
d="M890 700h462q26 0 26 -26v-52q0 -26 -26 -26h-98q-33 0 -45.5 -12t-12.5 -50v-192q0 -144 -64 -230t-208 -119q-18 -5 -30 -14q-54 -46 -54 -99q0 -57 73 -57q33 0 56 12q24 13 30 1q10 -16 -3 -32q-50 -61 -145 -61q-70 0 -104.5 30t-34.5 76q0 55 50 102q23 22 -8 22
q-15 -1 -47 -1q-264 0 -381.5 91.5t-117.5 278.5v192q0 38 -12.5 50t-45.5 12h-98q-26 0 -26 26v52q0 26 26 26h552q26 0 26 -26v-52q0 -26 -26 -26h-98q-33 0 -45.5 -12t-12.5 -50v-174q0 -143 67 -213.5t232 -70.5q164 0 231.5 73t67.5 211v174q0 38 -12.5 50t-45.5 12
h-98q-26 0 -26 26v52q0 26 26 26z" />
    <glyph glyph-name="Wcircumflex" unicode="&#x174;" horiz-adv-x="1834" 
d="M772 961l-139 -139q-12 -12 -8.5 -22t19.5 -10h26q17 0 32 7l151 74q18 8 36 0l151 -74q15 -7 32 -7h24q17 0 21 10t-8 22l-139 139q-13 13 -32 13h-134q-19 0 -32 -13zM1395 700h403q26 0 26 -26v-52q0 -26 -17 -26h-17q-54 0 -83.5 -13.5t-50.5 -52.5l-277 -512
q-11 -18 -31 -18h-192q-20 0 -31 18l-189 340q-8 14 -18 14t-18 -14l-183 -340q-11 -18 -31 -18h-192q-20 0 -31 18l-285 512q-21 39 -50.5 52.5t-83.5 13.5h-8q-26 0 -26 26v52q0 26 26 26h504q26 0 26 -26v-52q0 -26 -26 -26h-69q-29 0 -37 -17.5t7 -43.5l183 -343
q8 -14 18 -14t18 14l169 322q10 21 -2 36q-37 46 -101 46q-26 0 -26 26v52q0 26 26 26h476q26 0 26 -26v-52q0 -26 -26 -26h-69q-29 0 -37 -17.5t7 -43.5l183 -343q8 -14 18 -14t18 14l179 343q13 23 5.5 42t-36.5 19h-75q-26 0 -26 26v52q0 26 26 26z" />
    <glyph glyph-name="wcircumflex" unicode="&#x175;" horiz-adv-x="1834" 
d="M772 961l-139 -139q-12 -12 -8.5 -22t19.5 -10h26q17 0 32 7l151 74q18 8 36 0l151 -74q15 -7 32 -7h24q17 0 21 10t-8 22l-139 139q-13 13 -32 13h-134q-19 0 -32 -13zM1395 700h403q26 0 26 -26v-52q0 -26 -17 -26h-17q-54 0 -83.5 -13.5t-50.5 -52.5l-277 -512
q-11 -18 -31 -18h-192q-20 0 -31 18l-189 340q-8 14 -18 14t-18 -14l-183 -340q-11 -18 -31 -18h-192q-20 0 -31 18l-285 512q-21 39 -50.5 52.5t-83.5 13.5h-8q-26 0 -26 26v52q0 26 26 26h504q26 0 26 -26v-52q0 -26 -26 -26h-69q-29 0 -37 -17.5t7 -43.5l183 -343
q8 -14 18 -14t18 14l169 322q10 21 -2 36q-37 46 -101 46q-26 0 -26 26v52q0 26 26 26h476q26 0 26 -26v-52q0 -26 -26 -26h-69q-29 0 -37 -17.5t7 -43.5l183 -343q8 -14 18 -14t18 14l179 343q13 23 5.5 42t-36.5 19h-75q-26 0 -26 26v52q0 26 26 26z" />
    <glyph glyph-name="Ycircumflex" unicode="&#x176;" horiz-adv-x="1260" 
d="M591 961l-139 -139q-12 -12 -8.5 -22t19.5 -10h26q17 0 32 7l151 74q18 8 36 0l151 -74q15 -7 32 -7h24q17 0 21 10t-8 22l-139 139q-13 13 -32 13h-134q-19 0 -32 -13zM1079 545l-299 -278q-14 -13 -14 -32v-71q0 -36 14 -48t46 -12h102q26 0 26 -26v-52q0 -26 -26 -26
h-564q-26 0 -26 26v52q0 26 26 26h102q32 0 46 12t14 48v59q0 19 -14 32l-321 290q-33 30 -68.5 40.5t-88.5 10.5q-24 0 -24 26v52q0 26 26 26h530q26 0 26 -26v-52q0 -26 -26 -26h-66q-27 0 -33.5 -16t13.5 -33l197 -175q18 -15 36 1l193 174q20 17 13.5 33t-33.5 16h-66
q-26 0 -26 26v52q0 26 26 26h404q26 0 26 -26v-52q0 -15 -5 -20.5t-19 -5.5q-52 0 -83 -10t-64 -41z" />
    <glyph glyph-name="ycircumflex" unicode="&#x177;" horiz-adv-x="1260" 
d="M591 961l-139 -139q-12 -12 -8.5 -22t19.5 -10h26q17 0 32 7l151 74q18 8 36 0l151 -74q15 -7 32 -7h24q17 0 21 10t-8 22l-139 139q-13 13 -32 13h-134q-19 0 -32 -13zM1079 545l-299 -278q-14 -13 -14 -32v-71q0 -36 14 -48t46 -12h102q26 0 26 -26v-52q0 -26 -26 -26
h-564q-26 0 -26 26v52q0 26 26 26h102q32 0 46 12t14 48v59q0 19 -14 32l-321 290q-33 30 -68.5 40.5t-88.5 10.5q-24 0 -24 26v52q0 26 26 26h530q26 0 26 -26v-52q0 -26 -26 -26h-66q-27 0 -33.5 -16t13.5 -33l197 -175q18 -15 36 1l193 174q20 17 13.5 33t-33.5 16h-66
q-26 0 -26 26v52q0 26 26 26h404q26 0 26 -26v-52q0 -15 -5 -20.5t-19 -5.5q-52 0 -83 -10t-64 -41z" />
    <glyph glyph-name="Ydieresis" unicode="&#x178;" horiz-adv-x="1260" 
d="M561 780q-107 0 -107 87q0 86 107 86q106 0 106 -86q0 -87 -106 -87zM821 780q-107 0 -107 87q0 86 107 86q106 0 106 -86q0 -87 -106 -87zM1079 545l-299 -278q-14 -13 -14 -32v-71q0 -36 14 -48t46 -12h102q26 0 26 -26v-52q0 -26 -26 -26h-564q-26 0 -26 26v52
q0 26 26 26h102q32 0 46 12t14 48v59q0 19 -14 32l-321 290q-33 30 -68.5 40.5t-88.5 10.5q-24 0 -24 26v52q0 26 26 26h530q26 0 26 -26v-52q0 -26 -26 -26h-66q-27 0 -33.5 -16t13.5 -33l197 -175q18 -15 36 1l193 174q20 17 13.5 33t-33.5 16h-66q-26 0 -26 26v52
q0 26 26 26h404q26 0 26 -26v-52q0 -15 -5 -20.5t-19 -5.5q-52 0 -83 -10t-64 -41z" />
    <glyph glyph-name="Zacute" unicode="&#x179;" horiz-adv-x="1190" 
d="M634 960h171q19 0 22 -10.5t-12 -21.5l-189 -132q-16 -10 -33 -10h-44q-16 0 -21 9t3 22l72 125q10 18 31 18zM1103 595l-660 -459q-16 -11 -12.5 -21.5t22.5 -10.5h396q82 0 107 33.5t33 136.5q2 26 27 26h89q26 0 26 -26v-248q0 -26 -26 -26h-1031q-26 0 -26 26v48
q0 19 16 31l660 459q16 11 12.5 21.5t-22.5 10.5h-355q-82 0 -107 -33.5t-33 -136.5q-2 -26 -27 -26h-89q-26 0 -26 26v248q0 26 26 26h990q26 0 26 -26v-48q0 -19 -16 -31z" />
    <glyph glyph-name="zacute" unicode="&#x17a;" horiz-adv-x="1190" 
d="M634 960h171q19 0 22 -10.5t-12 -21.5l-189 -132q-16 -10 -33 -10h-44q-16 0 -21 9t3 22l72 125q10 18 31 18zM1103 595l-660 -459q-16 -11 -12.5 -21.5t22.5 -10.5h396q82 0 107 33.5t33 136.5q2 26 27 26h89q26 0 26 -26v-248q0 -26 -26 -26h-1031q-26 0 -26 26v48
q0 19 16 31l660 459q16 11 12.5 21.5t-22.5 10.5h-355q-82 0 -107 -33.5t-33 -136.5q-2 -26 -27 -26h-89q-26 0 -26 26v248q0 26 26 26h990q26 0 26 -26v-48q0 -19 -16 -31z" />
    <glyph glyph-name="Zdotaccent" unicode="&#x17b;" horiz-adv-x="1190" 
d="M619 780q-107 0 -107 87q0 86 107 86q106 0 106 -86q0 -87 -106 -87zM1103 595l-660 -459q-16 -11 -12.5 -21.5t22.5 -10.5h396q82 0 107 33.5t33 136.5q2 26 27 26h89q26 0 26 -26v-248q0 -26 -26 -26h-1031q-26 0 -26 26v48q0 19 16 31l660 459q16 11 12.5 21.5
t-22.5 10.5h-355q-82 0 -107 -33.5t-33 -136.5q-2 -26 -27 -26h-89q-26 0 -26 26v248q0 26 26 26h990q26 0 26 -26v-48q0 -19 -16 -31z" />
    <glyph glyph-name="zdotaccent" unicode="&#x17c;" horiz-adv-x="1190" 
d="M619 780q-107 0 -107 87q0 86 107 86q106 0 106 -86q0 -87 -106 -87zM1103 595l-660 -459q-16 -11 -12.5 -21.5t22.5 -10.5h396q82 0 107 33.5t33 136.5q2 26 27 26h89q26 0 26 -26v-248q0 -26 -26 -26h-1031q-26 0 -26 26v48q0 19 16 31l660 459q16 11 12.5 21.5
t-22.5 10.5h-355q-82 0 -107 -33.5t-33 -136.5q-2 -26 -27 -26h-89q-26 0 -26 26v248q0 26 26 26h990q26 0 26 -26v-48q0 -19 -16 -31z" />
    <glyph glyph-name="Zcaron" unicode="&#x17d;" horiz-adv-x="1190" 
d="M418 974h-26q-16 0 -19.5 -10t8.5 -22l139 -139q13 -13 32 -13h134q19 0 32 13l139 139q12 12 8.5 22t-19.5 10h-26q-17 0 -32 -7l-151 -74q-18 -8 -36 0l-151 74q-15 7 -32 7zM1103 595l-660 -459q-16 -11 -12.5 -21.5t22.5 -10.5h396q82 0 107 33.5t33 136.5
q2 26 27 26h89q26 0 26 -26v-248q0 -26 -26 -26h-1031q-26 0 -26 26v48q0 19 16 31l660 459q16 11 12.5 21.5t-22.5 10.5h-355q-82 0 -107 -33.5t-33 -136.5q-2 -26 -27 -26h-89q-26 0 -26 26v248q0 26 26 26h990q26 0 26 -26v-48q0 -19 -16 -31z" />
    <glyph glyph-name="zcaron" unicode="&#x17e;" horiz-adv-x="1190" 
d="M418 974h-26q-16 0 -19.5 -10t8.5 -22l139 -139q13 -13 32 -13h134q19 0 32 13l139 139q12 12 8.5 22t-19.5 10h-26q-17 0 -32 -7l-151 -74q-18 -8 -36 0l-151 74q-15 7 -32 7zM1103 595l-660 -459q-16 -11 -12.5 -21.5t22.5 -10.5h396q82 0 107 33.5t33 136.5
q2 26 27 26h89q26 0 26 -26v-248q0 -26 -26 -26h-1031q-26 0 -26 26v48q0 19 16 31l660 459q16 11 12.5 21.5t-22.5 10.5h-355q-82 0 -107 -33.5t-33 -136.5q-2 -26 -27 -26h-89q-26 0 -26 26v248q0 26 26 26h990q26 0 26 -26v-48q0 -19 -16 -31z" />
    <glyph glyph-name="florin" unicode="&#x192;" horiz-adv-x="989" 
d="M701 720q124 0 182.5 -52t58.5 -121q0 -52 -32.5 -81.5t-80.5 -29.5q-46 0 -75.5 26.5t-29.5 68.5q0 33 19 55t53 24q11 0 16 2t2 5.5t-14 6.5q-22 7 -49 7q-49 0 -76 -29t-38 -91l-11 -62q-5 -28 24 -28h78q26 0 26 -26v-52q0 -26 -26 -26h-101q-23 0 -28 -24l-19 -109
q-10 -58 -40 -100t-72.5 -64t-86.5 -31.5t-93 -9.5q-124 0 -182.5 52t-58.5 121q0 52 32.5 81.5t80.5 29.5q46 0 75.5 -26.5t29.5 -68.5q0 -33 -19 -55t-53 -24q-11 0 -16 -2t-2 -5.5t14 -6.5q22 -7 49 -7q49 0 76 29t38 91l18 101q5 28 -24 28h-77q-26 0 -26 26v52
q0 26 26 26h100q23 0 28 24l12 70q10 58 40 100t72.5 64t86.5 31.5t93 9.5z" />
    <glyph glyph-name="circumflex" unicode="&#x2c6;" horiz-adv-x="660" 
d="M231 961l-139 -139q-12 -12 -8.5 -22t19.5 -10h26q17 0 32 7l151 74q18 8 36 0l151 -74q15 -7 32 -7h24q17 0 21 10t-8 22l-139 139q-13 13 -32 13h-134q-19 0 -32 -13z" />
    <glyph glyph-name="caron" unicode="&#x2c7;" horiz-adv-x="660" 
d="M129 974h-26q-16 0 -19.5 -10t8.5 -22l139 -139q13 -13 32 -13h134q19 0 32 13l139 139q12 12 8.5 22t-19.5 10h-26q-17 0 -32 -7l-151 -74q-18 -8 -36 0l-151 74q-15 7 -32 7z" />
    <glyph glyph-name="breve" unicode="&#x2d8;" horiz-adv-x="600" 
d="M452 950h21q28 0 25 -26q-3 -25 -13 -48t-30.5 -47t-60.5 -38.5t-94 -14.5t-94 14.5t-60.5 38.5t-30.5 47t-13 48q-3 26 25 26h21q18 0 29 -20q30 -54 123 -54t123 54q11 20 29 20z" />
    <glyph glyph-name="dotaccent" unicode="&#x2d9;" horiz-adv-x="413" 
d="M207 780q-107 0 -107 87q0 86 107 86q106 0 106 -86q0 -87 -106 -87z" />
    <glyph glyph-name="ring" unicode="&#x2da;" horiz-adv-x="609" 
d="M304 770q-91 0 -147.5 32.5t-56.5 90.5t56.5 90.5t147.5 32.5q92 0 148.5 -32.5t56.5 -90.5t-56.5 -90.5t-148.5 -32.5zM219 893q0 -28 22.5 -43.5t62.5 -15.5t63 15.5t23 43.5t-23 43.5t-63 15.5t-62.5 -15.5t-22.5 -43.5z" />
    <glyph glyph-name="ogonek" unicode="&#x2db;" horiz-adv-x="496" 
d="M228 -120q0 -57 73 -57q33 0 56 12q23 13 31 0q9 -15 -4 -31q-48 -61 -145 -61q-70 0 -104.5 30t-34.5 76q0 92 125 151h86q-83 -54 -83 -120z" />
    <glyph glyph-name="tilde" unicode="&#x2dc;" horiz-adv-x="772" 
d="M126 779h46q20 0 27 24q9 34 57 34q38 0 76.5 -17t84.5 -34t101 -17q154 0 154 128v11q0 26 -26 26h-46q-20 0 -27 -24q-11 -34 -57 -34q-38 0 -115 34t-147 34q-154 0 -154 -128v-11q0 -26 26 -26z" />
    <glyph glyph-name="hungarumlaut" unicode="&#x2dd;" horiz-adv-x="800" 
d="M128 818l124 139q13 14 32 14h120q17 0 21.5 -9.5t-6.5 -22.5l-124 -139q-13 -14 -32 -14h-120q-17 0 -21.5 9.5t6.5 22.5zM381 818l124 139q13 14 32 14h120q17 0 21.5 -9.5t-6.5 -22.5l-124 -139q-13 -14 -32 -14h-120q-17 0 -21.5 9.5t6.5 22.5z" />
    <glyph glyph-name="uni0326" unicode="&#x326;" horiz-adv-x="0" 
d="M197 -300q-46 0 -73.5 31.5t-27.5 79.5q0 55 36.5 90t93.5 35q63 0 102 -45t39 -128q0 -98 -53.5 -155.5t-134.5 -76.5q-24 -6 -32 18l-8 23q-8 26 19 32q52 14 81 41.5t35 76.5q1 6 -3 7.5t-8 -4.5q-25 -25 -66 -25z" />
    <glyph glyph-name="Wgrave" unicode="&#x1e80;" horiz-adv-x="1834" 
d="M688 960h171q21 0 31 -18l72 -125q8 -13 3 -22t-21 -9h-44q-17 0 -33 10l-189 132q-15 11 -12 21.5t22 10.5zM1395 700h403q26 0 26 -26v-52q0 -26 -17 -26h-17q-54 0 -83.5 -13.5t-50.5 -52.5l-277 -512q-11 -18 -31 -18h-192q-20 0 -31 18l-189 340q-8 14 -18 14
t-18 -14l-183 -340q-11 -18 -31 -18h-192q-20 0 -31 18l-285 512q-21 39 -50.5 52.5t-83.5 13.5h-8q-26 0 -26 26v52q0 26 26 26h504q26 0 26 -26v-52q0 -26 -26 -26h-69q-29 0 -37 -17.5t7 -43.5l183 -343q8 -14 18 -14t18 14l169 322q10 21 -2 36q-37 46 -101 46
q-26 0 -26 26v52q0 26 26 26h476q26 0 26 -26v-52q0 -26 -26 -26h-69q-29 0 -37 -17.5t7 -43.5l183 -343q8 -14 18 -14t18 14l179 343q13 23 5.5 42t-36.5 19h-75q-26 0 -26 26v52q0 26 26 26z" />
    <glyph glyph-name="wgrave" unicode="&#x1e81;" horiz-adv-x="1834" 
d="M688 960h171q21 0 31 -18l72 -125q8 -13 3 -22t-21 -9h-44q-17 0 -33 10l-189 132q-15 11 -12 21.5t22 10.5zM1395 700h403q26 0 26 -26v-52q0 -26 -17 -26h-17q-54 0 -83.5 -13.5t-50.5 -52.5l-277 -512q-11 -18 -31 -18h-192q-20 0 -31 18l-189 340q-8 14 -18 14
t-18 -14l-183 -340q-11 -18 -31 -18h-192q-20 0 -31 18l-285 512q-21 39 -50.5 52.5t-83.5 13.5h-8q-26 0 -26 26v52q0 26 26 26h504q26 0 26 -26v-52q0 -26 -26 -26h-69q-29 0 -37 -17.5t7 -43.5l183 -343q8 -14 18 -14t18 14l169 322q10 21 -2 36q-37 46 -101 46
q-26 0 -26 26v52q0 26 26 26h476q26 0 26 -26v-52q0 -26 -26 -26h-69q-29 0 -37 -17.5t7 -43.5l183 -343q8 -14 18 -14t18 14l179 343q13 23 5.5 42t-36.5 19h-75q-26 0 -26 26v52q0 26 26 26z" />
    <glyph glyph-name="Wacute" unicode="&#x1e82;" horiz-adv-x="1834" 
d="M886 960h171q19 0 22 -10.5t-12 -21.5l-189 -132q-16 -10 -33 -10h-44q-16 0 -21 9t3 22l72 125q10 18 31 18zM1395 700h403q26 0 26 -26v-52q0 -26 -17 -26h-17q-54 0 -83.5 -13.5t-50.5 -52.5l-277 -512q-11 -18 -31 -18h-192q-20 0 -31 18l-189 340q-8 14 -18 14
t-18 -14l-183 -340q-11 -18 -31 -18h-192q-20 0 -31 18l-285 512q-21 39 -50.5 52.5t-83.5 13.5h-8q-26 0 -26 26v52q0 26 26 26h504q26 0 26 -26v-52q0 -26 -26 -26h-69q-29 0 -37 -17.5t7 -43.5l183 -343q8 -14 18 -14t18 14l169 322q10 21 -2 36q-37 46 -101 46
q-26 0 -26 26v52q0 26 26 26h476q26 0 26 -26v-52q0 -26 -26 -26h-69q-29 0 -37 -17.5t7 -43.5l183 -343q8 -14 18 -14t18 14l179 343q13 23 5.5 42t-36.5 19h-75q-26 0 -26 26v52q0 26 26 26z" />
    <glyph glyph-name="wacute" unicode="&#x1e83;" horiz-adv-x="1834" 
d="M886 960h171q19 0 22 -10.5t-12 -21.5l-189 -132q-16 -10 -33 -10h-44q-16 0 -21 9t3 22l72 125q10 18 31 18zM1395 700h403q26 0 26 -26v-52q0 -26 -17 -26h-17q-54 0 -83.5 -13.5t-50.5 -52.5l-277 -512q-11 -18 -31 -18h-192q-20 0 -31 18l-189 340q-8 14 -18 14
t-18 -14l-183 -340q-11 -18 -31 -18h-192q-20 0 -31 18l-285 512q-21 39 -50.5 52.5t-83.5 13.5h-8q-26 0 -26 26v52q0 26 26 26h504q26 0 26 -26v-52q0 -26 -26 -26h-69q-29 0 -37 -17.5t7 -43.5l183 -343q8 -14 18 -14t18 14l169 322q10 21 -2 36q-37 46 -101 46
q-26 0 -26 26v52q0 26 26 26h476q26 0 26 -26v-52q0 -26 -26 -26h-69q-29 0 -37 -17.5t7 -43.5l183 -343q8 -14 18 -14t18 14l179 343q13 23 5.5 42t-36.5 19h-75q-26 0 -26 26v52q0 26 26 26z" />
    <glyph glyph-name="Wdieresis" unicode="&#x1e84;" horiz-adv-x="1834" 
d="M742 780q-107 0 -107 87q0 86 107 86q106 0 106 -86q0 -87 -106 -87zM1002 780q-107 0 -107 87q0 86 107 86q106 0 106 -86q0 -87 -106 -87zM1395 700h403q26 0 26 -26v-52q0 -26 -17 -26h-17q-54 0 -83.5 -13.5t-50.5 -52.5l-277 -512q-11 -18 -31 -18h-192
q-20 0 -31 18l-189 340q-8 14 -18 14t-18 -14l-183 -340q-11 -18 -31 -18h-192q-20 0 -31 18l-285 512q-21 39 -50.5 52.5t-83.5 13.5h-8q-26 0 -26 26v52q0 26 26 26h504q26 0 26 -26v-52q0 -26 -26 -26h-69q-29 0 -37 -17.5t7 -43.5l183 -343q8 -14 18 -14t18 14l169 322
q10 21 -2 36q-37 46 -101 46q-26 0 -26 26v52q0 26 26 26h476q26 0 26 -26v-52q0 -26 -26 -26h-69q-29 0 -37 -17.5t7 -43.5l183 -343q8 -14 18 -14t18 14l179 343q13 23 5.5 42t-36.5 19h-75q-26 0 -26 26v52q0 26 26 26z" />
    <glyph glyph-name="wdieresis" unicode="&#x1e85;" horiz-adv-x="1834" 
d="M742 780q-107 0 -107 87q0 86 107 86q106 0 106 -86q0 -87 -106 -87zM1002 780q-107 0 -107 87q0 86 107 86q106 0 106 -86q0 -87 -106 -87zM1395 700h403q26 0 26 -26v-52q0 -26 -17 -26h-17q-54 0 -83.5 -13.5t-50.5 -52.5l-277 -512q-11 -18 -31 -18h-192
q-20 0 -31 18l-189 340q-8 14 -18 14t-18 -14l-183 -340q-11 -18 -31 -18h-192q-20 0 -31 18l-285 512q-21 39 -50.5 52.5t-83.5 13.5h-8q-26 0 -26 26v52q0 26 26 26h504q26 0 26 -26v-52q0 -26 -26 -26h-69q-29 0 -37 -17.5t7 -43.5l183 -343q8 -14 18 -14t18 14l169 322
q10 21 -2 36q-37 46 -101 46q-26 0 -26 26v52q0 26 26 26h476q26 0 26 -26v-52q0 -26 -26 -26h-69q-29 0 -37 -17.5t7 -43.5l183 -343q8 -14 18 -14t18 14l179 343q13 23 5.5 42t-36.5 19h-75q-26 0 -26 26v52q0 26 26 26z" />
    <glyph glyph-name="Ygrave" unicode="&#x1ef2;" horiz-adv-x="1260" 
d="M507 960h171q21 0 31 -18l72 -125q8 -13 3 -22t-21 -9h-44q-17 0 -33 10l-189 132q-15 11 -12 21.5t22 10.5zM1079 545l-299 -278q-14 -13 -14 -32v-71q0 -36 14 -48t46 -12h102q26 0 26 -26v-52q0 -26 -26 -26h-564q-26 0 -26 26v52q0 26 26 26h102q32 0 46 12t14 48v59
q0 19 -14 32l-321 290q-33 30 -68.5 40.5t-88.5 10.5q-24 0 -24 26v52q0 26 26 26h530q26 0 26 -26v-52q0 -26 -26 -26h-66q-27 0 -33.5 -16t13.5 -33l197 -175q18 -15 36 1l193 174q20 17 13.5 33t-33.5 16h-66q-26 0 -26 26v52q0 26 26 26h404q26 0 26 -26v-52
q0 -15 -5 -20.5t-19 -5.5q-52 0 -83 -10t-64 -41z" />
    <glyph glyph-name="ygrave" unicode="&#x1ef3;" horiz-adv-x="1260" 
d="M507 960h171q21 0 31 -18l72 -125q8 -13 3 -22t-21 -9h-44q-17 0 -33 10l-189 132q-15 11 -12 21.5t22 10.5zM1079 545l-299 -278q-14 -13 -14 -32v-71q0 -36 14 -48t46 -12h102q26 0 26 -26v-52q0 -26 -26 -26h-564q-26 0 -26 26v52q0 26 26 26h102q32 0 46 12t14 48v59
q0 19 -14 32l-321 290q-33 30 -68.5 40.5t-88.5 10.5q-24 0 -24 26v52q0 26 26 26h530q26 0 26 -26v-52q0 -26 -26 -26h-66q-27 0 -33.5 -16t13.5 -33l197 -175q18 -15 36 1l193 174q20 17 13.5 33t-33.5 16h-66q-26 0 -26 26v52q0 26 26 26h404q26 0 26 -26v-52
q0 -15 -5 -20.5t-19 -5.5q-52 0 -83 -10t-64 -41z" />
    <glyph glyph-name="endash" unicode="&#x2013;" horiz-adv-x="967" 
d="M80 323v74q0 26 26 26h755q26 0 26 -26v-74q0 -26 -26 -26h-755q-26 0 -26 26z" />
    <glyph glyph-name="emdash" unicode="&#x2014;" horiz-adv-x="1258" 
d="M80 323v74q0 26 26 26h1046q26 0 26 -26v-74q0 -26 -26 -26h-1046q-26 0 -26 26z" />
    <glyph glyph-name="quoteleft" unicode="&#x2018;" horiz-adv-x="363" 
d="M216 546q46 0 73.5 -31.5t27.5 -79.5q0 -55 -36.5 -90t-93.5 -35q-63 0 -102 45t-39 128q0 98 53.5 155.5t134.5 76.5q24 6 32 -18l8 -23q8 -26 -19 -32q-52 -14 -81 -41.5t-35 -76.5q-1 -6 3 -7.5t8 4.5q25 25 66 25z" />
    <glyph glyph-name="quoteright" unicode="&#x2019;" horiz-adv-x="363" 
d="M147 480q-46 0 -73.5 31.5t-27.5 79.5q0 55 36.5 90t93.5 35q63 0 102 -45t39 -128q0 -98 -53.5 -155.5t-134.5 -76.5q-24 -6 -32 18l-8 23q-8 26 19 32q52 14 81 41.5t35 76.5q1 6 -3 7.5t-8 -4.5q-25 -25 -66 -25z" />
    <glyph glyph-name="quotesinglbase" unicode="&#x201a;" horiz-adv-x="359" 
d="M145 -11q-46 0 -73.5 31.5t-27.5 79.5q0 55 36.5 90t93.5 35q63 0 102 -45t39 -128q0 -98 -53.5 -155.5t-134.5 -76.5q-24 -6 -32 18l-8 23q-8 26 19 32q52 14 81 41.5t35 76.5q1 6 -3 7.5t-8 -4.5q-25 -25 -66 -25z" />
    <glyph glyph-name="quotedblleft" unicode="&#x201c;" horiz-adv-x="686" 
d="M539 548q46 0 73.5 -31.5t27.5 -79.5q0 -55 -36.5 -90t-93.5 -35q-63 0 -102 45t-39 128q0 98 53.5 155.5t134.5 76.5q24 6 32 -18l8 -23q8 -26 -19 -32q-52 -14 -81 -41.5t-35 -76.5q-1 -6 3 -7.5t8 4.5q25 25 66 25zM216 546q46 0 73.5 -31.5t27.5 -79.5
q0 -55 -36.5 -90t-93.5 -35q-63 0 -102 45t-39 128q0 98 53.5 155.5t134.5 76.5q24 6 32 -18l8 -23q8 -26 -19 -32q-52 -14 -81 -41.5t-35 -76.5q-1 -6 3 -7.5t8 4.5q25 25 66 25z" />
    <glyph glyph-name="quotedblright" unicode="&#x201d;" horiz-adv-x="686" 
d="M147 480q-46 0 -73.5 31.5t-27.5 79.5q0 55 36.5 90t93.5 35q63 0 102 -45t39 -128q0 -98 -53.5 -155.5t-134.5 -76.5q-24 -6 -32 18l-8 23q-8 26 19 32q52 14 81 41.5t35 76.5q1 6 -3 7.5t-8 -4.5q-25 -25 -66 -25zM470 480q-46 0 -73.5 31.5t-27.5 79.5q0 55 36.5 90
t93.5 35q63 0 102 -45t39 -128q0 -98 -53.5 -155.5t-134.5 -76.5q-24 -6 -32 18l-8 23q-8 26 19 32q52 14 81 41.5t35 76.5q1 6 -3 7.5t-8 -4.5q-25 -25 -66 -25z" />
    <glyph glyph-name="quotedblbase" unicode="&#x201e;" horiz-adv-x="681" 
d="M145 -11q-46 0 -73.5 31.5t-27.5 79.5q0 55 36.5 90t93.5 35q63 0 102 -45t39 -128q0 -98 -53.5 -155.5t-134.5 -76.5q-24 -6 -32 18l-8 23q-8 26 19 32q52 14 81 41.5t35 76.5q1 6 -3 7.5t-8 -4.5q-25 -25 -66 -25zM467 -11q-46 0 -73.5 31.5t-27.5 79.5q0 55 36.5 90
t93.5 35q63 0 102 -45t39 -128q0 -98 -53.5 -155.5t-134.5 -76.5q-24 -6 -32 18l-8 23q-8 26 19 32q52 14 81 41.5t35 76.5q1 6 -3 7.5t-8 -4.5q-25 -25 -66 -25z" />
    <glyph glyph-name="dagger" unicode="&#x2020;" horiz-adv-x="598" 
d="M548 475q0 -32 -22.5 -48.5t-48.5 -16.5q-11 0 -25 3t-24 6t-30 10.5t-32 11.5q-15 5 -24 -2.5t-3 -22.5q14 -35 54 -80q14 -14 5 -36q-34 -83 -64 -276q-3 -24 -27 -24h-16q-24 0 -27 24q-30 193 -64 276q-9 22 5 36q39 43 54 79q6 15 -3.5 22.5t-24.5 2.5
q-8 -3 -31 -11t-31 -10.5t-22.5 -5.5t-25.5 -3q-26 0 -48.5 16.5t-22.5 48.5t22.5 48.5t48.5 16.5q11 0 25 -3t22.5 -5.5t30 -10.5t31.5 -11q16 -5 23.5 2.5t2.5 23.5q-29 85 -29 104q0 35 20 54.5t52 19.5q33 0 52.5 -19t19.5 -55q0 -21 -29 -104q-5 -16 2.5 -23.5
t23.5 -2.5q10 3 31.5 11t30 10.5t22.5 5.5t25 3q26 0 48.5 -16.5t22.5 -48.5z" />
    <glyph glyph-name="daggerdbl" unicode="&#x2021;" horiz-adv-x="598" 
d="M477 290q26 0 48.5 -16.5t22.5 -48.5t-22.5 -48.5t-48.5 -16.5q-11 0 -25 3t-22.5 5.5t-30 10.5t-31.5 11q-16 5 -23.5 -2.5t-2.5 -23.5q29 -83 29 -104q0 -36 -19.5 -55t-52.5 -19q-32 0 -52 19.5t-20 54.5q0 19 29 104q5 16 -2.5 23.5t-23.5 2.5q-10 -3 -31.5 -11
t-30 -10.5t-22.5 -5.5t-25 -3q-26 0 -48.5 16.5t-22.5 48.5t22.5 48.5t48.5 16.5q11 0 24.5 -3t22.5 -5.5t29 -10t30 -10.5q17 -6 25.5 2.5t-0.5 22.5q-15 21 -42 46q-20 18 0 36q26 24 40 44q10 14 0.5 23t-26.5 3q-80 -28 -103 -28q-26 0 -48.5 16.5t-22.5 48.5t22.5 48.5
t48.5 16.5q11 0 25 -3t22.5 -5.5t30 -10.5t31.5 -11q16 -5 23.5 2.5t2.5 23.5q-29 85 -29 104q0 35 20 54.5t52 19.5q33 0 52.5 -19t19.5 -55q0 -21 -29 -104q-5 -16 2.5 -23.5t23.5 -2.5q10 3 31.5 11t30 10.5t22.5 5.5t25 3q26 0 48.5 -16.5t22.5 -48.5t-22.5 -48.5
t-48.5 -16.5q-11 0 -24.5 3t-22.5 5.5t-29 10t-30 10.5q-17 6 -25.5 -2.5t0.5 -22.5q15 -21 42 -46q20 -18 0 -36q-26 -24 -40 -44q-11 -17 10 -22q15 -5 36 3q58 21 83 21z" />
    <glyph glyph-name="bullet" unicode="&#x2022;" horiz-adv-x="513" 
d="M257 203q-79 0 -123 44.5t-44 112.5t44.5 112t122.5 44t122 -44t44 -112t-44 -112.5t-122 -44.5z" />
    <glyph glyph-name="ellipsis" unicode="&#x2026;" horiz-adv-x="1035" 
d="M175 -16q-58 0 -94.5 34.5t-36.5 86.5q0 51 36.5 85.5t94.5 34.5q57 0 93.5 -34.5t36.5 -85.5q0 -52 -36.5 -86.5t-93.5 -34.5zM518 -16q-58 0 -94.5 34.5t-36.5 86.5q0 51 36.5 85.5t94.5 34.5q57 0 93.5 -34.5t36.5 -85.5q0 -52 -36.5 -86.5t-93.5 -34.5zM861 -16
q-58 0 -94.5 34.5t-36.5 86.5q0 51 36.5 85.5t94.5 34.5q57 0 93.5 -34.5t36.5 -85.5q0 -52 -36.5 -86.5t-93.5 -34.5z" />
    <glyph glyph-name="perthousand" unicode="&#x2030;" horiz-adv-x="1731" 
d="M303 334q-120 0 -187.5 47t-67.5 136q0 90 68 141.5t187 51.5t187.5 -51.5t68.5 -141.5q0 -89 -67.5 -136t-188.5 -47zM250 32l584 654q13 14 32 14h74q17 0 21.5 -9.5t-7.5 -22.5l-583 -654q-13 -14 -32 -14h-74q-17 0 -21.5 9.5t6.5 22.5zM198 517q0 -109 105 -109
q106 0 106 109q0 57 -28 88t-78 31t-77.5 -31t-27.5 -88zM897 -10q-120 0 -187.5 47t-67.5 136q0 90 68 141.5t187 51.5t187.5 -51.5t68.5 -141.5q0 -89 -67.5 -136t-188.5 -47zM1431 -10q-120 0 -187.5 47t-67.5 136q0 90 68 141.5t187 51.5t187.5 -51.5t68.5 -141.5
q0 -89 -67.5 -136t-188.5 -47zM792 173q0 -109 105 -109q106 0 106 109q0 57 -28 88t-78 31t-77.5 -31t-27.5 -88zM1326 173q0 -109 105 -109q106 0 106 109q0 57 -28 88t-78 31t-77.5 -31t-27.5 -88z" />
    <glyph glyph-name="guilsinglleft" unicode="&#x2039;" horiz-adv-x="525" 
d="M71 390l309 185q21 12 36 -6l11 -13q16 -19 -2 -37l-154 -152q-18 -18 0 -36l154 -151q18 -18 2 -37l-11 -13q-15 -18 -36 -6l-309 184q-18 11 -18 32v18q0 21 18 32z" />
    <glyph glyph-name="guilsinglright" unicode="&#x203a;" horiz-adv-x="525" 
d="M145 575l309 -185q18 -11 18 -32v-18q0 -21 -18 -32l-309 -184q-21 -12 -36 6l-11 13q-16 19 2 37l154 151q18 18 0 36l-154 152q-18 18 -2 37l11 13q15 18 36 6z" />
    <glyph glyph-name="fraction" unicode="&#x2044;" horiz-adv-x="716" 
d="M3 32l584 654q13 14 32 14h74q17 0 21.5 -9.5t-7.5 -22.5l-583 -654q-13 -14 -32 -14h-74q-17 0 -21.5 9.5t6.5 22.5z" />
    <glyph glyph-name="zerosuperior" unicode="&#x2070;" horiz-adv-x="633" 
d="M316 308q-131 0 -202.5 55t-71.5 147t71.5 147t202.5 55t203 -55t72 -147t-72 -147t-203 -55zM184 510q0 -64 35 -100t97 -36t97.5 36t35.5 100q0 65 -35 100.5t-98 35.5q-62 0 -97 -35.5t-35 -100.5z" />
    <glyph glyph-name="foursuperior" unicode="&#x2074;" horiz-adv-x="673" 
d="M601 432h-89q-12 0 -12 -8v-9q0 -19 5 -25t17 -6h79q12 0 12 -12v-40q0 -12 -12 -12h-340q-12 0 -12 12v40q0 12 12 12h81q12 0 17 6t5 25v5q0 12 -12 12h-314q-12 0 -12 12v44q0 9 8 15l357 193q7 4 15 4h82q12 0 12 -12v-180q0 -12 12 -12h89q12 0 12 -12v-40
q0 -12 -12 -12zM177 496h175q12 0 12 12v91q0 7 -4 9.5t-10 -1.5l-177 -97q-8 -4 -6.5 -9t10.5 -5z" />
    <glyph glyph-name="Euro" unicode="&#x20ac;" horiz-adv-x="1383" 
d="M806 624q-213 0 -298 -102q-10 -12 -5 -21.5t22 -9.5h459q26 0 26 -26v-48q0 -26 -26 -26h-504q-27 0 -27 -37t27 -37h504q26 0 26 -26v-48q0 -26 -26 -26h-465q-16 0 -21.5 -9t4.5 -22q82 -110 304 -110q125 0 205 39t126 120q10 19 31 19h113q26 0 26 -26v-202
q0 -26 -26 -26h-93q-21 0 -31 19l-14 27q-12 24 -35 10q-136 -82 -342 -82q-208 0 -349 56t-197 168q-9 19 -30 19h-113q-26 0 -26 26v48q0 26 26 26h85q25 0 25 37t-25 37h-85q-26 0 -26 26v48q0 26 26 26h116q21 0 31 19q57 109 197 162.5t345 53.5q206 0 342 -82
q23 -14 35 9l14 28q10 19 31 19h93q26 0 26 -26v-202q0 -26 -26 -26h-113q-21 0 -28 14q-46 84 -126.5 124t-207.5 40z" />
    <glyph glyph-name="trademark" unicode="&#x2122;" horiz-adv-x="1529" 
d="M66 700h536q12 0 12 -12v-108q0 -12 -12 -12h-41q-11 0 -13 11q-8 35 -26 51t-52 16h-62q-12 0 -12 -12v-167q0 -21 4 -27t19 -6h45q12 0 12 -12v-30q0 -12 -12 -12h-258q-12 0 -12 12v30q0 12 12 12h45q15 0 18.5 6t3.5 27v167q0 12 -12 12h-62q-62 0 -78 -67
q-2 -11 -13 -11h-42q-12 0 -12 12v108q0 12 12 12zM1372 614v-146q0 -22 4 -28t18 -6h45q12 0 12 -12v-30q0 -12 -12 -12h-258q-12 0 -12 12v30q0 12 12 12h45q14 0 18 6t4 28v149q0 8 -5 9.5t-10 -5.5l-156 -233q-4 -8 -14 -8h-54q-10 0 -14 8l-157 233q-5 8 -10 6.5
t-5 -10.5v-150q0 -21 3.5 -27t18.5 -6h45q12 0 12 -12v-30q0 -12 -12 -12h-222q-12 0 -12 12v30q0 12 12 12h46q14 0 17.5 6t3.5 27v145q0 23 -3.5 28.5t-17.5 5.5h-46q-12 0 -12 12v30q0 12 12 12h225q10 0 14 -8l139 -206q8 -11 16 0l139 206q4 8 14 8h224q12 0 12 -12
v-30q0 -12 -12 -12h-45q-14 0 -18 -5.5t-4 -26.5z" />
    <glyph glyph-name="minus" unicode="&#x2212;" horiz-adv-x="833" 
d="M80 323v74q0 26 26 26h621q26 0 26 -26v-74q0 -26 -26 -26h-621q-26 0 -26 26z" />
    <glyph glyph-name="notequal" unicode="&#x2260;" horiz-adv-x="836" 
d="M730 397h-197q-20 0 -31 -17l-25 -38q-20 -31 18 -31h235q26 0 26 -26v-68q0 -26 -26 -26h-331q-20 0 -31 -17l-63 -96q-11 -17 -31 -17h-76q-16 0 -21 9t4 22l44 68q21 31 -17 31h-102q-26 0 -26 26v68q0 26 26 26h197q20 0 31 17l25 38q20 31 -18 31h-235q-26 0 -26 26
v68q0 26 26 26h331q20 0 31 17l63 96q11 17 31 17h76q16 0 21 -9t-4 -22l-44 -68q-20 -31 17 -31h102q26 0 26 -26v-68q0 -26 -26 -26z" />
    </font>
</defs>
</svg>
